%TF.GenerationSoftware,KiCad,Pcbnew,10.0.2*%
%TF.CreationDate,2026-05-25T22:19:18-04:00*%
%TF.ProjectId,Proto,50726f74-6f2e-46b6-9963-61645f706362,rev?*%
%TF.SameCoordinates,Original*%
%TF.FileFunction,Soldermask,Top*%
%TF.FilePolarity,Negative*%
%FSLAX46Y46*%
G04 Gerber Fmt 4.6, Leading zero omitted, Abs format (unit mm)*
G04 Created by KiCad (PCBNEW 10.0.2) date 2026-05-25 22:19:18*
%MOMM*%
%LPD*%
G01*
G04 APERTURE LIST*
G04 Aperture macros list*
%AMRoundRect*
0 Rectangle with rounded corners*
0 $1 Rounding radius*
0 $2 $3 $4 $5 $6 $7 $8 $9 X,Y pos of 4 corners*
0 Add a 4 corners polygon primitive as box body*
4,1,4,$2,$3,$4,$5,$6,$7,$8,$9,$2,$3,0*
0 Add four circle primitives for the rounded corners*
1,1,$1+$1,$2,$3*
1,1,$1+$1,$4,$5*
1,1,$1+$1,$6,$7*
1,1,$1+$1,$8,$9*
0 Add four rect primitives between the rounded corners*
20,1,$1+$1,$2,$3,$4,$5,0*
20,1,$1+$1,$4,$5,$6,$7,0*
20,1,$1+$1,$6,$7,$8,$9,0*
20,1,$1+$1,$8,$9,$2,$3,0*%
G04 Aperture macros list end*
%ADD10R,1.800000X1.800000*%
%ADD11C,1.800000*%
%ADD12C,1.600000*%
%ADD13O,1.900000X3.200000*%
%ADD14R,1.600000X1.600000*%
%ADD15C,2.340000*%
%ADD16RoundRect,0.250000X-0.550000X0.550000X-0.550000X-0.550000X0.550000X-0.550000X0.550000X0.550000X0*%
%ADD17C,3.500000*%
%ADD18R,1.905000X2.000000*%
%ADD19O,1.905000X2.000000*%
%ADD20RoundRect,0.250000X0.550000X-0.550000X0.550000X0.550000X-0.550000X0.550000X-0.550000X-0.550000X0*%
%ADD21RoundRect,0.249999X0.850001X-0.850001X0.850001X0.850001X-0.850001X0.850001X-0.850001X-0.850001X0*%
%ADD22C,2.200000*%
%ADD23C,2.000000*%
G04 APERTURE END LIST*
D10*
%TO.C,D1*%
X112095000Y-101100000D03*
D11*
X112095000Y-98560000D03*
%TD*%
D12*
%TO.C,C2*%
X175450000Y-102500000D03*
X175450000Y-107500000D03*
%TD*%
D13*
%TO.C,SW2*%
X109595000Y-120765000D03*
X109595000Y-108265000D03*
X114595000Y-120765000D03*
X114595000Y-108265000D03*
%TD*%
D14*
%TO.C,BZ1*%
X151000000Y-92000000D03*
D12*
X151000000Y-88000000D03*
%TD*%
D13*
%TO.C,SW5*%
X156245000Y-120765000D03*
X156245000Y-108265000D03*
X161245000Y-120765000D03*
X161245000Y-108265000D03*
%TD*%
D10*
%TO.C,D3*%
X143195000Y-101100000D03*
D11*
X143195000Y-98560000D03*
%TD*%
D12*
%TO.C,R1*%
X107050000Y-91920000D03*
X107050000Y-84300000D03*
%TD*%
%TO.C,C1*%
X170450000Y-107500000D03*
X170450000Y-102500000D03*
%TD*%
D15*
%TO.C,RV1*%
X169505000Y-111000000D03*
X172005000Y-121000000D03*
X174505000Y-111000000D03*
%TD*%
D13*
%TO.C,SW3*%
X125145000Y-120765000D03*
X125145000Y-108265000D03*
X130145000Y-120765000D03*
X130145000Y-108265000D03*
%TD*%
%TO.C,SW4*%
X140695000Y-120765000D03*
X140695000Y-108265000D03*
X145695000Y-120765000D03*
X145695000Y-108265000D03*
%TD*%
D16*
%TO.C,J1*%
X177000000Y-73500000D03*
D12*
X177000000Y-77100000D03*
%TD*%
%TO.C,R8*%
X135400000Y-91920000D03*
X135400000Y-84300000D03*
%TD*%
%TO.C,R7*%
X131350000Y-91920000D03*
X131350000Y-84300000D03*
%TD*%
D17*
%TO.C,Q1*%
X162000000Y-75070000D03*
D18*
X159460000Y-91730000D03*
D19*
X162000000Y-91730000D03*
X164540000Y-91730000D03*
%TD*%
D12*
%TO.C,R3*%
X115150000Y-91920000D03*
X115150000Y-84300000D03*
%TD*%
%TO.C,R2*%
X111100000Y-91920000D03*
X111100000Y-84300000D03*
%TD*%
%TO.C,R5*%
X123250000Y-91920000D03*
X123250000Y-84300000D03*
%TD*%
D17*
%TO.C,U2*%
X173000000Y-82070000D03*
D18*
X170460000Y-98730000D03*
D19*
X173000000Y-98730000D03*
X175540000Y-98730000D03*
%TD*%
D12*
%TO.C,R6*%
X127300000Y-91920000D03*
X127300000Y-84300000D03*
%TD*%
%TO.C,R4*%
X119200000Y-91920000D03*
X119200000Y-84300000D03*
%TD*%
D10*
%TO.C,D5*%
X171500000Y-76540000D03*
D11*
X171500000Y-74000000D03*
%TD*%
D20*
%TO.C,U1*%
X116140000Y-81120000D03*
D12*
X118680000Y-81120000D03*
X121220000Y-81120000D03*
X123760000Y-81120000D03*
X126300000Y-81120000D03*
X128840000Y-81120000D03*
X131380000Y-81120000D03*
X133920000Y-81120000D03*
X136460000Y-81120000D03*
X139000000Y-81120000D03*
X141540000Y-81120000D03*
X144080000Y-81120000D03*
X146620000Y-81120000D03*
X149160000Y-81120000D03*
X149160000Y-73500000D03*
X146620000Y-73500000D03*
X144080000Y-73500000D03*
X141540000Y-73500000D03*
X139000000Y-73500000D03*
X136460000Y-73500000D03*
X133920000Y-73500000D03*
X131380000Y-73500000D03*
X128840000Y-73500000D03*
X126300000Y-73500000D03*
X123760000Y-73500000D03*
X121220000Y-73500000D03*
X118680000Y-73500000D03*
X116140000Y-73500000D03*
%TD*%
D21*
%TO.C,D6*%
X154000000Y-83580000D03*
D22*
X154000000Y-73420000D03*
%TD*%
D10*
%TO.C,D4*%
X158745000Y-101100000D03*
D11*
X158745000Y-98560000D03*
%TD*%
D12*
%TO.C,R9*%
X139450000Y-91920000D03*
X139450000Y-84300000D03*
%TD*%
D10*
%TO.C,D2*%
X127645000Y-101100000D03*
D11*
X127645000Y-98560000D03*
%TD*%
D12*
%TO.C,R10*%
X143500000Y-91920000D03*
X143500000Y-84300000D03*
%TD*%
D23*
%TO.C,SW1*%
X107250000Y-80750000D03*
X107250000Y-74250000D03*
X111750000Y-80750000D03*
X111750000Y-74250000D03*
%TD*%
M02*
