%TF.GenerationSoftware,KiCad,Pcbnew,10.0.2*%
%TF.CreationDate,2026-05-25T22:19:18-04:00*%
%TF.ProjectId,Proto,50726f74-6f2e-46b6-9963-61645f706362,rev?*%
%TF.SameCoordinates,Original*%
%TF.FileFunction,Copper,L1,Top*%
%TF.FilePolarity,Positive*%
%FSLAX46Y46*%
G04 Gerber Fmt 4.6, Leading zero omitted, Abs format (unit mm)*
G04 Created by KiCad (PCBNEW 10.0.2) date 2026-05-25 22:19:18*
%MOMM*%
%LPD*%
G01*
G04 APERTURE LIST*
G04 Aperture macros list*
%AMRoundRect*
0 Rectangle with rounded corners*
0 $1 Rounding radius*
0 $2 $3 $4 $5 $6 $7 $8 $9 X,Y pos of 4 corners*
0 Add a 4 corners polygon primitive as box body*
4,1,4,$2,$3,$4,$5,$6,$7,$8,$9,$2,$3,0*
0 Add four circle primitives for the rounded corners*
1,1,$1+$1,$2,$3*
1,1,$1+$1,$4,$5*
1,1,$1+$1,$6,$7*
1,1,$1+$1,$8,$9*
0 Add four rect primitives between the rounded corners*
20,1,$1+$1,$2,$3,$4,$5,0*
20,1,$1+$1,$4,$5,$6,$7,0*
20,1,$1+$1,$6,$7,$8,$9,0*
20,1,$1+$1,$8,$9,$2,$3,0*%
G04 Aperture macros list end*
%TA.AperFunction,ComponentPad*%
%ADD10R,1.800000X1.800000*%
%TD*%
%TA.AperFunction,ComponentPad*%
%ADD11C,1.800000*%
%TD*%
%TA.AperFunction,ComponentPad*%
%ADD12C,1.600000*%
%TD*%
%TA.AperFunction,ComponentPad*%
%ADD13O,1.900000X3.200000*%
%TD*%
%TA.AperFunction,ComponentPad*%
%ADD14R,1.600000X1.600000*%
%TD*%
%TA.AperFunction,ComponentPad*%
%ADD15C,2.340000*%
%TD*%
%TA.AperFunction,ComponentPad*%
%ADD16RoundRect,0.250000X-0.550000X0.550000X-0.550000X-0.550000X0.550000X-0.550000X0.550000X0.550000X0*%
%TD*%
%TA.AperFunction,ComponentPad*%
%ADD17R,1.905000X2.000000*%
%TD*%
%TA.AperFunction,ComponentPad*%
%ADD18O,1.905000X2.000000*%
%TD*%
%TA.AperFunction,ComponentPad*%
%ADD19RoundRect,0.250000X0.550000X-0.550000X0.550000X0.550000X-0.550000X0.550000X-0.550000X-0.550000X0*%
%TD*%
%TA.AperFunction,ComponentPad*%
%ADD20RoundRect,0.249999X0.850001X-0.850001X0.850001X0.850001X-0.850001X0.850001X-0.850001X-0.850001X0*%
%TD*%
%TA.AperFunction,ComponentPad*%
%ADD21C,2.200000*%
%TD*%
%TA.AperFunction,ComponentPad*%
%ADD22C,2.000000*%
%TD*%
%TA.AperFunction,Conductor*%
%ADD23C,0.250000*%
%TD*%
G04 APERTURE END LIST*
D10*
%TO.P,D1,1,K_1*%
%TO.N,GND*%
X112095000Y-101100000D03*
D11*
%TO.P,D1,2,A_2*%
%TO.N,Net-(D1-A)*%
X112095000Y-98560000D03*
%TD*%
D12*
%TO.P,C2,1*%
%TO.N,Net-(Q1-G)*%
X175450000Y-102500000D03*
%TO.P,C2,2*%
%TO.N,GND*%
X175450000Y-107500000D03*
%TD*%
D13*
%TO.P,SW2,1,1_1*%
%TO.N,Net-(U1-PD3)*%
X109595000Y-120765000D03*
X109595000Y-108265000D03*
%TO.P,SW2,2,2_2*%
%TO.N,Net-(Q1-G)*%
X114595000Y-120765000D03*
X114595000Y-108265000D03*
%TD*%
D14*
%TO.P,BZ1,1,+_1*%
%TO.N,Net-(BZ1-+)*%
X151000000Y-92000000D03*
D12*
%TO.P,BZ1,2,-_2*%
%TO.N,GND*%
X151000000Y-88000000D03*
%TD*%
D13*
%TO.P,SW5,1,1_1*%
%TO.N,Net-(U1-PB1)*%
X156245000Y-120765000D03*
X156245000Y-108265000D03*
%TO.P,SW5,2,2_2*%
%TO.N,Net-(Q1-G)*%
X161245000Y-120765000D03*
X161245000Y-108265000D03*
%TD*%
D10*
%TO.P,D3,1,K_1*%
%TO.N,GND*%
X143195000Y-101100000D03*
D11*
%TO.P,D3,2,A_2*%
%TO.N,Net-(D3-A)*%
X143195000Y-98560000D03*
%TD*%
D12*
%TO.P,R1,1*%
%TO.N,Net-(Q1-G)*%
X107050000Y-91920000D03*
%TO.P,R1,2*%
%TO.N,Net-(U1-~{RESET}{slash}PC6)*%
X107050000Y-84300000D03*
%TD*%
%TO.P,C1,1*%
%TO.N,GND*%
X170450000Y-107500000D03*
%TO.P,C1,2*%
%TO.N,+9V*%
X170450000Y-102500000D03*
%TD*%
D15*
%TO.P,RV1,1,1_1*%
%TO.N,Net-(U1-PB5)*%
X169505000Y-111000000D03*
%TO.P,RV1,2,2_2*%
%TO.N,Net-(BZ1-+)*%
X172005000Y-121000000D03*
%TO.P,RV1,3,3_3*%
%TO.N,GND*%
X174505000Y-111000000D03*
%TD*%
D13*
%TO.P,SW3,1,1_1*%
%TO.N,Net-(U1-PD5)*%
X125145000Y-120765000D03*
X125145000Y-108265000D03*
%TO.P,SW3,2,2_2*%
%TO.N,Net-(Q1-G)*%
X130145000Y-120765000D03*
X130145000Y-108265000D03*
%TD*%
%TO.P,SW4,1,1_1*%
%TO.N,Net-(U1-PD7)*%
X140695000Y-120765000D03*
X140695000Y-108265000D03*
%TO.P,SW4,2,2_2*%
%TO.N,Net-(Q1-G)*%
X145695000Y-120765000D03*
X145695000Y-108265000D03*
%TD*%
D16*
%TO.P,J1,1,Pin_1_1*%
%TO.N,+9V*%
X177000000Y-73500000D03*
D12*
%TO.P,J1,2,Pin_2_2*%
%TO.N,GND*%
X177000000Y-77100000D03*
%TD*%
%TO.P,R8,1*%
%TO.N,Net-(D4-A)*%
X135400000Y-91920000D03*
%TO.P,R8,2*%
%TO.N,Net-(U1-PB0)*%
X135400000Y-84300000D03*
%TD*%
%TO.P,R7,1*%
%TO.N,Net-(U1-PD7)*%
X131350000Y-91920000D03*
%TO.P,R7,2*%
%TO.N,GND*%
X131350000Y-84300000D03*
%TD*%
D17*
%TO.P,Q1,1,G_1*%
%TO.N,Net-(Q1-G)*%
X159460000Y-91730000D03*
D18*
%TO.P,Q1,2,D_2*%
%TO.N,Net-(Q1-D)*%
X162000000Y-91730000D03*
%TO.P,Q1,3,S_3*%
%TO.N,Net-(D6-K)*%
X164540000Y-91730000D03*
%TD*%
D12*
%TO.P,R3,1*%
%TO.N,Net-(U1-PD3)*%
X115150000Y-91920000D03*
%TO.P,R3,2*%
%TO.N,GND*%
X115150000Y-84300000D03*
%TD*%
%TO.P,R2,1*%
%TO.N,Net-(D1-A)*%
X111100000Y-91920000D03*
%TO.P,R2,2*%
%TO.N,Net-(U1-PD2)*%
X111100000Y-84300000D03*
%TD*%
%TO.P,R5,1*%
%TO.N,Net-(U1-PD5)*%
X123250000Y-91920000D03*
%TO.P,R5,2*%
%TO.N,GND*%
X123250000Y-84300000D03*
%TD*%
D17*
%TO.P,U2,1,IN_1*%
%TO.N,+9V*%
X170460000Y-98730000D03*
D18*
%TO.P,U2,2,GND_2*%
%TO.N,GND*%
X173000000Y-98730000D03*
%TO.P,U2,3,OUT_3*%
%TO.N,Net-(Q1-G)*%
X175540000Y-98730000D03*
%TD*%
D12*
%TO.P,R6,1*%
%TO.N,Net-(D3-A)*%
X127300000Y-91920000D03*
%TO.P,R6,2*%
%TO.N,Net-(U1-PD6)*%
X127300000Y-84300000D03*
%TD*%
%TO.P,R4,1*%
%TO.N,Net-(D2-A)*%
X119200000Y-91920000D03*
%TO.P,R4,2*%
%TO.N,Net-(U1-PD4)*%
X119200000Y-84300000D03*
%TD*%
D10*
%TO.P,D5,1,K_1*%
%TO.N,Net-(D5-K)*%
X171500000Y-76540000D03*
D11*
%TO.P,D5,2,A_2*%
%TO.N,+9V*%
X171500000Y-74000000D03*
%TD*%
D19*
%TO.P,U1,1,~{RESET}/PC6_1*%
%TO.N,Net-(U1-~{RESET}{slash}PC6)*%
X116140000Y-81120000D03*
D12*
%TO.P,U1,2,PD0_2*%
%TO.N,unconnected-(U1-PD0-Pad2)*%
X118680000Y-81120000D03*
%TO.P,U1,3,PD1_3*%
%TO.N,unconnected-(U1-PD1-Pad3)*%
X121220000Y-81120000D03*
%TO.P,U1,4,PD2_4*%
%TO.N,Net-(U1-PD2)*%
X123760000Y-81120000D03*
%TO.P,U1,5,PD3_5*%
%TO.N,Net-(U1-PD3)*%
X126300000Y-81120000D03*
%TO.P,U1,6,PD4_6*%
%TO.N,Net-(U1-PD4)*%
X128840000Y-81120000D03*
%TO.P,U1,7,VCC_7*%
%TO.N,Net-(Q1-G)*%
X131380000Y-81120000D03*
%TO.P,U1,8,GND_8*%
%TO.N,GND*%
X133920000Y-81120000D03*
%TO.P,U1,9,XTAL1/PB6_9*%
%TO.N,unconnected-(U1-XTAL1{slash}PB6-Pad9)*%
X136460000Y-81120000D03*
%TO.P,U1,10,XTAL2/PB7_10*%
%TO.N,unconnected-(U1-XTAL2{slash}PB7-Pad10)*%
X139000000Y-81120000D03*
%TO.P,U1,11,PD5_11*%
%TO.N,Net-(U1-PD5)*%
X141540000Y-81120000D03*
%TO.P,U1,12,PD6_12*%
%TO.N,Net-(U1-PD6)*%
X144080000Y-81120000D03*
%TO.P,U1,13,PD7_13*%
%TO.N,Net-(U1-PD7)*%
X146620000Y-81120000D03*
%TO.P,U1,14,PB0_14*%
%TO.N,Net-(U1-PB0)*%
X149160000Y-81120000D03*
%TO.P,U1,15,PB1_15*%
%TO.N,Net-(U1-PB1)*%
X149160000Y-73500000D03*
%TO.P,U1,16,PB2_16*%
%TO.N,unconnected-(U1-PB2-Pad16)*%
X146620000Y-73500000D03*
%TO.P,U1,17,PB3_17*%
%TO.N,unconnected-(U1-PB3-Pad17)*%
X144080000Y-73500000D03*
%TO.P,U1,18,PB4_18*%
%TO.N,unconnected-(U1-PB4-Pad18)*%
X141540000Y-73500000D03*
%TO.P,U1,19,PB5_19*%
%TO.N,Net-(U1-PB5)*%
X139000000Y-73500000D03*
%TO.P,U1,20,AVCC_20*%
%TO.N,Net-(Q1-G)*%
X136460000Y-73500000D03*
%TO.P,U1,21,AREF_21*%
%TO.N,unconnected-(U1-AREF-Pad21)*%
X133920000Y-73500000D03*
%TO.P,U1,22,GND_22*%
%TO.N,GND*%
X131380000Y-73500000D03*
%TO.P,U1,23,PC0_23*%
%TO.N,unconnected-(U1-PC0-Pad23)*%
X128840000Y-73500000D03*
%TO.P,U1,24,PC1_24*%
%TO.N,unconnected-(U1-PC1-Pad24)*%
X126300000Y-73500000D03*
%TO.P,U1,25,PC2_25*%
%TO.N,unconnected-(U1-PC2-Pad25)*%
X123760000Y-73500000D03*
%TO.P,U1,26,PC3_26*%
%TO.N,unconnected-(U1-PC3-Pad26)*%
X121220000Y-73500000D03*
%TO.P,U1,27,PC4_27*%
%TO.N,unconnected-(U1-PC4-Pad27)*%
X118680000Y-73500000D03*
%TO.P,U1,28,PC5_28*%
%TO.N,unconnected-(U1-PC5-Pad28)*%
X116140000Y-73500000D03*
%TD*%
D20*
%TO.P,D6,1,K_1*%
%TO.N,Net-(D6-K)*%
X154000000Y-83580000D03*
D21*
%TO.P,D6,2,A_2*%
%TO.N,Net-(D5-K)*%
X154000000Y-73420000D03*
%TD*%
D10*
%TO.P,D4,1,K_1*%
%TO.N,GND*%
X158745000Y-101100000D03*
D11*
%TO.P,D4,2,A_2*%
%TO.N,Net-(D4-A)*%
X158745000Y-98560000D03*
%TD*%
D12*
%TO.P,R9,1*%
%TO.N,Net-(U1-PB1)*%
X139450000Y-91920000D03*
%TO.P,R9,2*%
%TO.N,GND*%
X139450000Y-84300000D03*
%TD*%
D10*
%TO.P,D2,1,K_1*%
%TO.N,GND*%
X127645000Y-101100000D03*
D11*
%TO.P,D2,2,A_2*%
%TO.N,Net-(D2-A)*%
X127645000Y-98560000D03*
%TD*%
D12*
%TO.P,R10,1*%
%TO.N,GND*%
X143500000Y-91920000D03*
%TO.P,R10,2*%
%TO.N,Net-(Q1-D)*%
X143500000Y-84300000D03*
%TD*%
D22*
%TO.P,SW1,1,1_1*%
%TO.N,Net-(U1-~{RESET}{slash}PC6)*%
X107250000Y-80750000D03*
X107250000Y-74250000D03*
%TO.P,SW1,2,2_2*%
%TO.N,GND*%
X111750000Y-80750000D03*
X111750000Y-74250000D03*
%TD*%
%TO.N,Net-(BZ1-+)*%
D23*
X172005000Y-121000000D02*
X172005000Y-116501167D01*
X172005000Y-116501167D02*
X160520000Y-105016167D01*
X154695230Y-92000000D02*
X151000000Y-92000000D01*
X160520000Y-97824770D02*
X154695230Y-92000000D01*
X160520000Y-105016167D02*
X160520000Y-97824770D01*
%TO.N,+9V*%
X172000000Y-73500000D02*
X171500000Y-74000000D01*
X177000000Y-73500000D02*
X172000000Y-73500000D01*
X170460000Y-80040000D02*
X170460000Y-98730000D01*
X170460000Y-98730000D02*
X170460000Y-102490000D01*
X177000000Y-73500000D02*
X170460000Y-80040000D01*
X170460000Y-102490000D02*
X170450000Y-102500000D01*
%TO.N,Net-(Q1-G)*%
X175540000Y-102410000D02*
X175450000Y-102500000D01*
%TO.N,Net-(D1-A)*%
X111100000Y-97565000D02*
X112095000Y-98560000D01*
X111100000Y-91920000D02*
X111100000Y-97565000D01*
%TO.N,Net-(D2-A)*%
X121005000Y-91920000D02*
X127645000Y-98560000D01*
X119200000Y-91920000D02*
X121005000Y-91920000D01*
%TO.N,Net-(D3-A)*%
X127300000Y-91920000D02*
X133940000Y-98560000D01*
X133940000Y-98560000D02*
X143195000Y-98560000D01*
%TO.N,Net-(D4-A)*%
X135400000Y-91920000D02*
X140265000Y-96785000D01*
X140265000Y-96785000D02*
X156970000Y-96785000D01*
X156970000Y-96785000D02*
X158745000Y-98560000D01*
%TO.N,Net-(D5-K)*%
X170040000Y-78000000D02*
X158580000Y-78000000D01*
X158580000Y-78000000D02*
X154000000Y-73420000D01*
X171500000Y-76540000D02*
X170040000Y-78000000D01*
%TO.N,Net-(D6-K)*%
X154000000Y-83580000D02*
X156390000Y-83580000D01*
X156390000Y-83580000D02*
X164540000Y-91730000D01*
%TO.N,Net-(Q1-D)*%
X145200000Y-86000000D02*
X143500000Y-84300000D01*
X162000000Y-91730000D02*
X156270000Y-86000000D01*
X156270000Y-86000000D02*
X145200000Y-86000000D01*
%TO.N,Net-(U1-~{RESET}{slash}PC6)*%
X107050000Y-84300000D02*
X108750000Y-86000000D01*
X107050000Y-81050000D02*
X106750000Y-80750000D01*
X111260000Y-86000000D02*
X116140000Y-81120000D01*
X107250000Y-80750000D02*
X107250000Y-84100000D01*
X107250000Y-84100000D02*
X107050000Y-84300000D01*
X108750000Y-86000000D02*
X111260000Y-86000000D01*
%TO.N,Net-(U1-PD2)*%
X122585000Y-79945000D02*
X123760000Y-81120000D01*
X111100000Y-84300000D02*
X111100000Y-83900000D01*
X111100000Y-83900000D02*
X115055000Y-79945000D01*
X115055000Y-79945000D02*
X122585000Y-79945000D01*
%TO.N,Net-(U1-PD3)*%
X124795000Y-82625000D02*
X119213299Y-82625000D01*
X119213299Y-82625000D02*
X115150000Y-86688299D01*
X109595000Y-106150000D02*
X109595000Y-108265000D01*
X115150000Y-100595000D02*
X109595000Y-106150000D01*
X126300000Y-81120000D02*
X124795000Y-82625000D01*
X115150000Y-91920000D02*
X115150000Y-100595000D01*
X115150000Y-86688299D02*
X115150000Y-91920000D01*
%TO.N,Net-(U1-PD4)*%
X120375000Y-83125000D02*
X126835000Y-83125000D01*
X119200000Y-84300000D02*
X120375000Y-83125000D01*
X126835000Y-83125000D02*
X128840000Y-81120000D01*
%TO.N,Net-(U1-PD5)*%
X135095000Y-82236193D02*
X125411193Y-91920000D01*
X135783299Y-79945000D02*
X135095000Y-80633299D01*
X128920000Y-104490000D02*
X128920000Y-97590000D01*
X125411193Y-91920000D02*
X123250000Y-91920000D01*
X141540000Y-81120000D02*
X140365000Y-79945000D01*
X125145000Y-108265000D02*
X128920000Y-104490000D01*
X135095000Y-80633299D02*
X135095000Y-82236193D01*
X140365000Y-79945000D02*
X135783299Y-79945000D01*
X128920000Y-97590000D02*
X123250000Y-91920000D01*
%TO.N,Net-(U1-PD6)*%
X129305000Y-82295000D02*
X127300000Y-84300000D01*
X142405000Y-79445000D02*
X133933299Y-79445000D01*
X132745000Y-81416701D02*
X131866701Y-82295000D01*
X133933299Y-79445000D02*
X132745000Y-80633299D01*
X131866701Y-82295000D02*
X129305000Y-82295000D01*
X144080000Y-81120000D02*
X142405000Y-79445000D01*
X132745000Y-80633299D02*
X132745000Y-81416701D01*
%TO.N,Net-(U1-PD7)*%
X146620000Y-81120000D02*
X145240000Y-82500000D01*
X144470000Y-104490000D02*
X140695000Y-108265000D01*
X135538299Y-82500000D02*
X131350000Y-86688299D01*
X131350000Y-91920000D02*
X136715000Y-97285000D01*
X144470000Y-98031877D02*
X144470000Y-104490000D01*
X131350000Y-86688299D02*
X131350000Y-91920000D01*
X143723123Y-97285000D02*
X144470000Y-98031877D01*
X136715000Y-97285000D02*
X143723123Y-97285000D01*
X145240000Y-82500000D02*
X135538299Y-82500000D01*
%TO.N,Net-(U1-PB0)*%
X136700000Y-83000000D02*
X147280000Y-83000000D01*
X147280000Y-83000000D02*
X149160000Y-81120000D01*
X135400000Y-84300000D02*
X136700000Y-83000000D01*
%TO.N,Net-(U1-PB1)*%
X154500000Y-90500000D02*
X159000000Y-95000000D01*
X139450000Y-91920000D02*
X140870000Y-90500000D01*
X151000000Y-73500000D02*
X149160000Y-73500000D01*
X143815000Y-96285000D02*
X158273123Y-96285000D01*
X158273123Y-96285000D02*
X160020000Y-98031877D01*
X168000000Y-92500000D02*
X168000000Y-90500000D01*
X159000000Y-95000000D02*
X165500000Y-95000000D01*
X160020000Y-104490000D02*
X156245000Y-108265000D01*
X160020000Y-98031877D02*
X160020000Y-104490000D01*
X139450000Y-91920000D02*
X143815000Y-96285000D01*
X165500000Y-95000000D02*
X168000000Y-92500000D01*
X168000000Y-90500000D02*
X151000000Y-73500000D01*
X140870000Y-90500000D02*
X154500000Y-90500000D01*
%TO.N,Net-(U1-PB5)*%
X169132500Y-90638466D02*
X169132500Y-110627500D01*
X140375000Y-72125000D02*
X150619034Y-72125000D01*
X150619034Y-72125000D02*
X169132500Y-90638466D01*
X139000000Y-73500000D02*
X140375000Y-72125000D01*
X169132500Y-110627500D02*
X169505000Y-111000000D01*
%TD*%
%TA.AperFunction,Conductor*%
%TO.N,Net-(Q1-G)*%
G36*
X139882585Y-71520185D02*
G01*
X139928340Y-71572989D01*
X139938284Y-71642147D01*
X139909259Y-71705703D01*
X139903227Y-71712181D01*
X139417627Y-72197781D01*
X139356304Y-72231266D01*
X139309584Y-72230776D01*
X139309346Y-72232285D01*
X139205898Y-72215900D01*
X139102352Y-72199500D01*
X138897648Y-72199500D01*
X138873329Y-72203351D01*
X138695465Y-72231522D01*
X138500776Y-72294781D01*
X138318386Y-72387715D01*
X138152786Y-72508028D01*
X138008028Y-72652786D01*
X137887713Y-72818388D01*
X137840203Y-72911630D01*
X137792228Y-72962426D01*
X137724407Y-72979220D01*
X137658272Y-72956682D01*
X137619234Y-72911628D01*
X137571861Y-72818652D01*
X137539474Y-72774077D01*
X137539474Y-72774076D01*
X136860000Y-73453551D01*
X136860000Y-73447339D01*
X136832741Y-73345606D01*
X136780080Y-73254394D01*
X136705606Y-73179920D01*
X136614394Y-73127259D01*
X136512661Y-73100000D01*
X136506446Y-73100000D01*
X137185922Y-72420524D01*
X137185921Y-72420523D01*
X137141359Y-72388147D01*
X137141350Y-72388141D01*
X136959031Y-72295244D01*
X136764417Y-72232009D01*
X136562317Y-72200000D01*
X136357683Y-72200000D01*
X136155582Y-72232009D01*
X135960968Y-72295244D01*
X135778644Y-72388143D01*
X135734077Y-72420523D01*
X135734077Y-72420524D01*
X136413554Y-73100000D01*
X136407339Y-73100000D01*
X136305606Y-73127259D01*
X136214394Y-73179920D01*
X136139920Y-73254394D01*
X136087259Y-73345606D01*
X136060000Y-73447339D01*
X136060000Y-73453553D01*
X135380524Y-72774077D01*
X135380523Y-72774077D01*
X135348143Y-72818644D01*
X135300765Y-72911630D01*
X135252790Y-72962426D01*
X135184969Y-72979221D01*
X135118834Y-72956683D01*
X135079795Y-72911630D01*
X135073860Y-72899981D01*
X135032287Y-72818390D01*
X135032285Y-72818387D01*
X135032284Y-72818385D01*
X134911971Y-72652786D01*
X134767213Y-72508028D01*
X134601613Y-72387715D01*
X134601612Y-72387714D01*
X134601610Y-72387713D01*
X134541898Y-72357288D01*
X134419223Y-72294781D01*
X134224534Y-72231522D01*
X134049995Y-72203878D01*
X134022352Y-72199500D01*
X133817648Y-72199500D01*
X133793329Y-72203351D01*
X133615465Y-72231522D01*
X133420776Y-72294781D01*
X133238386Y-72387715D01*
X133072786Y-72508028D01*
X132928028Y-72652786D01*
X132807715Y-72818386D01*
X132760485Y-72911080D01*
X132712510Y-72961876D01*
X132644689Y-72978671D01*
X132578554Y-72956134D01*
X132539515Y-72911080D01*
X132533860Y-72899981D01*
X132492287Y-72818390D01*
X132480515Y-72802187D01*
X132371971Y-72652786D01*
X132227213Y-72508028D01*
X132061613Y-72387715D01*
X132061612Y-72387714D01*
X132061610Y-72387713D01*
X132001898Y-72357288D01*
X131879223Y-72294781D01*
X131684534Y-72231522D01*
X131509995Y-72203878D01*
X131482352Y-72199500D01*
X131277648Y-72199500D01*
X131253329Y-72203351D01*
X131075465Y-72231522D01*
X130880776Y-72294781D01*
X130698386Y-72387715D01*
X130532786Y-72508028D01*
X130388028Y-72652786D01*
X130267715Y-72818386D01*
X130220485Y-72911080D01*
X130172510Y-72961876D01*
X130104689Y-72978671D01*
X130038554Y-72956134D01*
X129999515Y-72911080D01*
X129993860Y-72899981D01*
X129952287Y-72818390D01*
X129940515Y-72802187D01*
X129831971Y-72652786D01*
X129687213Y-72508028D01*
X129521613Y-72387715D01*
X129521612Y-72387714D01*
X129521610Y-72387713D01*
X129461898Y-72357288D01*
X129339223Y-72294781D01*
X129144534Y-72231522D01*
X128969995Y-72203878D01*
X128942352Y-72199500D01*
X128737648Y-72199500D01*
X128713329Y-72203351D01*
X128535465Y-72231522D01*
X128340776Y-72294781D01*
X128158386Y-72387715D01*
X127992786Y-72508028D01*
X127848028Y-72652786D01*
X127727715Y-72818386D01*
X127680485Y-72911080D01*
X127632510Y-72961876D01*
X127564689Y-72978671D01*
X127498554Y-72956134D01*
X127459515Y-72911080D01*
X127453860Y-72899981D01*
X127412287Y-72818390D01*
X127400515Y-72802187D01*
X127291971Y-72652786D01*
X127147213Y-72508028D01*
X126981613Y-72387715D01*
X126981612Y-72387714D01*
X126981610Y-72387713D01*
X126921898Y-72357288D01*
X126799223Y-72294781D01*
X126604534Y-72231522D01*
X126429995Y-72203878D01*
X126402352Y-72199500D01*
X126197648Y-72199500D01*
X126173329Y-72203351D01*
X125995465Y-72231522D01*
X125800776Y-72294781D01*
X125618386Y-72387715D01*
X125452786Y-72508028D01*
X125308028Y-72652786D01*
X125187715Y-72818386D01*
X125140485Y-72911080D01*
X125092510Y-72961876D01*
X125024689Y-72978671D01*
X124958554Y-72956134D01*
X124919515Y-72911080D01*
X124913860Y-72899981D01*
X124872287Y-72818390D01*
X124860515Y-72802187D01*
X124751971Y-72652786D01*
X124607213Y-72508028D01*
X124441613Y-72387715D01*
X124441612Y-72387714D01*
X124441610Y-72387713D01*
X124381898Y-72357288D01*
X124259223Y-72294781D01*
X124064534Y-72231522D01*
X123889995Y-72203878D01*
X123862352Y-72199500D01*
X123657648Y-72199500D01*
X123633329Y-72203351D01*
X123455465Y-72231522D01*
X123260776Y-72294781D01*
X123078386Y-72387715D01*
X122912786Y-72508028D01*
X122768028Y-72652786D01*
X122647715Y-72818386D01*
X122600485Y-72911080D01*
X122552510Y-72961876D01*
X122484689Y-72978671D01*
X122418554Y-72956134D01*
X122379515Y-72911080D01*
X122373860Y-72899981D01*
X122332287Y-72818390D01*
X122320515Y-72802187D01*
X122211971Y-72652786D01*
X122067213Y-72508028D01*
X121901613Y-72387715D01*
X121901612Y-72387714D01*
X121901610Y-72387713D01*
X121841898Y-72357288D01*
X121719223Y-72294781D01*
X121524534Y-72231522D01*
X121349995Y-72203878D01*
X121322352Y-72199500D01*
X121117648Y-72199500D01*
X121093329Y-72203351D01*
X120915465Y-72231522D01*
X120720776Y-72294781D01*
X120538386Y-72387715D01*
X120372786Y-72508028D01*
X120228028Y-72652786D01*
X120107715Y-72818386D01*
X120060485Y-72911080D01*
X120012510Y-72961876D01*
X119944689Y-72978671D01*
X119878554Y-72956134D01*
X119839515Y-72911080D01*
X119833860Y-72899981D01*
X119792287Y-72818390D01*
X119780515Y-72802187D01*
X119671971Y-72652786D01*
X119527213Y-72508028D01*
X119361613Y-72387715D01*
X119361612Y-72387714D01*
X119361610Y-72387713D01*
X119301898Y-72357288D01*
X119179223Y-72294781D01*
X118984534Y-72231522D01*
X118809995Y-72203878D01*
X118782352Y-72199500D01*
X118577648Y-72199500D01*
X118553329Y-72203351D01*
X118375465Y-72231522D01*
X118180776Y-72294781D01*
X117998386Y-72387715D01*
X117832786Y-72508028D01*
X117688028Y-72652786D01*
X117567715Y-72818386D01*
X117520485Y-72911080D01*
X117472510Y-72961876D01*
X117404689Y-72978671D01*
X117338554Y-72956134D01*
X117299515Y-72911080D01*
X117293860Y-72899981D01*
X117252287Y-72818390D01*
X117240515Y-72802187D01*
X117131971Y-72652786D01*
X116987213Y-72508028D01*
X116821613Y-72387715D01*
X116821612Y-72387714D01*
X116821610Y-72387713D01*
X116761898Y-72357288D01*
X116639223Y-72294781D01*
X116444534Y-72231522D01*
X116269995Y-72203878D01*
X116242352Y-72199500D01*
X116037648Y-72199500D01*
X116013329Y-72203351D01*
X115835465Y-72231522D01*
X115640776Y-72294781D01*
X115458386Y-72387715D01*
X115292786Y-72508028D01*
X115148028Y-72652786D01*
X115027715Y-72818386D01*
X114934781Y-73000776D01*
X114871522Y-73195465D01*
X114839500Y-73397648D01*
X114839500Y-73602351D01*
X114871522Y-73804534D01*
X114934781Y-73999223D01*
X114986135Y-74100009D01*
X115027585Y-74181359D01*
X115027715Y-74181613D01*
X115148028Y-74347213D01*
X115292786Y-74491971D01*
X115413226Y-74579474D01*
X115458390Y-74612287D01*
X115574607Y-74671503D01*
X115640776Y-74705218D01*
X115640778Y-74705218D01*
X115640781Y-74705220D01*
X115729434Y-74734025D01*
X115835465Y-74768477D01*
X115936557Y-74784488D01*
X116037648Y-74800500D01*
X116037649Y-74800500D01*
X116242351Y-74800500D01*
X116242352Y-74800500D01*
X116444534Y-74768477D01*
X116639219Y-74705220D01*
X116821610Y-74612287D01*
X116914590Y-74544732D01*
X116987213Y-74491971D01*
X116987215Y-74491968D01*
X116987219Y-74491966D01*
X117131966Y-74347219D01*
X117131968Y-74347215D01*
X117131971Y-74347213D01*
X117252284Y-74181614D01*
X117252286Y-74181611D01*
X117252287Y-74181610D01*
X117299516Y-74088917D01*
X117347489Y-74038123D01*
X117415310Y-74021328D01*
X117481445Y-74043865D01*
X117520483Y-74088917D01*
X117549154Y-74145185D01*
X117567715Y-74181614D01*
X117688028Y-74347213D01*
X117832786Y-74491971D01*
X117953226Y-74579474D01*
X117998390Y-74612287D01*
X118114607Y-74671503D01*
X118180776Y-74705218D01*
X118180778Y-74705218D01*
X118180781Y-74705220D01*
X118269434Y-74734025D01*
X118375465Y-74768477D01*
X118476557Y-74784488D01*
X118577648Y-74800500D01*
X118577649Y-74800500D01*
X118782351Y-74800500D01*
X118782352Y-74800500D01*
X118984534Y-74768477D01*
X119179219Y-74705220D01*
X119361610Y-74612287D01*
X119454590Y-74544732D01*
X119527213Y-74491971D01*
X119527215Y-74491968D01*
X119527219Y-74491966D01*
X119671966Y-74347219D01*
X119671968Y-74347215D01*
X119671971Y-74347213D01*
X119792284Y-74181614D01*
X119792286Y-74181611D01*
X119792287Y-74181610D01*
X119839516Y-74088917D01*
X119887489Y-74038123D01*
X119955310Y-74021328D01*
X120021445Y-74043865D01*
X120060483Y-74088917D01*
X120089154Y-74145185D01*
X120107715Y-74181614D01*
X120228028Y-74347213D01*
X120372786Y-74491971D01*
X120493226Y-74579474D01*
X120538390Y-74612287D01*
X120654607Y-74671503D01*
X120720776Y-74705218D01*
X120720778Y-74705218D01*
X120720781Y-74705220D01*
X120809434Y-74734025D01*
X120915465Y-74768477D01*
X121016557Y-74784488D01*
X121117648Y-74800500D01*
X121117649Y-74800500D01*
X121322351Y-74800500D01*
X121322352Y-74800500D01*
X121524534Y-74768477D01*
X121719219Y-74705220D01*
X121901610Y-74612287D01*
X121994590Y-74544732D01*
X122067213Y-74491971D01*
X122067215Y-74491968D01*
X122067219Y-74491966D01*
X122211966Y-74347219D01*
X122211968Y-74347215D01*
X122211971Y-74347213D01*
X122332284Y-74181614D01*
X122332286Y-74181611D01*
X122332287Y-74181610D01*
X122379516Y-74088917D01*
X122427489Y-74038123D01*
X122495310Y-74021328D01*
X122561445Y-74043865D01*
X122600483Y-74088917D01*
X122629154Y-74145185D01*
X122647715Y-74181614D01*
X122768028Y-74347213D01*
X122912786Y-74491971D01*
X123033226Y-74579474D01*
X123078390Y-74612287D01*
X123194607Y-74671503D01*
X123260776Y-74705218D01*
X123260778Y-74705218D01*
X123260781Y-74705220D01*
X123349434Y-74734025D01*
X123455465Y-74768477D01*
X123556557Y-74784488D01*
X123657648Y-74800500D01*
X123657649Y-74800500D01*
X123862351Y-74800500D01*
X123862352Y-74800500D01*
X124064534Y-74768477D01*
X124259219Y-74705220D01*
X124441610Y-74612287D01*
X124534590Y-74544732D01*
X124607213Y-74491971D01*
X124607215Y-74491968D01*
X124607219Y-74491966D01*
X124751966Y-74347219D01*
X124751968Y-74347215D01*
X124751971Y-74347213D01*
X124872284Y-74181614D01*
X124872286Y-74181611D01*
X124872287Y-74181610D01*
X124919516Y-74088917D01*
X124967489Y-74038123D01*
X125035310Y-74021328D01*
X125101445Y-74043865D01*
X125140483Y-74088917D01*
X125169154Y-74145185D01*
X125187715Y-74181614D01*
X125308028Y-74347213D01*
X125452786Y-74491971D01*
X125573226Y-74579474D01*
X125618390Y-74612287D01*
X125734607Y-74671503D01*
X125800776Y-74705218D01*
X125800778Y-74705218D01*
X125800781Y-74705220D01*
X125889434Y-74734025D01*
X125995465Y-74768477D01*
X126096557Y-74784488D01*
X126197648Y-74800500D01*
X126197649Y-74800500D01*
X126402351Y-74800500D01*
X126402352Y-74800500D01*
X126604534Y-74768477D01*
X126799219Y-74705220D01*
X126981610Y-74612287D01*
X127074590Y-74544732D01*
X127147213Y-74491971D01*
X127147215Y-74491968D01*
X127147219Y-74491966D01*
X127291966Y-74347219D01*
X127291968Y-74347215D01*
X127291971Y-74347213D01*
X127412284Y-74181614D01*
X127412286Y-74181611D01*
X127412287Y-74181610D01*
X127459516Y-74088917D01*
X127507489Y-74038123D01*
X127575310Y-74021328D01*
X127641445Y-74043865D01*
X127680483Y-74088917D01*
X127709154Y-74145185D01*
X127727715Y-74181614D01*
X127848028Y-74347213D01*
X127992786Y-74491971D01*
X128113226Y-74579474D01*
X128158390Y-74612287D01*
X128274607Y-74671503D01*
X128340776Y-74705218D01*
X128340778Y-74705218D01*
X128340781Y-74705220D01*
X128429434Y-74734025D01*
X128535465Y-74768477D01*
X128636557Y-74784488D01*
X128737648Y-74800500D01*
X128737649Y-74800500D01*
X128942351Y-74800500D01*
X128942352Y-74800500D01*
X129144534Y-74768477D01*
X129339219Y-74705220D01*
X129521610Y-74612287D01*
X129614590Y-74544732D01*
X129687213Y-74491971D01*
X129687215Y-74491968D01*
X129687219Y-74491966D01*
X129831966Y-74347219D01*
X129831968Y-74347215D01*
X129831971Y-74347213D01*
X129952284Y-74181614D01*
X129952286Y-74181611D01*
X129952287Y-74181610D01*
X129999516Y-74088917D01*
X130047489Y-74038123D01*
X130115310Y-74021328D01*
X130181445Y-74043865D01*
X130220483Y-74088917D01*
X130249154Y-74145185D01*
X130267715Y-74181614D01*
X130388028Y-74347213D01*
X130532786Y-74491971D01*
X130653226Y-74579474D01*
X130698390Y-74612287D01*
X130814607Y-74671503D01*
X130880776Y-74705218D01*
X130880778Y-74705218D01*
X130880781Y-74705220D01*
X130969434Y-74734025D01*
X131075465Y-74768477D01*
X131176557Y-74784488D01*
X131277648Y-74800500D01*
X131277649Y-74800500D01*
X131482351Y-74800500D01*
X131482352Y-74800500D01*
X131684534Y-74768477D01*
X131879219Y-74705220D01*
X132061610Y-74612287D01*
X132154590Y-74544732D01*
X132227213Y-74491971D01*
X132227215Y-74491968D01*
X132227219Y-74491966D01*
X132371966Y-74347219D01*
X132371968Y-74347215D01*
X132371971Y-74347213D01*
X132492284Y-74181614D01*
X132492286Y-74181611D01*
X132492287Y-74181610D01*
X132539516Y-74088917D01*
X132587489Y-74038123D01*
X132655310Y-74021328D01*
X132721445Y-74043865D01*
X132760483Y-74088917D01*
X132789154Y-74145185D01*
X132807715Y-74181614D01*
X132928028Y-74347213D01*
X133072786Y-74491971D01*
X133193226Y-74579474D01*
X133238390Y-74612287D01*
X133354607Y-74671503D01*
X133420776Y-74705218D01*
X133420778Y-74705218D01*
X133420781Y-74705220D01*
X133509434Y-74734025D01*
X133615465Y-74768477D01*
X133716557Y-74784488D01*
X133817648Y-74800500D01*
X133817649Y-74800500D01*
X134022351Y-74800500D01*
X134022352Y-74800500D01*
X134224534Y-74768477D01*
X134419219Y-74705220D01*
X134601610Y-74612287D01*
X134694590Y-74544732D01*
X134767213Y-74491971D01*
X134767215Y-74491968D01*
X134767219Y-74491966D01*
X134911966Y-74347219D01*
X134911968Y-74347215D01*
X134911971Y-74347213D01*
X135020387Y-74197989D01*
X135032287Y-74181610D01*
X135079795Y-74088369D01*
X135127769Y-74037573D01*
X135195590Y-74020778D01*
X135261725Y-74043315D01*
X135300765Y-74088369D01*
X135348141Y-74181350D01*
X135348147Y-74181359D01*
X135380523Y-74225921D01*
X135380524Y-74225922D01*
X136060000Y-73546446D01*
X136060000Y-73552661D01*
X136087259Y-73654394D01*
X136139920Y-73745606D01*
X136214394Y-73820080D01*
X136305606Y-73872741D01*
X136407339Y-73900000D01*
X136413553Y-73900000D01*
X135734076Y-74579474D01*
X135778650Y-74611859D01*
X135960968Y-74704755D01*
X136155582Y-74767990D01*
X136357683Y-74800000D01*
X136562317Y-74800000D01*
X136764417Y-74767990D01*
X136959031Y-74704755D01*
X137141349Y-74611859D01*
X137185921Y-74579474D01*
X136506447Y-73900000D01*
X136512661Y-73900000D01*
X136614394Y-73872741D01*
X136705606Y-73820080D01*
X136780080Y-73745606D01*
X136832741Y-73654394D01*
X136860000Y-73552661D01*
X136860000Y-73546448D01*
X137539474Y-74225922D01*
X137539474Y-74225921D01*
X137571861Y-74181347D01*
X137571861Y-74181346D01*
X137619234Y-74088371D01*
X137667208Y-74037575D01*
X137735028Y-74020779D01*
X137801164Y-74043316D01*
X137840203Y-74088369D01*
X137887713Y-74181611D01*
X138008028Y-74347213D01*
X138152786Y-74491971D01*
X138273226Y-74579474D01*
X138318390Y-74612287D01*
X138434607Y-74671503D01*
X138500776Y-74705218D01*
X138500778Y-74705218D01*
X138500781Y-74705220D01*
X138589434Y-74734025D01*
X138695465Y-74768477D01*
X138796557Y-74784488D01*
X138897648Y-74800500D01*
X138897649Y-74800500D01*
X139102351Y-74800500D01*
X139102352Y-74800500D01*
X139304534Y-74768477D01*
X139499219Y-74705220D01*
X139681610Y-74612287D01*
X139774590Y-74544732D01*
X139847213Y-74491971D01*
X139847215Y-74491968D01*
X139847219Y-74491966D01*
X139991966Y-74347219D01*
X139991968Y-74347215D01*
X139991971Y-74347213D01*
X140112284Y-74181614D01*
X140112286Y-74181611D01*
X140112287Y-74181610D01*
X140159516Y-74088917D01*
X140207489Y-74038123D01*
X140275310Y-74021328D01*
X140341445Y-74043865D01*
X140380483Y-74088917D01*
X140409154Y-74145185D01*
X140427715Y-74181614D01*
X140548028Y-74347213D01*
X140692786Y-74491971D01*
X140813226Y-74579474D01*
X140858390Y-74612287D01*
X140974607Y-74671503D01*
X141040776Y-74705218D01*
X141040778Y-74705218D01*
X141040781Y-74705220D01*
X141129434Y-74734025D01*
X141235465Y-74768477D01*
X141336557Y-74784488D01*
X141437648Y-74800500D01*
X141437649Y-74800500D01*
X141642351Y-74800500D01*
X141642352Y-74800500D01*
X141844534Y-74768477D01*
X142039219Y-74705220D01*
X142221610Y-74612287D01*
X142314590Y-74544732D01*
X142387213Y-74491971D01*
X142387215Y-74491968D01*
X142387219Y-74491966D01*
X142531966Y-74347219D01*
X142531968Y-74347215D01*
X142531971Y-74347213D01*
X142652284Y-74181614D01*
X142652286Y-74181611D01*
X142652287Y-74181610D01*
X142699516Y-74088917D01*
X142747489Y-74038123D01*
X142815310Y-74021328D01*
X142881445Y-74043865D01*
X142920483Y-74088917D01*
X142949154Y-74145185D01*
X142967715Y-74181614D01*
X143088028Y-74347213D01*
X143232786Y-74491971D01*
X143353226Y-74579474D01*
X143398390Y-74612287D01*
X143514607Y-74671503D01*
X143580776Y-74705218D01*
X143580778Y-74705218D01*
X143580781Y-74705220D01*
X143669434Y-74734025D01*
X143775465Y-74768477D01*
X143876557Y-74784488D01*
X143977648Y-74800500D01*
X143977649Y-74800500D01*
X144182351Y-74800500D01*
X144182352Y-74800500D01*
X144384534Y-74768477D01*
X144579219Y-74705220D01*
X144761610Y-74612287D01*
X144854590Y-74544732D01*
X144927213Y-74491971D01*
X144927215Y-74491968D01*
X144927219Y-74491966D01*
X145071966Y-74347219D01*
X145071968Y-74347215D01*
X145071971Y-74347213D01*
X145192284Y-74181614D01*
X145192286Y-74181611D01*
X145192287Y-74181610D01*
X145239516Y-74088917D01*
X145287489Y-74038123D01*
X145355310Y-74021328D01*
X145421445Y-74043865D01*
X145460483Y-74088917D01*
X145489154Y-74145185D01*
X145507715Y-74181614D01*
X145628028Y-74347213D01*
X145772786Y-74491971D01*
X145893226Y-74579474D01*
X145938390Y-74612287D01*
X146054607Y-74671503D01*
X146120776Y-74705218D01*
X146120778Y-74705218D01*
X146120781Y-74705220D01*
X146209434Y-74734025D01*
X146315465Y-74768477D01*
X146416557Y-74784488D01*
X146517648Y-74800500D01*
X146517649Y-74800500D01*
X146722351Y-74800500D01*
X146722352Y-74800500D01*
X146924534Y-74768477D01*
X147119219Y-74705220D01*
X147301610Y-74612287D01*
X147394590Y-74544732D01*
X147467213Y-74491971D01*
X147467215Y-74491968D01*
X147467219Y-74491966D01*
X147611966Y-74347219D01*
X147611968Y-74347215D01*
X147611971Y-74347213D01*
X147732284Y-74181614D01*
X147732286Y-74181611D01*
X147732287Y-74181610D01*
X147779516Y-74088917D01*
X147827489Y-74038123D01*
X147895310Y-74021328D01*
X147961445Y-74043865D01*
X148000483Y-74088917D01*
X148029154Y-74145185D01*
X148047715Y-74181614D01*
X148168028Y-74347213D01*
X148312786Y-74491971D01*
X148433226Y-74579474D01*
X148478390Y-74612287D01*
X148594607Y-74671503D01*
X148660776Y-74705218D01*
X148660778Y-74705218D01*
X148660781Y-74705220D01*
X148749434Y-74734025D01*
X148855465Y-74768477D01*
X148956557Y-74784488D01*
X149057648Y-74800500D01*
X149057649Y-74800500D01*
X149262351Y-74800500D01*
X149262352Y-74800500D01*
X149464534Y-74768477D01*
X149659219Y-74705220D01*
X149841610Y-74612287D01*
X149934590Y-74544732D01*
X150007213Y-74491971D01*
X150007215Y-74491968D01*
X150007219Y-74491966D01*
X150151966Y-74347219D01*
X150151968Y-74347215D01*
X150151971Y-74347213D01*
X150275151Y-74177669D01*
X150276823Y-74178884D01*
X150322208Y-74137831D01*
X150376115Y-74125500D01*
X150689548Y-74125500D01*
X150756587Y-74145185D01*
X150777229Y-74161819D01*
X167338181Y-90722771D01*
X167371666Y-90784094D01*
X167374500Y-90810452D01*
X167374500Y-92189548D01*
X167354815Y-92256587D01*
X167338181Y-92277229D01*
X165277229Y-94338181D01*
X165215906Y-94371666D01*
X165189548Y-94374500D01*
X159310452Y-94374500D01*
X159243413Y-94354815D01*
X159222771Y-94338181D01*
X158321564Y-93436974D01*
X158288079Y-93375651D01*
X158293063Y-93305959D01*
X158334935Y-93250026D01*
X158400399Y-93225609D01*
X158422502Y-93226004D01*
X158459658Y-93229999D01*
X158459672Y-93230000D01*
X159210000Y-93230000D01*
X159210000Y-92220747D01*
X159247708Y-92242518D01*
X159387591Y-92280000D01*
X159532409Y-92280000D01*
X159672292Y-92242518D01*
X159710000Y-92220747D01*
X159710000Y-93230000D01*
X160460328Y-93230000D01*
X160460344Y-93229999D01*
X160519872Y-93223598D01*
X160519879Y-93223596D01*
X160654586Y-93173354D01*
X160654593Y-93173350D01*
X160769687Y-93087190D01*
X160769690Y-93087187D01*
X160855850Y-92972093D01*
X160855854Y-92972086D01*
X160866272Y-92944155D01*
X160908143Y-92888221D01*
X160973607Y-92863804D01*
X161041880Y-92878655D01*
X161055331Y-92887164D01*
X161238462Y-93020217D01*
X161442242Y-93124048D01*
X161442244Y-93124049D01*
X161659751Y-93194721D01*
X161659752Y-93194721D01*
X161659755Y-93194722D01*
X161885646Y-93230500D01*
X161885647Y-93230500D01*
X162114353Y-93230500D01*
X162114354Y-93230500D01*
X162340245Y-93194722D01*
X162340248Y-93194721D01*
X162340249Y-93194721D01*
X162557755Y-93124049D01*
X162557755Y-93124048D01*
X162557758Y-93124048D01*
X162761538Y-93020217D01*
X162946566Y-92885786D01*
X163108286Y-92724066D01*
X163169683Y-92639559D01*
X163225012Y-92596896D01*
X163294625Y-92590917D01*
X163356420Y-92623523D01*
X163370314Y-92639556D01*
X163431714Y-92724066D01*
X163593434Y-92885786D01*
X163778462Y-93020217D01*
X163982242Y-93124048D01*
X163982244Y-93124049D01*
X164199751Y-93194721D01*
X164199752Y-93194721D01*
X164199755Y-93194722D01*
X164425646Y-93230500D01*
X164425647Y-93230500D01*
X164654353Y-93230500D01*
X164654354Y-93230500D01*
X164880245Y-93194722D01*
X164880248Y-93194721D01*
X164880249Y-93194721D01*
X165097755Y-93124049D01*
X165097755Y-93124048D01*
X165097758Y-93124048D01*
X165301538Y-93020217D01*
X165486566Y-92885786D01*
X165648286Y-92724066D01*
X165782717Y-92539038D01*
X165886548Y-92335258D01*
X165916681Y-92242518D01*
X165957221Y-92117749D01*
X165957221Y-92117748D01*
X165957222Y-92117745D01*
X165993000Y-91891854D01*
X165993000Y-91568146D01*
X165957222Y-91342255D01*
X165957221Y-91342251D01*
X165957221Y-91342250D01*
X165886549Y-91124744D01*
X165860075Y-91072786D01*
X165782717Y-90920962D01*
X165648286Y-90735934D01*
X165486566Y-90574214D01*
X165301538Y-90439783D01*
X165170100Y-90372812D01*
X165097755Y-90335950D01*
X164880248Y-90265278D01*
X164662271Y-90230754D01*
X164654354Y-90229500D01*
X164425646Y-90229500D01*
X164417729Y-90230754D01*
X164199751Y-90265278D01*
X164090964Y-90300625D01*
X164021123Y-90302620D01*
X163964966Y-90270375D01*
X156885822Y-83191232D01*
X156875859Y-83181269D01*
X156875858Y-83181267D01*
X156788733Y-83094142D01*
X156737509Y-83059915D01*
X156686286Y-83025688D01*
X156686283Y-83025686D01*
X156686282Y-83025686D01*
X156686281Y-83025685D01*
X156598045Y-82989137D01*
X156598037Y-82989135D01*
X156590126Y-82985858D01*
X156572452Y-82978537D01*
X156512029Y-82966518D01*
X156508474Y-82965811D01*
X156508463Y-82965808D01*
X156451610Y-82954500D01*
X156451607Y-82954500D01*
X156451606Y-82954500D01*
X155724500Y-82954500D01*
X155657461Y-82934815D01*
X155611706Y-82882011D01*
X155600500Y-82830500D01*
X155600500Y-82679995D01*
X155600499Y-82679982D01*
X155589999Y-82577203D01*
X155589999Y-82577202D01*
X155534814Y-82410665D01*
X155442712Y-82261344D01*
X155318656Y-82137288D01*
X155169335Y-82045186D01*
X155002798Y-81990001D01*
X155002796Y-81990000D01*
X154900017Y-81979500D01*
X154900010Y-81979500D01*
X153099990Y-81979500D01*
X153099982Y-81979500D01*
X152997203Y-81990000D01*
X152997202Y-81990001D01*
X152914669Y-82017349D01*
X152830667Y-82045185D01*
X152830662Y-82045187D01*
X152681342Y-82137289D01*
X152557289Y-82261342D01*
X152465187Y-82410662D01*
X152465185Y-82410667D01*
X152461927Y-82420499D01*
X152410001Y-82577202D01*
X152410001Y-82577203D01*
X152410000Y-82577203D01*
X152399500Y-82679982D01*
X152399500Y-84480017D01*
X152410000Y-84582796D01*
X152417204Y-84604536D01*
X152465186Y-84749335D01*
X152557288Y-84898656D01*
X152681344Y-85022712D01*
X152830665Y-85114814D01*
X152884926Y-85132794D01*
X152942371Y-85172567D01*
X152969194Y-85237083D01*
X152956879Y-85305858D01*
X152909336Y-85357058D01*
X152845922Y-85374500D01*
X145510452Y-85374500D01*
X145443413Y-85354815D01*
X145422771Y-85338181D01*
X144802218Y-84717628D01*
X144768733Y-84656305D01*
X144769241Y-84609588D01*
X144767715Y-84609347D01*
X144800500Y-84402351D01*
X144800500Y-84197648D01*
X144768477Y-83995465D01*
X144753801Y-83950300D01*
X144705220Y-83800781D01*
X144705217Y-83800775D01*
X144705216Y-83800772D01*
X144703630Y-83796941D01*
X144696168Y-83727471D01*
X144727450Y-83664995D01*
X144787542Y-83629349D01*
X144818196Y-83625500D01*
X147341607Y-83625500D01*
X147402029Y-83613481D01*
X147462452Y-83601463D01*
X147520830Y-83577282D01*
X147526407Y-83574971D01*
X147526410Y-83574971D01*
X147576281Y-83554314D01*
X147576280Y-83554314D01*
X147576286Y-83554312D01*
X147627509Y-83520084D01*
X147678733Y-83485858D01*
X147765858Y-83398733D01*
X147765858Y-83398731D01*
X147776066Y-83388524D01*
X147776068Y-83388521D01*
X148742373Y-82422215D01*
X148803694Y-82388732D01*
X148850410Y-82389249D01*
X148850654Y-82387715D01*
X148949628Y-82403391D01*
X149057648Y-82420500D01*
X149057649Y-82420500D01*
X149262351Y-82420500D01*
X149262352Y-82420500D01*
X149464534Y-82388477D01*
X149659219Y-82325220D01*
X149841610Y-82232287D01*
X149934590Y-82164732D01*
X150007213Y-82111971D01*
X150007215Y-82111968D01*
X150007219Y-82111966D01*
X150151966Y-81967219D01*
X150151968Y-81967215D01*
X150151971Y-81967213D01*
X150220021Y-81873548D01*
X150272287Y-81801610D01*
X150365220Y-81619219D01*
X150428477Y-81424534D01*
X150460500Y-81222352D01*
X150460500Y-81017648D01*
X150444537Y-80916865D01*
X150428477Y-80815465D01*
X150365218Y-80620776D01*
X150319515Y-80531080D01*
X150272287Y-80438390D01*
X150246630Y-80403076D01*
X150151971Y-80272786D01*
X150007213Y-80128028D01*
X149841613Y-80007715D01*
X149841612Y-80007714D01*
X149841610Y-80007713D01*
X149784068Y-79978394D01*
X149659223Y-79914781D01*
X149464534Y-79851522D01*
X149289995Y-79823878D01*
X149262352Y-79819500D01*
X149057648Y-79819500D01*
X149033329Y-79823351D01*
X148855465Y-79851522D01*
X148660776Y-79914781D01*
X148478386Y-80007715D01*
X148312786Y-80128028D01*
X148168028Y-80272786D01*
X148047715Y-80438386D01*
X148000485Y-80531080D01*
X147952510Y-80581876D01*
X147884689Y-80598671D01*
X147818554Y-80576134D01*
X147779515Y-80531080D01*
X147778883Y-80529840D01*
X147732287Y-80438390D01*
X147706630Y-80403076D01*
X147611971Y-80272786D01*
X147467213Y-80128028D01*
X147301613Y-80007715D01*
X147301612Y-80007714D01*
X147301610Y-80007713D01*
X147244068Y-79978394D01*
X147119223Y-79914781D01*
X146924534Y-79851522D01*
X146749995Y-79823878D01*
X146722352Y-79819500D01*
X146517648Y-79819500D01*
X146493329Y-79823351D01*
X146315465Y-79851522D01*
X146120776Y-79914781D01*
X145938386Y-80007715D01*
X145772786Y-80128028D01*
X145628028Y-80272786D01*
X145507715Y-80438386D01*
X145460485Y-80531080D01*
X145412510Y-80581876D01*
X145344689Y-80598671D01*
X145278554Y-80576134D01*
X145239515Y-80531080D01*
X145238883Y-80529840D01*
X145192287Y-80438390D01*
X145166630Y-80403076D01*
X145071971Y-80272786D01*
X144927213Y-80128028D01*
X144761613Y-80007715D01*
X144761612Y-80007714D01*
X144761610Y-80007713D01*
X144704068Y-79978394D01*
X144579223Y-79914781D01*
X144384534Y-79851522D01*
X144209995Y-79823878D01*
X144182352Y-79819500D01*
X143977648Y-79819500D01*
X143874101Y-79835900D01*
X143770654Y-79852285D01*
X143770333Y-79850262D01*
X143709120Y-79847149D01*
X143662371Y-79817781D01*
X142900822Y-79056232D01*
X142890859Y-79046269D01*
X142890858Y-79046267D01*
X142803733Y-78959142D01*
X142752509Y-78924915D01*
X142701286Y-78890688D01*
X142701283Y-78890686D01*
X142701280Y-78890685D01*
X142627603Y-78860168D01*
X142627601Y-78860167D01*
X142620792Y-78857347D01*
X142587452Y-78843537D01*
X142527029Y-78831518D01*
X142522306Y-78830578D01*
X142522304Y-78830578D01*
X142466610Y-78819500D01*
X142466607Y-78819500D01*
X142466606Y-78819500D01*
X134001040Y-78819500D01*
X134001020Y-78819499D01*
X133994906Y-78819499D01*
X133871693Y-78819499D01*
X133770896Y-78839548D01*
X133770891Y-78839548D01*
X133750848Y-78843536D01*
X133750846Y-78843536D01*
X133703696Y-78863067D01*
X133637018Y-78890685D01*
X133637016Y-78890686D01*
X133534565Y-78959141D01*
X133534562Y-78959144D01*
X132381939Y-80111768D01*
X132320616Y-80145253D01*
X132250924Y-80140269D01*
X132221372Y-80124405D01*
X132061349Y-80008140D01*
X131879031Y-79915244D01*
X131684417Y-79852009D01*
X131482317Y-79820000D01*
X131277683Y-79820000D01*
X131075582Y-79852009D01*
X130880968Y-79915244D01*
X130698644Y-80008143D01*
X130654077Y-80040523D01*
X130654077Y-80040524D01*
X131333553Y-80720000D01*
X131327339Y-80720000D01*
X131225606Y-80747259D01*
X131134394Y-80799920D01*
X131059920Y-80874394D01*
X131007259Y-80965606D01*
X130980000Y-81067339D01*
X130980000Y-81073553D01*
X130300524Y-80394077D01*
X130300523Y-80394077D01*
X130268143Y-80438644D01*
X130220765Y-80531630D01*
X130172790Y-80582426D01*
X130104969Y-80599221D01*
X130038834Y-80576683D01*
X129999795Y-80531630D01*
X129952284Y-80438385D01*
X129831971Y-80272786D01*
X129687213Y-80128028D01*
X129521613Y-80007715D01*
X129521612Y-80007714D01*
X129521610Y-80007713D01*
X129464068Y-79978394D01*
X129339223Y-79914781D01*
X129144534Y-79851522D01*
X128969995Y-79823878D01*
X128942352Y-79819500D01*
X128737648Y-79819500D01*
X128713329Y-79823351D01*
X128535465Y-79851522D01*
X128340776Y-79914781D01*
X128158386Y-80007715D01*
X127992786Y-80128028D01*
X127848028Y-80272786D01*
X127727715Y-80438386D01*
X127680485Y-80531080D01*
X127632510Y-80581876D01*
X127564689Y-80598671D01*
X127498554Y-80576134D01*
X127459515Y-80531080D01*
X127458883Y-80529840D01*
X127412287Y-80438390D01*
X127386630Y-80403076D01*
X127291971Y-80272786D01*
X127147213Y-80128028D01*
X126981613Y-80007715D01*
X126981612Y-80007714D01*
X126981610Y-80007713D01*
X126924068Y-79978394D01*
X126799223Y-79914781D01*
X126604534Y-79851522D01*
X126429995Y-79823878D01*
X126402352Y-79819500D01*
X126197648Y-79819500D01*
X126173329Y-79823351D01*
X125995465Y-79851522D01*
X125800776Y-79914781D01*
X125618386Y-80007715D01*
X125452786Y-80128028D01*
X125308028Y-80272786D01*
X125187715Y-80438386D01*
X125140485Y-80531080D01*
X125092510Y-80581876D01*
X125024689Y-80598671D01*
X124958554Y-80576134D01*
X124919515Y-80531080D01*
X124918883Y-80529840D01*
X124872287Y-80438390D01*
X124846630Y-80403076D01*
X124751971Y-80272786D01*
X124607213Y-80128028D01*
X124441613Y-80007715D01*
X124441612Y-80007714D01*
X124441610Y-80007713D01*
X124384068Y-79978394D01*
X124259223Y-79914781D01*
X124064534Y-79851522D01*
X123889995Y-79823878D01*
X123862352Y-79819500D01*
X123657648Y-79819500D01*
X123554101Y-79835900D01*
X123450654Y-79852285D01*
X123450333Y-79850262D01*
X123389120Y-79847149D01*
X123342371Y-79817781D01*
X123078600Y-79554010D01*
X123070860Y-79546270D01*
X123070858Y-79546267D01*
X122983733Y-79459142D01*
X122916922Y-79414500D01*
X122881286Y-79390688D01*
X122881287Y-79390688D01*
X122881285Y-79390687D01*
X122841822Y-79374342D01*
X122800792Y-79357347D01*
X122767452Y-79343537D01*
X122707029Y-79331518D01*
X122702306Y-79330578D01*
X122702304Y-79330578D01*
X122646610Y-79319500D01*
X122646607Y-79319500D01*
X122646606Y-79319500D01*
X115122741Y-79319500D01*
X115122721Y-79319499D01*
X115116607Y-79319499D01*
X114993394Y-79319499D01*
X114892597Y-79339548D01*
X114892592Y-79339548D01*
X114872549Y-79343536D01*
X114872547Y-79343536D01*
X114825397Y-79363067D01*
X114758719Y-79390685D01*
X114758717Y-79390686D01*
X114656266Y-79459141D01*
X114656263Y-79459144D01*
X113454442Y-80660966D01*
X113393119Y-80694451D01*
X113323427Y-80689467D01*
X113267494Y-80647595D01*
X113244288Y-80592683D01*
X113213553Y-80398631D01*
X113169409Y-80262771D01*
X113140568Y-80174008D01*
X113140566Y-80174005D01*
X113140566Y-80174003D01*
X113084002Y-80062991D01*
X113033343Y-79963567D01*
X112894517Y-79772490D01*
X112727510Y-79605483D01*
X112536433Y-79466657D01*
X112521682Y-79459141D01*
X112325996Y-79359433D01*
X112101368Y-79286446D01*
X111868097Y-79249500D01*
X111868092Y-79249500D01*
X111631908Y-79249500D01*
X111631903Y-79249500D01*
X111398631Y-79286446D01*
X111174003Y-79359433D01*
X110963566Y-79466657D01*
X110854550Y-79545862D01*
X110772490Y-79605483D01*
X110772488Y-79605485D01*
X110772487Y-79605485D01*
X110605485Y-79772487D01*
X110605485Y-79772488D01*
X110605483Y-79772490D01*
X110572577Y-79817781D01*
X110466657Y-79963566D01*
X110359433Y-80174003D01*
X110286446Y-80398631D01*
X110249500Y-80631902D01*
X110249500Y-80868097D01*
X110286446Y-81101368D01*
X110359433Y-81325996D01*
X110458284Y-81520000D01*
X110466657Y-81536433D01*
X110605483Y-81727510D01*
X110772490Y-81894517D01*
X110963567Y-82033343D01*
X111056793Y-82080844D01*
X111174003Y-82140566D01*
X111174005Y-82140566D01*
X111174008Y-82140568D01*
X111294412Y-82179689D01*
X111398631Y-82213553D01*
X111592684Y-82244288D01*
X111655819Y-82274217D01*
X111692750Y-82333529D01*
X111691752Y-82403391D01*
X111660967Y-82454442D01*
X111152229Y-82963181D01*
X111090906Y-82996666D01*
X111064548Y-82999500D01*
X110997648Y-82999500D01*
X110973329Y-83003351D01*
X110795465Y-83031522D01*
X110600776Y-83094781D01*
X110418386Y-83187715D01*
X110252786Y-83308028D01*
X110108028Y-83452786D01*
X109987715Y-83618386D01*
X109894781Y-83800776D01*
X109831522Y-83995465D01*
X109799500Y-84197648D01*
X109799500Y-84402351D01*
X109831522Y-84604534D01*
X109894781Y-84799223D01*
X109987715Y-84981613D01*
X110108028Y-85147213D01*
X110123634Y-85162819D01*
X110157119Y-85224142D01*
X110152135Y-85293834D01*
X110110263Y-85349767D01*
X110044799Y-85374184D01*
X110035953Y-85374500D01*
X109060452Y-85374500D01*
X108993413Y-85354815D01*
X108972771Y-85338181D01*
X108352218Y-84717628D01*
X108318733Y-84656305D01*
X108319241Y-84609588D01*
X108317715Y-84609347D01*
X108350500Y-84402351D01*
X108350500Y-84197648D01*
X108318477Y-83995465D01*
X108255218Y-83800776D01*
X108202951Y-83698198D01*
X108162287Y-83618390D01*
X108149628Y-83600966D01*
X108041971Y-83452786D01*
X107911819Y-83322634D01*
X107878334Y-83261311D01*
X107875500Y-83234953D01*
X107875500Y-82191329D01*
X107895185Y-82124290D01*
X107943205Y-82080844D01*
X108036433Y-82033343D01*
X108227510Y-81894517D01*
X108394517Y-81727510D01*
X108533343Y-81536433D01*
X108640568Y-81325992D01*
X108713553Y-81101368D01*
X108722374Y-81045674D01*
X108750500Y-80868097D01*
X108750500Y-80631902D01*
X108713553Y-80398631D01*
X108669409Y-80262771D01*
X108640568Y-80174008D01*
X108640566Y-80174005D01*
X108640566Y-80174003D01*
X108584002Y-80062991D01*
X108533343Y-79963567D01*
X108394517Y-79772490D01*
X108227510Y-79605483D01*
X108036433Y-79466657D01*
X108021682Y-79459141D01*
X107825996Y-79359433D01*
X107601368Y-79286446D01*
X107368097Y-79249500D01*
X107368092Y-79249500D01*
X107131908Y-79249500D01*
X107131903Y-79249500D01*
X106898631Y-79286446D01*
X106674003Y-79359433D01*
X106463566Y-79466657D01*
X106354550Y-79545862D01*
X106272490Y-79605483D01*
X106272488Y-79605485D01*
X106272487Y-79605485D01*
X106105485Y-79772487D01*
X106105485Y-79772488D01*
X106105483Y-79772490D01*
X106072577Y-79817781D01*
X105966657Y-79963566D01*
X105859433Y-80174003D01*
X105786446Y-80398631D01*
X105749500Y-80631902D01*
X105749500Y-80868097D01*
X105786446Y-81101368D01*
X105859433Y-81325996D01*
X105958284Y-81520000D01*
X105966657Y-81536433D01*
X106105483Y-81727510D01*
X106272490Y-81894517D01*
X106389459Y-81979500D01*
X106463568Y-82033344D01*
X106486808Y-82045185D01*
X106556794Y-82080844D01*
X106607590Y-82128818D01*
X106624500Y-82191329D01*
X106624500Y-82981390D01*
X106604815Y-83048429D01*
X106554740Y-83091818D01*
X106555122Y-83092568D01*
X106552097Y-83094109D01*
X106552011Y-83094184D01*
X106551593Y-83094365D01*
X106368386Y-83187715D01*
X106202786Y-83308028D01*
X106058028Y-83452786D01*
X105937715Y-83618386D01*
X105844781Y-83800776D01*
X105781522Y-83995465D01*
X105749500Y-84197648D01*
X105749500Y-84402351D01*
X105781522Y-84604534D01*
X105844781Y-84799223D01*
X105937715Y-84981613D01*
X106058028Y-85147213D01*
X106202786Y-85291971D01*
X106357749Y-85404556D01*
X106368390Y-85412287D01*
X106458731Y-85458318D01*
X106550776Y-85505218D01*
X106550778Y-85505218D01*
X106550781Y-85505220D01*
X106619161Y-85527438D01*
X106745465Y-85568477D01*
X106846557Y-85584488D01*
X106947648Y-85600500D01*
X106947649Y-85600500D01*
X107152351Y-85600500D01*
X107152352Y-85600500D01*
X107221371Y-85589568D01*
X107359347Y-85567715D01*
X107359672Y-85569767D01*
X107420743Y-85572802D01*
X107467628Y-85602218D01*
X108264139Y-86398729D01*
X108264142Y-86398733D01*
X108351267Y-86485858D01*
X108402490Y-86520084D01*
X108453714Y-86554312D01*
X108453715Y-86554312D01*
X108453716Y-86554313D01*
X108527390Y-86584829D01*
X108527394Y-86584830D01*
X108534207Y-86587652D01*
X108567548Y-86601463D01*
X108627971Y-86613481D01*
X108688393Y-86625500D01*
X111321607Y-86625500D01*
X111382029Y-86613481D01*
X111442452Y-86601463D01*
X111475792Y-86587652D01*
X111556286Y-86554312D01*
X111607509Y-86520084D01*
X111658733Y-86485858D01*
X111745858Y-86398733D01*
X111745859Y-86398731D01*
X111752925Y-86391665D01*
X111752927Y-86391661D01*
X113662752Y-84481837D01*
X113724073Y-84448354D01*
X113793765Y-84453338D01*
X113849698Y-84495210D01*
X113872904Y-84550120D01*
X113881523Y-84604536D01*
X113944781Y-84799223D01*
X114037715Y-84981613D01*
X114158028Y-85147213D01*
X114302786Y-85291971D01*
X114457749Y-85404556D01*
X114468390Y-85412287D01*
X114558731Y-85458318D01*
X114650776Y-85505218D01*
X114650778Y-85505218D01*
X114650781Y-85505220D01*
X114719161Y-85527438D01*
X114845465Y-85568477D01*
X114946557Y-85584488D01*
X115047648Y-85600500D01*
X115047649Y-85600500D01*
X115053846Y-85600500D01*
X115120885Y-85620185D01*
X115166640Y-85672989D01*
X115176584Y-85742147D01*
X115147559Y-85805703D01*
X115141527Y-85812181D01*
X114664144Y-86289563D01*
X114664138Y-86289571D01*
X114629914Y-86340788D01*
X114629915Y-86340789D01*
X114595687Y-86392012D01*
X114595687Y-86392013D01*
X114592909Y-86398723D01*
X114592905Y-86398732D01*
X114548538Y-86505843D01*
X114548535Y-86505855D01*
X114524500Y-86626688D01*
X114524500Y-90703885D01*
X114504815Y-90770924D01*
X114471428Y-90803606D01*
X114472331Y-90804849D01*
X114302786Y-90928028D01*
X114158028Y-91072786D01*
X114037715Y-91238386D01*
X113944781Y-91420776D01*
X113881522Y-91615465D01*
X113849500Y-91817648D01*
X113849500Y-92022351D01*
X113881522Y-92224534D01*
X113944781Y-92419223D01*
X113988400Y-92504828D01*
X114037585Y-92601359D01*
X114037715Y-92601613D01*
X114158028Y-92767213D01*
X114158034Y-92767219D01*
X114302781Y-92911966D01*
X114468390Y-93032287D01*
X114468394Y-93032289D01*
X114472332Y-93035150D01*
X114471111Y-93036829D01*
X114512155Y-93082177D01*
X114524500Y-93136114D01*
X114524500Y-100284546D01*
X114504815Y-100351585D01*
X114488181Y-100372227D01*
X113707180Y-101153228D01*
X113645857Y-101186713D01*
X113576165Y-101181729D01*
X113520232Y-101139857D01*
X113495815Y-101074393D01*
X113495499Y-101065547D01*
X113495499Y-100152129D01*
X113495498Y-100152123D01*
X113495497Y-100152116D01*
X113489091Y-100092517D01*
X113487237Y-100087547D01*
X113438797Y-99957671D01*
X113438793Y-99957664D01*
X113352547Y-99842455D01*
X113352544Y-99842452D01*
X113237335Y-99756206D01*
X113237328Y-99756202D01*
X113157419Y-99726398D01*
X113101485Y-99684527D01*
X113077068Y-99619062D01*
X113091920Y-99550789D01*
X113113069Y-99522537D01*
X113163242Y-99472365D01*
X113292815Y-99294022D01*
X113392895Y-99097606D01*
X113461015Y-98887951D01*
X113495500Y-98670222D01*
X113495500Y-98449778D01*
X113461015Y-98232049D01*
X113402144Y-98050859D01*
X113392896Y-98022396D01*
X113392895Y-98022393D01*
X113338080Y-97914815D01*
X113292815Y-97825978D01*
X113252768Y-97770858D01*
X113163247Y-97647641D01*
X113163243Y-97647636D01*
X113007363Y-97491756D01*
X113007358Y-97491752D01*
X112829025Y-97362187D01*
X112829024Y-97362186D01*
X112829022Y-97362185D01*
X112766096Y-97330122D01*
X112632606Y-97262104D01*
X112632603Y-97262103D01*
X112422952Y-97193985D01*
X112262664Y-97168598D01*
X112205222Y-97159500D01*
X111984778Y-97159500D01*
X111868897Y-97177853D01*
X111799604Y-97168898D01*
X111746152Y-97123902D01*
X111725513Y-97057150D01*
X111725500Y-97055380D01*
X111725500Y-93136114D01*
X111745185Y-93069075D01*
X111778575Y-93036398D01*
X111777668Y-93035150D01*
X111781605Y-93032289D01*
X111781610Y-93032287D01*
X111947219Y-92911966D01*
X112091966Y-92767219D01*
X112091968Y-92767215D01*
X112091971Y-92767213D01*
X112168543Y-92661819D01*
X112212287Y-92601610D01*
X112305220Y-92419219D01*
X112368477Y-92224534D01*
X112400500Y-92022352D01*
X112400500Y-91817648D01*
X112384615Y-91717358D01*
X112368477Y-91615465D01*
X112309561Y-91434142D01*
X112305220Y-91420781D01*
X112305218Y-91420778D01*
X112305218Y-91420776D01*
X112271503Y-91354607D01*
X112212287Y-91238390D01*
X112180092Y-91194077D01*
X112091971Y-91072786D01*
X111947213Y-90928028D01*
X111781613Y-90807715D01*
X111781612Y-90807714D01*
X111781610Y-90807713D01*
X111709408Y-90770924D01*
X111599223Y-90714781D01*
X111404534Y-90651522D01*
X111229995Y-90623878D01*
X111202352Y-90619500D01*
X110997648Y-90619500D01*
X110977905Y-90622627D01*
X110795465Y-90651522D01*
X110600776Y-90714781D01*
X110418386Y-90807715D01*
X110252786Y-90928028D01*
X110108028Y-91072786D01*
X109987715Y-91238386D01*
X109894781Y-91420776D01*
X109831522Y-91615465D01*
X109799500Y-91817648D01*
X109799500Y-92022351D01*
X109831522Y-92224534D01*
X109894781Y-92419223D01*
X109938400Y-92504828D01*
X109987585Y-92601359D01*
X109987715Y-92601613D01*
X110108028Y-92767213D01*
X110108034Y-92767219D01*
X110252781Y-92911966D01*
X110418390Y-93032287D01*
X110418394Y-93032289D01*
X110422332Y-93035150D01*
X110421111Y-93036829D01*
X110462155Y-93082177D01*
X110474500Y-93136114D01*
X110474500Y-97626611D01*
X110498535Y-97747444D01*
X110498540Y-97747461D01*
X110545685Y-97861281D01*
X110545690Y-97861290D01*
X110574125Y-97903844D01*
X110578573Y-97910500D01*
X110614142Y-97963733D01*
X110701267Y-98050858D01*
X110701269Y-98050859D01*
X110711299Y-98060889D01*
X110712891Y-98062481D01*
X110713226Y-98063096D01*
X110714047Y-98064035D01*
X110715725Y-98067671D01*
X110746376Y-98123804D01*
X110743141Y-98188480D01*
X110728985Y-98232047D01*
X110694500Y-98449778D01*
X110694500Y-98670221D01*
X110728985Y-98887952D01*
X110797103Y-99097603D01*
X110797104Y-99097606D01*
X110851920Y-99205185D01*
X110890040Y-99280000D01*
X110897187Y-99294025D01*
X111026752Y-99472358D01*
X111026756Y-99472363D01*
X111076928Y-99522535D01*
X111110413Y-99583858D01*
X111105429Y-99653550D01*
X111063557Y-99709483D01*
X111032581Y-99726398D01*
X110952669Y-99756203D01*
X110952664Y-99756206D01*
X110837455Y-99842452D01*
X110837452Y-99842455D01*
X110751206Y-99957664D01*
X110751202Y-99957671D01*
X110700908Y-100092517D01*
X110694501Y-100152116D01*
X110694501Y-100152123D01*
X110694500Y-100152135D01*
X110694500Y-102047870D01*
X110694501Y-102047876D01*
X110700908Y-102107483D01*
X110751202Y-102242328D01*
X110751206Y-102242335D01*
X110837452Y-102357544D01*
X110837455Y-102357547D01*
X110952664Y-102443793D01*
X110952671Y-102443797D01*
X111087517Y-102494091D01*
X111087516Y-102494091D01*
X111094444Y-102494835D01*
X111147127Y-102500500D01*
X112060547Y-102500499D01*
X112127586Y-102520183D01*
X112173341Y-102572987D01*
X112183285Y-102642146D01*
X112154260Y-102705702D01*
X112148228Y-102712180D01*
X109196269Y-105664140D01*
X109109144Y-105751264D01*
X109109138Y-105751272D01*
X109040692Y-105853705D01*
X109040684Y-105853719D01*
X109007347Y-105934207D01*
X109001823Y-105947543D01*
X108993537Y-105967545D01*
X108993535Y-105967553D01*
X108969500Y-106088389D01*
X108969500Y-106229785D01*
X108949815Y-106296824D01*
X108901796Y-106340269D01*
X108834774Y-106374419D01*
X108650061Y-106508622D01*
X108488622Y-106670061D01*
X108354421Y-106854771D01*
X108250770Y-107058196D01*
X108180215Y-107275339D01*
X108144500Y-107500837D01*
X108144500Y-109029162D01*
X108180215Y-109254660D01*
X108250770Y-109471803D01*
X108320192Y-109608050D01*
X108354421Y-109675228D01*
X108488621Y-109859937D01*
X108650063Y-110021379D01*
X108834772Y-110155579D01*
X108930884Y-110204550D01*
X109038196Y-110259229D01*
X109038198Y-110259229D01*
X109038201Y-110259231D01*
X109154592Y-110297049D01*
X109255339Y-110329784D01*
X109480838Y-110365500D01*
X109480843Y-110365500D01*
X109709162Y-110365500D01*
X109934660Y-110329784D01*
X109936165Y-110329295D01*
X110151799Y-110259231D01*
X110355228Y-110155579D01*
X110539937Y-110021379D01*
X110701379Y-109859937D01*
X110835579Y-109675228D01*
X110939231Y-109471799D01*
X111009784Y-109254660D01*
X111011597Y-109243214D01*
X111045500Y-109029162D01*
X111045500Y-107500883D01*
X113145000Y-107500883D01*
X113145000Y-108015000D01*
X113994999Y-108015000D01*
X113969979Y-108075402D01*
X113945000Y-108200981D01*
X113945000Y-108329019D01*
X113969979Y-108454598D01*
X113994999Y-108515000D01*
X113145000Y-108515000D01*
X113145000Y-109029116D01*
X113180704Y-109254544D01*
X113251230Y-109471604D01*
X113354849Y-109674966D01*
X113489004Y-109859614D01*
X113650385Y-110020995D01*
X113835033Y-110155150D01*
X114038395Y-110258769D01*
X114255455Y-110329295D01*
X114345000Y-110343478D01*
X114345000Y-108865001D01*
X114405402Y-108890021D01*
X114530981Y-108915000D01*
X114659019Y-108915000D01*
X114784598Y-108890021D01*
X114845000Y-108865001D01*
X114845000Y-110343477D01*
X114934544Y-110329295D01*
X115151604Y-110258769D01*
X115354966Y-110155150D01*
X115539614Y-110020995D01*
X115700995Y-109859614D01*
X115835150Y-109674966D01*
X115938769Y-109471604D01*
X116009295Y-109254544D01*
X116045000Y-109029116D01*
X116045000Y-108515000D01*
X115195001Y-108515000D01*
X115220021Y-108454598D01*
X115245000Y-108329019D01*
X115245000Y-108200981D01*
X115220021Y-108075402D01*
X115195001Y-108015000D01*
X116045000Y-108015000D01*
X116045000Y-107500883D01*
X116009295Y-107275455D01*
X115938769Y-107058395D01*
X115835150Y-106855033D01*
X115700995Y-106670385D01*
X115539614Y-106509004D01*
X115354966Y-106374849D01*
X115151602Y-106271229D01*
X114934541Y-106200703D01*
X114845000Y-106186521D01*
X114845000Y-107664998D01*
X114784598Y-107639979D01*
X114659019Y-107615000D01*
X114530981Y-107615000D01*
X114405402Y-107639979D01*
X114345000Y-107664998D01*
X114345000Y-106186521D01*
X114344999Y-106186521D01*
X114255458Y-106200703D01*
X114038397Y-106271229D01*
X113835033Y-106374849D01*
X113650385Y-106509004D01*
X113489004Y-106670385D01*
X113354849Y-106855033D01*
X113251230Y-107058395D01*
X113180704Y-107275455D01*
X113145000Y-107500883D01*
X111045500Y-107500883D01*
X111045500Y-107500837D01*
X111009784Y-107275339D01*
X110939229Y-107058196D01*
X110884550Y-106950884D01*
X110835579Y-106854772D01*
X110701379Y-106670063D01*
X110539937Y-106508621D01*
X110414730Y-106417652D01*
X110372065Y-106362321D01*
X110366086Y-106292708D01*
X110398692Y-106230913D01*
X110399858Y-106229730D01*
X115635857Y-100993734D01*
X115704311Y-100891286D01*
X115751463Y-100777451D01*
X115775500Y-100656607D01*
X115775500Y-100533394D01*
X115775500Y-93136114D01*
X115795185Y-93069075D01*
X115828575Y-93036398D01*
X115827668Y-93035150D01*
X115831605Y-93032289D01*
X115831610Y-93032287D01*
X115997219Y-92911966D01*
X116141966Y-92767219D01*
X116141968Y-92767215D01*
X116141971Y-92767213D01*
X116218543Y-92661819D01*
X116262287Y-92601610D01*
X116355220Y-92419219D01*
X116418477Y-92224534D01*
X116450500Y-92022352D01*
X116450500Y-91817648D01*
X116434615Y-91717358D01*
X116418477Y-91615465D01*
X116359561Y-91434142D01*
X116355220Y-91420781D01*
X116355218Y-91420778D01*
X116355218Y-91420776D01*
X116321503Y-91354607D01*
X116262287Y-91238390D01*
X116230092Y-91194077D01*
X116141971Y-91072786D01*
X115997213Y-90928028D01*
X115827669Y-90804849D01*
X115828884Y-90803176D01*
X115787831Y-90757792D01*
X115775500Y-90703885D01*
X115775500Y-86998751D01*
X115795185Y-86931712D01*
X115811819Y-86911070D01*
X116520450Y-86202439D01*
X117850096Y-84872792D01*
X117911417Y-84839309D01*
X117981109Y-84844293D01*
X118037042Y-84886165D01*
X118048259Y-84904180D01*
X118087711Y-84981608D01*
X118087712Y-84981610D01*
X118208028Y-85147213D01*
X118352786Y-85291971D01*
X118507749Y-85404556D01*
X118518390Y-85412287D01*
X118608731Y-85458318D01*
X118700776Y-85505218D01*
X118700778Y-85505218D01*
X118700781Y-85505220D01*
X118769161Y-85527438D01*
X118895465Y-85568477D01*
X118996557Y-85584488D01*
X119097648Y-85600500D01*
X119097649Y-85600500D01*
X119302351Y-85600500D01*
X119302352Y-85600500D01*
X119504534Y-85568477D01*
X119699219Y-85505220D01*
X119881610Y-85412287D01*
X119983609Y-85338181D01*
X120047213Y-85291971D01*
X120047215Y-85291968D01*
X120047219Y-85291966D01*
X120191966Y-85147219D01*
X120191968Y-85147215D01*
X120191971Y-85147213D01*
X120244732Y-85074590D01*
X120312287Y-84981610D01*
X120405220Y-84799219D01*
X120468477Y-84604534D01*
X120500500Y-84402352D01*
X120500500Y-84197648D01*
X120467715Y-83990654D01*
X120469777Y-83990327D01*
X120469859Y-83988670D01*
X120466214Y-83978897D01*
X120471548Y-83954372D01*
X120472784Y-83929304D01*
X120479242Y-83919005D01*
X120481066Y-83910624D01*
X120502214Y-83882375D01*
X120597772Y-83786818D01*
X120659095Y-83753334D01*
X120685452Y-83750500D01*
X121890445Y-83750500D01*
X121957484Y-83770185D01*
X122003239Y-83822989D01*
X122013183Y-83892147D01*
X122008376Y-83912818D01*
X121981523Y-83995461D01*
X121981523Y-83995464D01*
X121949500Y-84197648D01*
X121949500Y-84402351D01*
X121981522Y-84604534D01*
X122044781Y-84799223D01*
X122137715Y-84981613D01*
X122258028Y-85147213D01*
X122402786Y-85291971D01*
X122557749Y-85404556D01*
X122568390Y-85412287D01*
X122658731Y-85458318D01*
X122750776Y-85505218D01*
X122750778Y-85505218D01*
X122750781Y-85505220D01*
X122819161Y-85527438D01*
X122945465Y-85568477D01*
X123046557Y-85584488D01*
X123147648Y-85600500D01*
X123147649Y-85600500D01*
X123352351Y-85600500D01*
X123352352Y-85600500D01*
X123554534Y-85568477D01*
X123749219Y-85505220D01*
X123931610Y-85412287D01*
X124033609Y-85338181D01*
X124097213Y-85291971D01*
X124097215Y-85291968D01*
X124097219Y-85291966D01*
X124241966Y-85147219D01*
X124241968Y-85147215D01*
X124241971Y-85147213D01*
X124294732Y-85074590D01*
X124362287Y-84981610D01*
X124455220Y-84799219D01*
X124518477Y-84604534D01*
X124550500Y-84402352D01*
X124550500Y-84197648D01*
X124518477Y-83995466D01*
X124518476Y-83995462D01*
X124518476Y-83995461D01*
X124491624Y-83912818D01*
X124489629Y-83842977D01*
X124525710Y-83783144D01*
X124588411Y-83752316D01*
X124609555Y-83750500D01*
X125940445Y-83750500D01*
X126007484Y-83770185D01*
X126053239Y-83822989D01*
X126063183Y-83892147D01*
X126058376Y-83912818D01*
X126031523Y-83995461D01*
X126031523Y-83995464D01*
X125999500Y-84197648D01*
X125999500Y-84402351D01*
X126031522Y-84604534D01*
X126094781Y-84799223D01*
X126187715Y-84981613D01*
X126308028Y-85147213D01*
X126452786Y-85291971D01*
X126607749Y-85404556D01*
X126618390Y-85412287D01*
X126708731Y-85458318D01*
X126800776Y-85505218D01*
X126800778Y-85505218D01*
X126800781Y-85505220D01*
X126869161Y-85527438D01*
X126995465Y-85568477D01*
X127096557Y-85584488D01*
X127197648Y-85600500D01*
X127197649Y-85600500D01*
X127402351Y-85600500D01*
X127402352Y-85600500D01*
X127604534Y-85568477D01*
X127799219Y-85505220D01*
X127981610Y-85412287D01*
X128083609Y-85338181D01*
X128147213Y-85291971D01*
X128147215Y-85291968D01*
X128147219Y-85291966D01*
X128291966Y-85147219D01*
X128291968Y-85147215D01*
X128291971Y-85147213D01*
X128344732Y-85074590D01*
X128412287Y-84981610D01*
X128505220Y-84799219D01*
X128568477Y-84604534D01*
X128600500Y-84402352D01*
X128600500Y-84197648D01*
X128567715Y-83990654D01*
X128569777Y-83990327D01*
X128572784Y-83929304D01*
X128602215Y-83882373D01*
X129527771Y-82956819D01*
X129589094Y-82923334D01*
X129615452Y-82920500D01*
X130676327Y-82920500D01*
X130743366Y-82940185D01*
X130789121Y-82992989D01*
X130799065Y-83062147D01*
X130770040Y-83125703D01*
X130732622Y-83154985D01*
X130668386Y-83187715D01*
X130502786Y-83308028D01*
X130358028Y-83452786D01*
X130237715Y-83618386D01*
X130144781Y-83800776D01*
X130081522Y-83995465D01*
X130049500Y-84197648D01*
X130049500Y-84402351D01*
X130081522Y-84604534D01*
X130144781Y-84799223D01*
X130237715Y-84981613D01*
X130358028Y-85147213D01*
X130502786Y-85291971D01*
X130668385Y-85412284D01*
X130668387Y-85412285D01*
X130668390Y-85412287D01*
X130733943Y-85445688D01*
X130758731Y-85458318D01*
X130809527Y-85506293D01*
X130826322Y-85574114D01*
X130803785Y-85640249D01*
X130790117Y-85656484D01*
X125188422Y-91258181D01*
X125127099Y-91291666D01*
X125100741Y-91294500D01*
X124466115Y-91294500D01*
X124399076Y-91274815D01*
X124366393Y-91241428D01*
X124365151Y-91242331D01*
X124241971Y-91072786D01*
X124097213Y-90928028D01*
X123931613Y-90807715D01*
X123931612Y-90807714D01*
X123931610Y-90807713D01*
X123859408Y-90770924D01*
X123749223Y-90714781D01*
X123554534Y-90651522D01*
X123379995Y-90623878D01*
X123352352Y-90619500D01*
X123147648Y-90619500D01*
X123127905Y-90622627D01*
X122945465Y-90651522D01*
X122750776Y-90714781D01*
X122568386Y-90807715D01*
X122402786Y-90928028D01*
X122258028Y-91072786D01*
X122137715Y-91238386D01*
X122044781Y-91420776D01*
X121981523Y-91615464D01*
X121965384Y-91717358D01*
X121935454Y-91780492D01*
X121876142Y-91817423D01*
X121806280Y-91816425D01*
X121755230Y-91785640D01*
X121498406Y-91528816D01*
X121490860Y-91521270D01*
X121490858Y-91521267D01*
X121403733Y-91434142D01*
X121343794Y-91394092D01*
X121301286Y-91365688D01*
X121301287Y-91365688D01*
X121301285Y-91365687D01*
X121225155Y-91334154D01*
X121225154Y-91334153D01*
X121218185Y-91331267D01*
X121187452Y-91318537D01*
X121127029Y-91306518D01*
X121122477Y-91305612D01*
X121122475Y-91305612D01*
X121066610Y-91294500D01*
X121066607Y-91294500D01*
X121066606Y-91294500D01*
X120416115Y-91294500D01*
X120349076Y-91274815D01*
X120316393Y-91241428D01*
X120315151Y-91242331D01*
X120191971Y-91072786D01*
X120047213Y-90928028D01*
X119881613Y-90807715D01*
X119881612Y-90807714D01*
X119881610Y-90807713D01*
X119809408Y-90770924D01*
X119699223Y-90714781D01*
X119504534Y-90651522D01*
X119329995Y-90623878D01*
X119302352Y-90619500D01*
X119097648Y-90619500D01*
X119077905Y-90622627D01*
X118895465Y-90651522D01*
X118700776Y-90714781D01*
X118518386Y-90807715D01*
X118352786Y-90928028D01*
X118208028Y-91072786D01*
X118087715Y-91238386D01*
X117994781Y-91420776D01*
X117931522Y-91615465D01*
X117899500Y-91817648D01*
X117899500Y-92022351D01*
X117931522Y-92224534D01*
X117994781Y-92419223D01*
X118038400Y-92504828D01*
X118087585Y-92601359D01*
X118087715Y-92601613D01*
X118208028Y-92767213D01*
X118352786Y-92911971D01*
X118501777Y-93020217D01*
X118518390Y-93032287D01*
X118626137Y-93087187D01*
X118700776Y-93125218D01*
X118700778Y-93125218D01*
X118700781Y-93125220D01*
X118800264Y-93157544D01*
X118895465Y-93188477D01*
X118996557Y-93204488D01*
X119097648Y-93220500D01*
X119097649Y-93220500D01*
X119302351Y-93220500D01*
X119302352Y-93220500D01*
X119504534Y-93188477D01*
X119699219Y-93125220D01*
X119881610Y-93032287D01*
X119991876Y-92952175D01*
X120047213Y-92911971D01*
X120047215Y-92911968D01*
X120047219Y-92911966D01*
X120191966Y-92767219D01*
X120191968Y-92767215D01*
X120191971Y-92767213D01*
X120315151Y-92597669D01*
X120316823Y-92598884D01*
X120362208Y-92557831D01*
X120416115Y-92545500D01*
X120694548Y-92545500D01*
X120761587Y-92565185D01*
X120782229Y-92581819D01*
X126262891Y-98062481D01*
X126296376Y-98123804D01*
X126293141Y-98188480D01*
X126278985Y-98232047D01*
X126244500Y-98449778D01*
X126244500Y-98670221D01*
X126278985Y-98887952D01*
X126347103Y-99097603D01*
X126347104Y-99097606D01*
X126401920Y-99205185D01*
X126440040Y-99280000D01*
X126447187Y-99294025D01*
X126576752Y-99472358D01*
X126576756Y-99472363D01*
X126626928Y-99522535D01*
X126660413Y-99583858D01*
X126655429Y-99653550D01*
X126613557Y-99709483D01*
X126582581Y-99726398D01*
X126502669Y-99756203D01*
X126502664Y-99756206D01*
X126387455Y-99842452D01*
X126387452Y-99842455D01*
X126301206Y-99957664D01*
X126301202Y-99957671D01*
X126250908Y-100092517D01*
X126244501Y-100152116D01*
X126244501Y-100152123D01*
X126244500Y-100152135D01*
X126244500Y-102047870D01*
X126244501Y-102047876D01*
X126250908Y-102107483D01*
X126301202Y-102242328D01*
X126301206Y-102242335D01*
X126387452Y-102357544D01*
X126387455Y-102357547D01*
X126502664Y-102443793D01*
X126502671Y-102443797D01*
X126637517Y-102494091D01*
X126637516Y-102494091D01*
X126644444Y-102494835D01*
X126697127Y-102500500D01*
X128170500Y-102500499D01*
X128237539Y-102520184D01*
X128283294Y-102572987D01*
X128294500Y-102624499D01*
X128294500Y-104179547D01*
X128274815Y-104246586D01*
X128258181Y-104267228D01*
X126122457Y-106402951D01*
X126061134Y-106436436D01*
X125991442Y-106431452D01*
X125961891Y-106415588D01*
X125905232Y-106374423D01*
X125701803Y-106270770D01*
X125484660Y-106200215D01*
X125259162Y-106164500D01*
X125259157Y-106164500D01*
X125030843Y-106164500D01*
X125030838Y-106164500D01*
X124805339Y-106200215D01*
X124588196Y-106270770D01*
X124384771Y-106374421D01*
X124200061Y-106508622D01*
X124038622Y-106670061D01*
X123904421Y-106854771D01*
X123800770Y-107058196D01*
X123730215Y-107275339D01*
X123694500Y-107500837D01*
X123694500Y-109029162D01*
X123730215Y-109254660D01*
X123800770Y-109471803D01*
X123870192Y-109608050D01*
X123904421Y-109675228D01*
X124038621Y-109859937D01*
X124200063Y-110021379D01*
X124384772Y-110155579D01*
X124480884Y-110204550D01*
X124588196Y-110259229D01*
X124588198Y-110259229D01*
X124588201Y-110259231D01*
X124704592Y-110297049D01*
X124805339Y-110329784D01*
X125030838Y-110365500D01*
X125030843Y-110365500D01*
X125259162Y-110365500D01*
X125484660Y-110329784D01*
X125486165Y-110329295D01*
X125701799Y-110259231D01*
X125905228Y-110155579D01*
X126089937Y-110021379D01*
X126251379Y-109859937D01*
X126385579Y-109675228D01*
X126489231Y-109471799D01*
X126559784Y-109254660D01*
X126561597Y-109243214D01*
X126595500Y-109029162D01*
X126595500Y-107750451D01*
X126615185Y-107683412D01*
X126631814Y-107662775D01*
X126793706Y-107500883D01*
X128695000Y-107500883D01*
X128695000Y-108015000D01*
X129544999Y-108015000D01*
X129519979Y-108075402D01*
X129495000Y-108200981D01*
X129495000Y-108329019D01*
X129519979Y-108454598D01*
X129544999Y-108515000D01*
X128695000Y-108515000D01*
X128695000Y-109029116D01*
X128730704Y-109254544D01*
X128801230Y-109471604D01*
X128904849Y-109674966D01*
X129039004Y-109859614D01*
X129200385Y-110020995D01*
X129385033Y-110155150D01*
X129588395Y-110258769D01*
X129805455Y-110329295D01*
X129895000Y-110343478D01*
X129895000Y-108865001D01*
X129955402Y-108890021D01*
X130080981Y-108915000D01*
X130209019Y-108915000D01*
X130334598Y-108890021D01*
X130395000Y-108865001D01*
X130395000Y-110343477D01*
X130484544Y-110329295D01*
X130701604Y-110258769D01*
X130904966Y-110155150D01*
X131089614Y-110020995D01*
X131250995Y-109859614D01*
X131385150Y-109674966D01*
X131488769Y-109471604D01*
X131559295Y-109254544D01*
X131595000Y-109029116D01*
X131595000Y-108515000D01*
X130745001Y-108515000D01*
X130770021Y-108454598D01*
X130795000Y-108329019D01*
X130795000Y-108200981D01*
X130770021Y-108075402D01*
X130745001Y-108015000D01*
X131595000Y-108015000D01*
X131595000Y-107500883D01*
X131559295Y-107275455D01*
X131488769Y-107058395D01*
X131385150Y-106855033D01*
X131250995Y-106670385D01*
X131089614Y-106509004D01*
X130904966Y-106374849D01*
X130701602Y-106271229D01*
X130484541Y-106200703D01*
X130395000Y-106186521D01*
X130395000Y-107664998D01*
X130334598Y-107639979D01*
X130209019Y-107615000D01*
X130080981Y-107615000D01*
X129955402Y-107639979D01*
X129895000Y-107664998D01*
X129895000Y-106186521D01*
X129894999Y-106186521D01*
X129805458Y-106200703D01*
X129588397Y-106271229D01*
X129385033Y-106374849D01*
X129200385Y-106509004D01*
X129039004Y-106670385D01*
X128904849Y-106855033D01*
X128801230Y-107058395D01*
X128730704Y-107275455D01*
X128695000Y-107500883D01*
X126793706Y-107500883D01*
X129318729Y-104975860D01*
X129318733Y-104975858D01*
X129405858Y-104888733D01*
X129474311Y-104786286D01*
X129521463Y-104672452D01*
X129545500Y-104551606D01*
X129545500Y-97528394D01*
X129521463Y-97407548D01*
X129496220Y-97346606D01*
X129474312Y-97293715D01*
X129455311Y-97265278D01*
X129435686Y-97235908D01*
X129405858Y-97191267D01*
X129405855Y-97191263D01*
X129315637Y-97101045D01*
X129315606Y-97101016D01*
X124971771Y-92757181D01*
X124938286Y-92695858D01*
X124943270Y-92626166D01*
X124985142Y-92570233D01*
X125050606Y-92545816D01*
X125059452Y-92545500D01*
X125472800Y-92545500D01*
X125533222Y-92533481D01*
X125593645Y-92521463D01*
X125626985Y-92507652D01*
X125707479Y-92474312D01*
X125761234Y-92438393D01*
X125761235Y-92438393D01*
X125793473Y-92416851D01*
X125809926Y-92405858D01*
X125878565Y-92337218D01*
X125939886Y-92303735D01*
X126009578Y-92308719D01*
X126065512Y-92350590D01*
X126084176Y-92386582D01*
X126094781Y-92419223D01*
X126138400Y-92504828D01*
X126187585Y-92601359D01*
X126187715Y-92601613D01*
X126308028Y-92767213D01*
X126452786Y-92911971D01*
X126601777Y-93020217D01*
X126618390Y-93032287D01*
X126726137Y-93087187D01*
X126800776Y-93125218D01*
X126800778Y-93125218D01*
X126800781Y-93125220D01*
X126900264Y-93157544D01*
X126995465Y-93188477D01*
X127096557Y-93204488D01*
X127197648Y-93220500D01*
X127197649Y-93220500D01*
X127402351Y-93220500D01*
X127402352Y-93220500D01*
X127471371Y-93209568D01*
X127609347Y-93187715D01*
X127609672Y-93189767D01*
X127670743Y-93192802D01*
X127717628Y-93222218D01*
X133454139Y-98958729D01*
X133454142Y-98958733D01*
X133541267Y-99045858D01*
X133592490Y-99080084D01*
X133643714Y-99114312D01*
X133643715Y-99114312D01*
X133643716Y-99114313D01*
X133717390Y-99144829D01*
X133717394Y-99144830D01*
X133724207Y-99147652D01*
X133757548Y-99161463D01*
X133817971Y-99173481D01*
X133878393Y-99185500D01*
X133878394Y-99185500D01*
X141865903Y-99185500D01*
X141932942Y-99205185D01*
X141976387Y-99253203D01*
X141995399Y-99290517D01*
X141997187Y-99294026D01*
X142126752Y-99472358D01*
X142126756Y-99472363D01*
X142176928Y-99522535D01*
X142210413Y-99583858D01*
X142205429Y-99653550D01*
X142163557Y-99709483D01*
X142132581Y-99726398D01*
X142052669Y-99756203D01*
X142052664Y-99756206D01*
X141937455Y-99842452D01*
X141937452Y-99842455D01*
X141851206Y-99957664D01*
X141851202Y-99957671D01*
X141800908Y-100092517D01*
X141794501Y-100152116D01*
X141794501Y-100152123D01*
X141794500Y-100152135D01*
X141794500Y-102047870D01*
X141794501Y-102047876D01*
X141800908Y-102107483D01*
X141851202Y-102242328D01*
X141851206Y-102242335D01*
X141937452Y-102357544D01*
X141937455Y-102357547D01*
X142052664Y-102443793D01*
X142052671Y-102443797D01*
X142187517Y-102494091D01*
X142187516Y-102494091D01*
X142194444Y-102494835D01*
X142247127Y-102500500D01*
X143720500Y-102500499D01*
X143787539Y-102520184D01*
X143833294Y-102572987D01*
X143844500Y-102624499D01*
X143844500Y-104179547D01*
X143824815Y-104246586D01*
X143808181Y-104267228D01*
X141672457Y-106402951D01*
X141611134Y-106436436D01*
X141541442Y-106431452D01*
X141511891Y-106415588D01*
X141455232Y-106374423D01*
X141251803Y-106270770D01*
X141034660Y-106200215D01*
X140809162Y-106164500D01*
X140809157Y-106164500D01*
X140580843Y-106164500D01*
X140580838Y-106164500D01*
X140355339Y-106200215D01*
X140138196Y-106270770D01*
X139934771Y-106374421D01*
X139750061Y-106508622D01*
X139588622Y-106670061D01*
X139454421Y-106854771D01*
X139350770Y-107058196D01*
X139280215Y-107275339D01*
X139244500Y-107500837D01*
X139244500Y-109029162D01*
X139280215Y-109254660D01*
X139350770Y-109471803D01*
X139420192Y-109608050D01*
X139454421Y-109675228D01*
X139588621Y-109859937D01*
X139750063Y-110021379D01*
X139934772Y-110155579D01*
X140030884Y-110204550D01*
X140138196Y-110259229D01*
X140138198Y-110259229D01*
X140138201Y-110259231D01*
X140254592Y-110297049D01*
X140355339Y-110329784D01*
X140580838Y-110365500D01*
X140580843Y-110365500D01*
X140809162Y-110365500D01*
X141034660Y-110329784D01*
X141036165Y-110329295D01*
X141251799Y-110259231D01*
X141455228Y-110155579D01*
X141639937Y-110021379D01*
X141801379Y-109859937D01*
X141935579Y-109675228D01*
X142039231Y-109471799D01*
X142109784Y-109254660D01*
X142111597Y-109243214D01*
X142145500Y-109029162D01*
X142145500Y-107750451D01*
X142165185Y-107683412D01*
X142181814Y-107662775D01*
X142343706Y-107500883D01*
X144245000Y-107500883D01*
X144245000Y-108015000D01*
X145094999Y-108015000D01*
X145069979Y-108075402D01*
X145045000Y-108200981D01*
X145045000Y-108329019D01*
X145069979Y-108454598D01*
X145094999Y-108515000D01*
X144245000Y-108515000D01*
X144245000Y-109029116D01*
X144280704Y-109254544D01*
X144351230Y-109471604D01*
X144454849Y-109674966D01*
X144589004Y-109859614D01*
X144750385Y-110020995D01*
X144935033Y-110155150D01*
X145138395Y-110258769D01*
X145355455Y-110329295D01*
X145445000Y-110343478D01*
X145445000Y-108865001D01*
X145505402Y-108890021D01*
X145630981Y-108915000D01*
X145759019Y-108915000D01*
X145884598Y-108890021D01*
X145945000Y-108865001D01*
X145945000Y-110343477D01*
X146034544Y-110329295D01*
X146251604Y-110258769D01*
X146454966Y-110155150D01*
X146639614Y-110020995D01*
X146800995Y-109859614D01*
X146935150Y-109674966D01*
X147038769Y-109471604D01*
X147109295Y-109254544D01*
X147145000Y-109029116D01*
X147145000Y-108515000D01*
X146295001Y-108515000D01*
X146320021Y-108454598D01*
X146345000Y-108329019D01*
X146345000Y-108200981D01*
X146320021Y-108075402D01*
X146295001Y-108015000D01*
X147145000Y-108015000D01*
X147145000Y-107500883D01*
X147109295Y-107275455D01*
X147038769Y-107058395D01*
X146935150Y-106855033D01*
X146800995Y-106670385D01*
X146639614Y-106509004D01*
X146454966Y-106374849D01*
X146251602Y-106271229D01*
X146034541Y-106200703D01*
X145945000Y-106186521D01*
X145945000Y-107664998D01*
X145884598Y-107639979D01*
X145759019Y-107615000D01*
X145630981Y-107615000D01*
X145505402Y-107639979D01*
X145445000Y-107664998D01*
X145445000Y-106186521D01*
X145444999Y-106186521D01*
X145355458Y-106200703D01*
X145138397Y-106271229D01*
X144935033Y-106374849D01*
X144750385Y-106509004D01*
X144589004Y-106670385D01*
X144454849Y-106855033D01*
X144351230Y-107058395D01*
X144280704Y-107275455D01*
X144245000Y-107500883D01*
X142343706Y-107500883D01*
X144868729Y-104975860D01*
X144868733Y-104975858D01*
X144955858Y-104888733D01*
X145024311Y-104786286D01*
X145071463Y-104672452D01*
X145095500Y-104551606D01*
X145095500Y-98099618D01*
X145095501Y-98099597D01*
X145095501Y-97970268D01*
X145071464Y-97849429D01*
X145071461Y-97849419D01*
X145067275Y-97839315D01*
X145067272Y-97839308D01*
X145038919Y-97770857D01*
X145035733Y-97763166D01*
X145024312Y-97735592D01*
X144955858Y-97633144D01*
X144955855Y-97633140D01*
X144944896Y-97622181D01*
X144911411Y-97560858D01*
X144916395Y-97491166D01*
X144958267Y-97435233D01*
X145023731Y-97410816D01*
X145032577Y-97410500D01*
X156659548Y-97410500D01*
X156726587Y-97430185D01*
X156747229Y-97446819D01*
X157362891Y-98062481D01*
X157396376Y-98123804D01*
X157393141Y-98188480D01*
X157378985Y-98232047D01*
X157344500Y-98449778D01*
X157344500Y-98670221D01*
X157378985Y-98887952D01*
X157447103Y-99097603D01*
X157447104Y-99097606D01*
X157501920Y-99205185D01*
X157540040Y-99280000D01*
X157547187Y-99294025D01*
X157676752Y-99472358D01*
X157676756Y-99472363D01*
X157726928Y-99522535D01*
X157760413Y-99583858D01*
X157755429Y-99653550D01*
X157713557Y-99709483D01*
X157682581Y-99726398D01*
X157602669Y-99756203D01*
X157602664Y-99756206D01*
X157487455Y-99842452D01*
X157487452Y-99842455D01*
X157401206Y-99957664D01*
X157401202Y-99957671D01*
X157350908Y-100092517D01*
X157344501Y-100152116D01*
X157344501Y-100152123D01*
X157344500Y-100152135D01*
X157344500Y-102047870D01*
X157344501Y-102047876D01*
X157350908Y-102107483D01*
X157401202Y-102242328D01*
X157401206Y-102242335D01*
X157487452Y-102357544D01*
X157487455Y-102357547D01*
X157602664Y-102443793D01*
X157602671Y-102443797D01*
X157737517Y-102494091D01*
X157737516Y-102494091D01*
X157744444Y-102494835D01*
X157797127Y-102500500D01*
X159270500Y-102500499D01*
X159337539Y-102520184D01*
X159383294Y-102572987D01*
X159394500Y-102624499D01*
X159394500Y-104179547D01*
X159374815Y-104246586D01*
X159358181Y-104267228D01*
X157222457Y-106402951D01*
X157161134Y-106436436D01*
X157091442Y-106431452D01*
X157061891Y-106415588D01*
X157005232Y-106374423D01*
X156801803Y-106270770D01*
X156584660Y-106200215D01*
X156359162Y-106164500D01*
X156359157Y-106164500D01*
X156130843Y-106164500D01*
X156130838Y-106164500D01*
X155905339Y-106200215D01*
X155688196Y-106270770D01*
X155484771Y-106374421D01*
X155300061Y-106508622D01*
X155138622Y-106670061D01*
X155004421Y-106854771D01*
X154900770Y-107058196D01*
X154830215Y-107275339D01*
X154794500Y-107500837D01*
X154794500Y-109029162D01*
X154830215Y-109254660D01*
X154900770Y-109471803D01*
X154970192Y-109608050D01*
X155004421Y-109675228D01*
X155138621Y-109859937D01*
X155300063Y-110021379D01*
X155484772Y-110155579D01*
X155580884Y-110204550D01*
X155688196Y-110259229D01*
X155688198Y-110259229D01*
X155688201Y-110259231D01*
X155804592Y-110297049D01*
X155905339Y-110329784D01*
X156130838Y-110365500D01*
X156130843Y-110365500D01*
X156359162Y-110365500D01*
X156584660Y-110329784D01*
X156586165Y-110329295D01*
X156801799Y-110259231D01*
X157005228Y-110155579D01*
X157189937Y-110021379D01*
X157351379Y-109859937D01*
X157485579Y-109675228D01*
X157589231Y-109471799D01*
X157659784Y-109254660D01*
X157661597Y-109243214D01*
X157695500Y-109029162D01*
X157695500Y-107750451D01*
X157715185Y-107683412D01*
X157731814Y-107662775D01*
X159919234Y-105475354D01*
X159927176Y-105471018D01*
X159932601Y-105463771D01*
X159957365Y-105454533D01*
X159980557Y-105441870D01*
X159989583Y-105442515D01*
X159998065Y-105439352D01*
X160023888Y-105444968D01*
X160050249Y-105446854D01*
X160059301Y-105452671D01*
X160066338Y-105454202D01*
X160094585Y-105475347D01*
X160094593Y-105475352D01*
X160110099Y-105490857D01*
X160121267Y-105502025D01*
X160121269Y-105502026D01*
X160125605Y-105506362D01*
X160701581Y-106082338D01*
X160735066Y-106143661D01*
X160730082Y-106213353D01*
X160688210Y-106269286D01*
X160670195Y-106280504D01*
X160485033Y-106374849D01*
X160300385Y-106509004D01*
X160139004Y-106670385D01*
X160004849Y-106855033D01*
X159901230Y-107058395D01*
X159830704Y-107275455D01*
X159795000Y-107500883D01*
X159795000Y-108015000D01*
X160644999Y-108015000D01*
X160619979Y-108075402D01*
X160595000Y-108200981D01*
X160595000Y-108329019D01*
X160619979Y-108454598D01*
X160644999Y-108515000D01*
X159795000Y-108515000D01*
X159795000Y-109029116D01*
X159830704Y-109254544D01*
X159901230Y-109471604D01*
X160004849Y-109674966D01*
X160139004Y-109859614D01*
X160300385Y-110020995D01*
X160485033Y-110155150D01*
X160688395Y-110258769D01*
X160905455Y-110329295D01*
X160995000Y-110343478D01*
X160995000Y-108865001D01*
X161055402Y-108890021D01*
X161180981Y-108915000D01*
X161309019Y-108915000D01*
X161434598Y-108890021D01*
X161495000Y-108865001D01*
X161495000Y-110343477D01*
X161584544Y-110329295D01*
X161801604Y-110258769D01*
X162004966Y-110155150D01*
X162189614Y-110020995D01*
X162350995Y-109859614D01*
X162485150Y-109674966D01*
X162588769Y-109471604D01*
X162659295Y-109254544D01*
X162695000Y-109029116D01*
X162695000Y-108515000D01*
X161845001Y-108515000D01*
X161870021Y-108454598D01*
X161895000Y-108329019D01*
X161895000Y-108200981D01*
X161870021Y-108075402D01*
X161845001Y-108015000D01*
X162582881Y-108015000D01*
X162649920Y-108034685D01*
X162670562Y-108051319D01*
X171343181Y-116723938D01*
X171376666Y-116785261D01*
X171379500Y-116811619D01*
X171379500Y-119368100D01*
X171359815Y-119435139D01*
X171307011Y-119480894D01*
X171302956Y-119482660D01*
X171264570Y-119498560D01*
X171264561Y-119498565D01*
X171074929Y-119608049D01*
X170901201Y-119741355D01*
X170901194Y-119741361D01*
X170746361Y-119896194D01*
X170746355Y-119896201D01*
X170613049Y-120069929D01*
X170503565Y-120259561D01*
X170503561Y-120259569D01*
X170503560Y-120259572D01*
X170468847Y-120343374D01*
X170419758Y-120461884D01*
X170363084Y-120673399D01*
X170363082Y-120673410D01*
X170334500Y-120890502D01*
X170334500Y-121109497D01*
X170343697Y-121179351D01*
X170363083Y-121326598D01*
X170363084Y-121326600D01*
X170417359Y-121529162D01*
X170419759Y-121538117D01*
X170503560Y-121740428D01*
X170503562Y-121740433D01*
X170503565Y-121740438D01*
X170613049Y-121930070D01*
X170746355Y-122103798D01*
X170746361Y-122103805D01*
X170901194Y-122258638D01*
X170901201Y-122258644D01*
X171074929Y-122391950D01*
X171264561Y-122501434D01*
X171264563Y-122501434D01*
X171264572Y-122501440D01*
X171466883Y-122585241D01*
X171678402Y-122641917D01*
X171895510Y-122670500D01*
X171895517Y-122670500D01*
X172114483Y-122670500D01*
X172114490Y-122670500D01*
X172331598Y-122641917D01*
X172543117Y-122585241D01*
X172745428Y-122501440D01*
X172935071Y-122391950D01*
X173108800Y-122258643D01*
X173263643Y-122103800D01*
X173396950Y-121930071D01*
X173506440Y-121740428D01*
X173590241Y-121538117D01*
X173646917Y-121326598D01*
X173675500Y-121109490D01*
X173675500Y-120890510D01*
X173646917Y-120673402D01*
X173590241Y-120461883D01*
X173506440Y-120259572D01*
X173396950Y-120069929D01*
X173343969Y-120000883D01*
X173263644Y-119896201D01*
X173263638Y-119896194D01*
X173108805Y-119741361D01*
X173108798Y-119741355D01*
X172935070Y-119608049D01*
X172745438Y-119498565D01*
X172745429Y-119498560D01*
X172707044Y-119482660D01*
X172652642Y-119438817D01*
X172630579Y-119372522D01*
X172630500Y-119368100D01*
X172630500Y-116439563D01*
X172630500Y-116439561D01*
X172606463Y-116318715D01*
X172606461Y-116318710D01*
X172588505Y-116275360D01*
X172588501Y-116275352D01*
X172586932Y-116271564D01*
X172559312Y-116204882D01*
X172542256Y-116179357D01*
X172490858Y-116102434D01*
X172490856Y-116102431D01*
X172400637Y-116012212D01*
X172400606Y-116012183D01*
X169266192Y-112877769D01*
X169232707Y-112816446D01*
X169237691Y-112746754D01*
X169279563Y-112690821D01*
X169345027Y-112666404D01*
X169370055Y-112667148D01*
X169395510Y-112670500D01*
X169395517Y-112670500D01*
X169614483Y-112670500D01*
X169614490Y-112670500D01*
X169831598Y-112641917D01*
X170043117Y-112585241D01*
X170245428Y-112501440D01*
X170435071Y-112391950D01*
X170608800Y-112258643D01*
X170763643Y-112103800D01*
X170896950Y-111930071D01*
X171006440Y-111740428D01*
X171090241Y-111538117D01*
X171146917Y-111326598D01*
X171175500Y-111109490D01*
X171175500Y-110890510D01*
X171175499Y-110890502D01*
X172834500Y-110890502D01*
X172834500Y-111109497D01*
X172851525Y-111238807D01*
X172863083Y-111326598D01*
X172919759Y-111538117D01*
X173003560Y-111740428D01*
X173003562Y-111740433D01*
X173003565Y-111740438D01*
X173113049Y-111930070D01*
X173246355Y-112103798D01*
X173246361Y-112103805D01*
X173401194Y-112258638D01*
X173401201Y-112258644D01*
X173574929Y-112391950D01*
X173764561Y-112501434D01*
X173764563Y-112501434D01*
X173764572Y-112501440D01*
X173966883Y-112585241D01*
X174178402Y-112641917D01*
X174395510Y-112670500D01*
X174395517Y-112670500D01*
X174614483Y-112670500D01*
X174614490Y-112670500D01*
X174831598Y-112641917D01*
X175043117Y-112585241D01*
X175245428Y-112501440D01*
X175435071Y-112391950D01*
X175608800Y-112258643D01*
X175763643Y-112103800D01*
X175896950Y-111930071D01*
X176006440Y-111740428D01*
X176090241Y-111538117D01*
X176146917Y-111326598D01*
X176175500Y-111109490D01*
X176175500Y-110890510D01*
X176146917Y-110673402D01*
X176090241Y-110461883D01*
X176006440Y-110259572D01*
X176005976Y-110258769D01*
X175896950Y-110069929D01*
X175763644Y-109896201D01*
X175763638Y-109896194D01*
X175608805Y-109741361D01*
X175608798Y-109741355D01*
X175435070Y-109608049D01*
X175245438Y-109498565D01*
X175245433Y-109498562D01*
X175245428Y-109498560D01*
X175043117Y-109414759D01*
X175043118Y-109414759D01*
X175043115Y-109414758D01*
X174937357Y-109386421D01*
X174831598Y-109358083D01*
X174795314Y-109353306D01*
X174614497Y-109329500D01*
X174614490Y-109329500D01*
X174395510Y-109329500D01*
X174395502Y-109329500D01*
X174188853Y-109356707D01*
X174178402Y-109358083D01*
X174133699Y-109370060D01*
X173966884Y-109414758D01*
X173848374Y-109463847D01*
X173764572Y-109498560D01*
X173764569Y-109498561D01*
X173764561Y-109498565D01*
X173574929Y-109608049D01*
X173401201Y-109741355D01*
X173401194Y-109741361D01*
X173246361Y-109896194D01*
X173246355Y-109896201D01*
X173113049Y-110069929D01*
X173003565Y-110259561D01*
X173003560Y-110259573D01*
X172919758Y-110461884D01*
X172863084Y-110673399D01*
X172863082Y-110673410D01*
X172834500Y-110890502D01*
X171175499Y-110890502D01*
X171146917Y-110673402D01*
X171090241Y-110461883D01*
X171006440Y-110259572D01*
X171005976Y-110258769D01*
X170896950Y-110069929D01*
X170763644Y-109896201D01*
X170763638Y-109896194D01*
X170608805Y-109741361D01*
X170608798Y-109741355D01*
X170435070Y-109608049D01*
X170245438Y-109498565D01*
X170245433Y-109498562D01*
X170245428Y-109498560D01*
X170043117Y-109414759D01*
X170043118Y-109414759D01*
X170043115Y-109414758D01*
X169896650Y-109375513D01*
X169849906Y-109362988D01*
X169790246Y-109326624D01*
X169759717Y-109263777D01*
X169758000Y-109243214D01*
X169758000Y-108809343D01*
X169777685Y-108742304D01*
X169830489Y-108696549D01*
X169899647Y-108686605D01*
X169938296Y-108698859D01*
X169950774Y-108705217D01*
X169950777Y-108705217D01*
X169950781Y-108705220D01*
X170064914Y-108742304D01*
X170145465Y-108768477D01*
X170246557Y-108784488D01*
X170347648Y-108800500D01*
X170347649Y-108800500D01*
X170552351Y-108800500D01*
X170552352Y-108800500D01*
X170754534Y-108768477D01*
X170949219Y-108705220D01*
X171131610Y-108612287D01*
X171224590Y-108544732D01*
X171297213Y-108491971D01*
X171297215Y-108491968D01*
X171297219Y-108491966D01*
X171441966Y-108347219D01*
X171441968Y-108347215D01*
X171441971Y-108347213D01*
X171548213Y-108200981D01*
X171562287Y-108181610D01*
X171655220Y-107999219D01*
X171718477Y-107804534D01*
X171750500Y-107602352D01*
X171750500Y-107397648D01*
X174149500Y-107397648D01*
X174149500Y-107602351D01*
X174181522Y-107804534D01*
X174244781Y-107999223D01*
X174337715Y-108181613D01*
X174458028Y-108347213D01*
X174602786Y-108491971D01*
X174714164Y-108572890D01*
X174768390Y-108612287D01*
X174884607Y-108671503D01*
X174950776Y-108705218D01*
X174950778Y-108705218D01*
X174950781Y-108705220D01*
X175055137Y-108739127D01*
X175145465Y-108768477D01*
X175246557Y-108784488D01*
X175347648Y-108800500D01*
X175347649Y-108800500D01*
X175552351Y-108800500D01*
X175552352Y-108800500D01*
X175754534Y-108768477D01*
X175949219Y-108705220D01*
X176131610Y-108612287D01*
X176224590Y-108544732D01*
X176297213Y-108491971D01*
X176297215Y-108491968D01*
X176297219Y-108491966D01*
X176441966Y-108347219D01*
X176441968Y-108347215D01*
X176441971Y-108347213D01*
X176548213Y-108200981D01*
X176562287Y-108181610D01*
X176655220Y-107999219D01*
X176718477Y-107804534D01*
X176750500Y-107602352D01*
X176750500Y-107397648D01*
X176718477Y-107195466D01*
X176655220Y-107000781D01*
X176655218Y-107000778D01*
X176655218Y-107000776D01*
X176621503Y-106934607D01*
X176562287Y-106818390D01*
X176554556Y-106807749D01*
X176441971Y-106652786D01*
X176297213Y-106508028D01*
X176131613Y-106387715D01*
X176131612Y-106387714D01*
X176131610Y-106387713D01*
X176039238Y-106340647D01*
X175949223Y-106294781D01*
X175754534Y-106231522D01*
X175559947Y-106200703D01*
X175552352Y-106199500D01*
X175347648Y-106199500D01*
X175340053Y-106200703D01*
X175145465Y-106231522D01*
X174950776Y-106294781D01*
X174768386Y-106387715D01*
X174602786Y-106508028D01*
X174458028Y-106652786D01*
X174337715Y-106818386D01*
X174244781Y-107000776D01*
X174181522Y-107195465D01*
X174149500Y-107397648D01*
X171750500Y-107397648D01*
X171718477Y-107195466D01*
X171655220Y-107000781D01*
X171655218Y-107000778D01*
X171655218Y-107000776D01*
X171621503Y-106934607D01*
X171562287Y-106818390D01*
X171554556Y-106807749D01*
X171441971Y-106652786D01*
X171297213Y-106508028D01*
X171131613Y-106387715D01*
X171131612Y-106387714D01*
X171131610Y-106387713D01*
X171039238Y-106340647D01*
X170949223Y-106294781D01*
X170754534Y-106231522D01*
X170559947Y-106200703D01*
X170552352Y-106199500D01*
X170347648Y-106199500D01*
X170340053Y-106200703D01*
X170145465Y-106231522D01*
X169950775Y-106294782D01*
X169938291Y-106301143D01*
X169869621Y-106314037D01*
X169804882Y-106287758D01*
X169764627Y-106230650D01*
X169758000Y-106190656D01*
X169758000Y-103809343D01*
X169777685Y-103742304D01*
X169830489Y-103696549D01*
X169899647Y-103686605D01*
X169938296Y-103698859D01*
X169950774Y-103705217D01*
X169950777Y-103705217D01*
X169950781Y-103705220D01*
X170064914Y-103742304D01*
X170145465Y-103768477D01*
X170246557Y-103784488D01*
X170347648Y-103800500D01*
X170347649Y-103800500D01*
X170552351Y-103800500D01*
X170552352Y-103800500D01*
X170754534Y-103768477D01*
X170949219Y-103705220D01*
X171131610Y-103612287D01*
X171224590Y-103544732D01*
X171297213Y-103491971D01*
X171297215Y-103491968D01*
X171297219Y-103491966D01*
X171441966Y-103347219D01*
X171441968Y-103347215D01*
X171441971Y-103347213D01*
X171494732Y-103274590D01*
X171562287Y-103181610D01*
X171655220Y-102999219D01*
X171718477Y-102804534D01*
X171750500Y-102602352D01*
X171750500Y-102397682D01*
X174150000Y-102397682D01*
X174150000Y-102602317D01*
X174182009Y-102804417D01*
X174245244Y-102999031D01*
X174338141Y-103181350D01*
X174338147Y-103181359D01*
X174370523Y-103225921D01*
X174370524Y-103225922D01*
X175050000Y-102546446D01*
X175050000Y-102552661D01*
X175077259Y-102654394D01*
X175129920Y-102745606D01*
X175204394Y-102820080D01*
X175295606Y-102872741D01*
X175397339Y-102900000D01*
X175403553Y-102900000D01*
X174724076Y-103579474D01*
X174768650Y-103611859D01*
X174950968Y-103704755D01*
X175145582Y-103767990D01*
X175347683Y-103800000D01*
X175552317Y-103800000D01*
X175754417Y-103767990D01*
X175949031Y-103704755D01*
X176131349Y-103611859D01*
X176175921Y-103579474D01*
X175496447Y-102900000D01*
X175502661Y-102900000D01*
X175604394Y-102872741D01*
X175695606Y-102820080D01*
X175770080Y-102745606D01*
X175822741Y-102654394D01*
X175850000Y-102552661D01*
X175850000Y-102546447D01*
X176529474Y-103225921D01*
X176561859Y-103181349D01*
X176654755Y-102999031D01*
X176717990Y-102804417D01*
X176750000Y-102602317D01*
X176750000Y-102397682D01*
X176717990Y-102195582D01*
X176654755Y-102000968D01*
X176561859Y-101818650D01*
X176529474Y-101774077D01*
X176529474Y-101774076D01*
X175850000Y-102453551D01*
X175850000Y-102447339D01*
X175822741Y-102345606D01*
X175770080Y-102254394D01*
X175695606Y-102179920D01*
X175604394Y-102127259D01*
X175502661Y-102100000D01*
X175496446Y-102100000D01*
X176175922Y-101420524D01*
X176175921Y-101420523D01*
X176131359Y-101388147D01*
X176131350Y-101388141D01*
X175949031Y-101295244D01*
X175754417Y-101232009D01*
X175552317Y-101200000D01*
X175347683Y-101200000D01*
X175145582Y-101232009D01*
X174950968Y-101295244D01*
X174768644Y-101388143D01*
X174724077Y-101420523D01*
X174724077Y-101420524D01*
X175403554Y-102100000D01*
X175397339Y-102100000D01*
X175295606Y-102127259D01*
X175204394Y-102179920D01*
X175129920Y-102254394D01*
X175077259Y-102345606D01*
X175050000Y-102447339D01*
X175050000Y-102453553D01*
X174370524Y-101774077D01*
X174370523Y-101774077D01*
X174338143Y-101818644D01*
X174245244Y-102000968D01*
X174182009Y-102195582D01*
X174150000Y-102397682D01*
X171750500Y-102397682D01*
X171750500Y-102397648D01*
X171742257Y-102345606D01*
X171718477Y-102195465D01*
X171670520Y-102047870D01*
X171655220Y-102000781D01*
X171655218Y-102000778D01*
X171655218Y-102000776D01*
X171562419Y-101818650D01*
X171562287Y-101818390D01*
X171530092Y-101774077D01*
X171441971Y-101652786D01*
X171297217Y-101508032D01*
X171297212Y-101508028D01*
X171136615Y-101391348D01*
X171093949Y-101336018D01*
X171085500Y-101291030D01*
X171085500Y-100354499D01*
X171105185Y-100287460D01*
X171157989Y-100241705D01*
X171209500Y-100230499D01*
X171460371Y-100230499D01*
X171460372Y-100230499D01*
X171519983Y-100224091D01*
X171654831Y-100173796D01*
X171770046Y-100087546D01*
X171856296Y-99972331D01*
X171866690Y-99944460D01*
X171908560Y-99888527D01*
X171974023Y-99864108D01*
X172042297Y-99878958D01*
X172055746Y-99887465D01*
X172238462Y-100020217D01*
X172370599Y-100087544D01*
X172442244Y-100124049D01*
X172659751Y-100194721D01*
X172659752Y-100194721D01*
X172659755Y-100194722D01*
X172885646Y-100230500D01*
X172885647Y-100230500D01*
X173114353Y-100230500D01*
X173114354Y-100230500D01*
X173340245Y-100194722D01*
X173340248Y-100194721D01*
X173340249Y-100194721D01*
X173557755Y-100124049D01*
X173557755Y-100124048D01*
X173557758Y-100124048D01*
X173761538Y-100020217D01*
X173946566Y-99885786D01*
X174108286Y-99724066D01*
X174169992Y-99639134D01*
X174225319Y-99596470D01*
X174294932Y-99590491D01*
X174356727Y-99623096D01*
X174370626Y-99639135D01*
X174432097Y-99723741D01*
X174432097Y-99723742D01*
X174593757Y-99885402D01*
X174778723Y-100019788D01*
X174982429Y-100123582D01*
X175199871Y-100194234D01*
X175290000Y-100208509D01*
X175290000Y-99220747D01*
X175327708Y-99242518D01*
X175467591Y-99280000D01*
X175612409Y-99280000D01*
X175752292Y-99242518D01*
X175790000Y-99220747D01*
X175790000Y-100208508D01*
X175880128Y-100194234D01*
X176097570Y-100123582D01*
X176301276Y-100019788D01*
X176486242Y-99885402D01*
X176647902Y-99723742D01*
X176782288Y-99538776D01*
X176886082Y-99335070D01*
X176956734Y-99117628D01*
X176978532Y-98980000D01*
X176030748Y-98980000D01*
X176052518Y-98942292D01*
X176090000Y-98802409D01*
X176090000Y-98657591D01*
X176052518Y-98517708D01*
X176030748Y-98480000D01*
X176978532Y-98480000D01*
X176956734Y-98342371D01*
X176886082Y-98124929D01*
X176782288Y-97921223D01*
X176647902Y-97736257D01*
X176486242Y-97574597D01*
X176301276Y-97440211D01*
X176097568Y-97336417D01*
X175880124Y-97265765D01*
X175790000Y-97251490D01*
X175790000Y-98239252D01*
X175752292Y-98217482D01*
X175612409Y-98180000D01*
X175467591Y-98180000D01*
X175327708Y-98217482D01*
X175290000Y-98239252D01*
X175290000Y-97251490D01*
X175289999Y-97251490D01*
X175199875Y-97265765D01*
X174982431Y-97336417D01*
X174778723Y-97440211D01*
X174593757Y-97574597D01*
X174432097Y-97736257D01*
X174370627Y-97820864D01*
X174315297Y-97863529D01*
X174245684Y-97869508D01*
X174183889Y-97836902D01*
X174169991Y-97820864D01*
X174164912Y-97813873D01*
X174108286Y-97735934D01*
X173946566Y-97574214D01*
X173761538Y-97439783D01*
X173698273Y-97407548D01*
X173557755Y-97335950D01*
X173340249Y-97265278D01*
X173340246Y-97265278D01*
X173154818Y-97235909D01*
X173114354Y-97229500D01*
X172885646Y-97229500D01*
X172845188Y-97235908D01*
X172659753Y-97265278D01*
X172659750Y-97265278D01*
X172442244Y-97335950D01*
X172238461Y-97439783D01*
X172055759Y-97572525D01*
X171989952Y-97596005D01*
X171921898Y-97580180D01*
X171873203Y-97530074D01*
X171866690Y-97515538D01*
X171862160Y-97503393D01*
X171856296Y-97487669D01*
X171856293Y-97487664D01*
X171770047Y-97372455D01*
X171770044Y-97372452D01*
X171654835Y-97286206D01*
X171654828Y-97286202D01*
X171519982Y-97235908D01*
X171519983Y-97235908D01*
X171460383Y-97229501D01*
X171460381Y-97229500D01*
X171460373Y-97229500D01*
X171460365Y-97229500D01*
X171209500Y-97229500D01*
X171142461Y-97209815D01*
X171096706Y-97157011D01*
X171085500Y-97105500D01*
X171085500Y-83217763D01*
X171105185Y-83150724D01*
X171157989Y-83104969D01*
X171227147Y-83095025D01*
X171290703Y-83124050D01*
X171316888Y-83155764D01*
X171333077Y-83183805D01*
X171492718Y-83391851D01*
X171492726Y-83391860D01*
X171678140Y-83577274D01*
X171678148Y-83577281D01*
X171886196Y-83736924D01*
X172113299Y-83868041D01*
X172113309Y-83868046D01*
X172321719Y-83954372D01*
X172355581Y-83968398D01*
X172608884Y-84036270D01*
X172868880Y-84070500D01*
X172868887Y-84070500D01*
X173131113Y-84070500D01*
X173131120Y-84070500D01*
X173391116Y-84036270D01*
X173644419Y-83968398D01*
X173886697Y-83868043D01*
X174113803Y-83736924D01*
X174321851Y-83577282D01*
X174321855Y-83577277D01*
X174321860Y-83577274D01*
X174507274Y-83391860D01*
X174507277Y-83391855D01*
X174507282Y-83391851D01*
X174666924Y-83183803D01*
X174798043Y-82956697D01*
X174898398Y-82714419D01*
X174966270Y-82461116D01*
X175000500Y-82201120D01*
X175000500Y-81938880D01*
X174966270Y-81678884D01*
X174898398Y-81425581D01*
X174861129Y-81335605D01*
X174798046Y-81183309D01*
X174798041Y-81183299D01*
X174666924Y-80956196D01*
X174544424Y-80796554D01*
X174507282Y-80748149D01*
X174507281Y-80748148D01*
X174507274Y-80748140D01*
X174321860Y-80562726D01*
X174321851Y-80562718D01*
X174113803Y-80403075D01*
X173886700Y-80271958D01*
X173886690Y-80271953D01*
X173644428Y-80171605D01*
X173644421Y-80171603D01*
X173644419Y-80171602D01*
X173391116Y-80103730D01*
X173333339Y-80096123D01*
X173131127Y-80069500D01*
X173131120Y-80069500D01*
X172868880Y-80069500D01*
X172868872Y-80069500D01*
X172637772Y-80099926D01*
X172608884Y-80103730D01*
X172445759Y-80147439D01*
X172355581Y-80171602D01*
X172355571Y-80171605D01*
X172113309Y-80271953D01*
X172113299Y-80271958D01*
X171886196Y-80403075D01*
X171678148Y-80562718D01*
X171492718Y-80748148D01*
X171333077Y-80956193D01*
X171316887Y-80984237D01*
X171266319Y-81032452D01*
X171197712Y-81045674D01*
X171132848Y-81019706D01*
X171092320Y-80962792D01*
X171085500Y-80922236D01*
X171085500Y-80350452D01*
X171105185Y-80283413D01*
X171121819Y-80262771D01*
X174386942Y-76997648D01*
X175699500Y-76997648D01*
X175699500Y-77202351D01*
X175731522Y-77404534D01*
X175794781Y-77599223D01*
X175887715Y-77781613D01*
X176008028Y-77947213D01*
X176152786Y-78091971D01*
X176307749Y-78204556D01*
X176318390Y-78212287D01*
X176434607Y-78271503D01*
X176500776Y-78305218D01*
X176500778Y-78305218D01*
X176500781Y-78305220D01*
X176605137Y-78339127D01*
X176695465Y-78368477D01*
X176796557Y-78384488D01*
X176897648Y-78400500D01*
X176897649Y-78400500D01*
X177102351Y-78400500D01*
X177102352Y-78400500D01*
X177304534Y-78368477D01*
X177499219Y-78305220D01*
X177681610Y-78212287D01*
X177774590Y-78144732D01*
X177847213Y-78091971D01*
X177847215Y-78091968D01*
X177847219Y-78091966D01*
X177991966Y-77947219D01*
X177991968Y-77947215D01*
X177991971Y-77947213D01*
X178044732Y-77874590D01*
X178112287Y-77781610D01*
X178205220Y-77599219D01*
X178268477Y-77404534D01*
X178300500Y-77202352D01*
X178300500Y-76997648D01*
X178268477Y-76795466D01*
X178205220Y-76600781D01*
X178205218Y-76600778D01*
X178205218Y-76600776D01*
X178148701Y-76489857D01*
X178112287Y-76418390D01*
X178093012Y-76391860D01*
X177991971Y-76252786D01*
X177847213Y-76108028D01*
X177681613Y-75987715D01*
X177681612Y-75987714D01*
X177681610Y-75987713D01*
X177620724Y-75956690D01*
X177499223Y-75894781D01*
X177304534Y-75831522D01*
X177129995Y-75803878D01*
X177102352Y-75799500D01*
X176897648Y-75799500D01*
X176873329Y-75803351D01*
X176695465Y-75831522D01*
X176500776Y-75894781D01*
X176318386Y-75987715D01*
X176152786Y-76108028D01*
X176008028Y-76252786D01*
X175887715Y-76418386D01*
X175794781Y-76600776D01*
X175731522Y-76795465D01*
X175699500Y-76997648D01*
X174386942Y-76997648D01*
X176547772Y-74836818D01*
X176609095Y-74803333D01*
X176635453Y-74800499D01*
X177600002Y-74800499D01*
X177600008Y-74800499D01*
X177702797Y-74789999D01*
X177869334Y-74734814D01*
X178018656Y-74642712D01*
X178142712Y-74518656D01*
X178234814Y-74369334D01*
X178289999Y-74202797D01*
X178300500Y-74100009D01*
X178300499Y-72899992D01*
X178289999Y-72797203D01*
X178234814Y-72630666D01*
X178142712Y-72481344D01*
X178018656Y-72357288D01*
X177869334Y-72265186D01*
X177702797Y-72210001D01*
X177702795Y-72210000D01*
X177600010Y-72199500D01*
X176399998Y-72199500D01*
X176399981Y-72199501D01*
X176297203Y-72210000D01*
X176297200Y-72210001D01*
X176130668Y-72265185D01*
X176130663Y-72265187D01*
X175981342Y-72357289D01*
X175857289Y-72481342D01*
X175765187Y-72630663D01*
X175765186Y-72630666D01*
X175712551Y-72789506D01*
X175672781Y-72846949D01*
X175608265Y-72873772D01*
X175594847Y-72874500D01*
X172373846Y-72874500D01*
X172306807Y-72854815D01*
X172300961Y-72850818D01*
X172234025Y-72802187D01*
X172234024Y-72802186D01*
X172234022Y-72802185D01*
X172132586Y-72750500D01*
X172037606Y-72702104D01*
X172037603Y-72702103D01*
X171827952Y-72633985D01*
X171719086Y-72616742D01*
X171610222Y-72599500D01*
X171389778Y-72599500D01*
X171317201Y-72610995D01*
X171172047Y-72633985D01*
X170962396Y-72702103D01*
X170962393Y-72702104D01*
X170765974Y-72802187D01*
X170587641Y-72931752D01*
X170587636Y-72931756D01*
X170431756Y-73087636D01*
X170431752Y-73087641D01*
X170302187Y-73265974D01*
X170202104Y-73462393D01*
X170202103Y-73462396D01*
X170133985Y-73672047D01*
X170121933Y-73748140D01*
X170099500Y-73889778D01*
X170099500Y-74110222D01*
X170116742Y-74219086D01*
X170133985Y-74327952D01*
X170202103Y-74537603D01*
X170202104Y-74537606D01*
X170240157Y-74612287D01*
X170287509Y-74705220D01*
X170302187Y-74734025D01*
X170431752Y-74912358D01*
X170431756Y-74912363D01*
X170481928Y-74962535D01*
X170515413Y-75023858D01*
X170510429Y-75093550D01*
X170468557Y-75149483D01*
X170437581Y-75166398D01*
X170357669Y-75196203D01*
X170357664Y-75196206D01*
X170242455Y-75282452D01*
X170242452Y-75282455D01*
X170156206Y-75397664D01*
X170156202Y-75397671D01*
X170105908Y-75532517D01*
X170099501Y-75592116D01*
X170099501Y-75592123D01*
X170099500Y-75592135D01*
X170099500Y-77004547D01*
X170079815Y-77071586D01*
X170063181Y-77092228D01*
X169817229Y-77338181D01*
X169755906Y-77371666D01*
X169729548Y-77374500D01*
X158890452Y-77374500D01*
X158823413Y-77354815D01*
X158802771Y-77338181D01*
X156403462Y-74938872D01*
X159999500Y-74938872D01*
X159999500Y-75201127D01*
X160010208Y-75282454D01*
X160033730Y-75461116D01*
X160081814Y-75640568D01*
X160101602Y-75714418D01*
X160101605Y-75714428D01*
X160201953Y-75956690D01*
X160201958Y-75956700D01*
X160333075Y-76183803D01*
X160492718Y-76391851D01*
X160492726Y-76391860D01*
X160678140Y-76577274D01*
X160678148Y-76577281D01*
X160886196Y-76736924D01*
X161113299Y-76868041D01*
X161113309Y-76868046D01*
X161355571Y-76968394D01*
X161355581Y-76968398D01*
X161608884Y-77036270D01*
X161868880Y-77070500D01*
X161868887Y-77070500D01*
X162131113Y-77070500D01*
X162131120Y-77070500D01*
X162391116Y-77036270D01*
X162644419Y-76968398D01*
X162886697Y-76868043D01*
X163113803Y-76736924D01*
X163321851Y-76577282D01*
X163321855Y-76577277D01*
X163321860Y-76577274D01*
X163507274Y-76391860D01*
X163507277Y-76391855D01*
X163507282Y-76391851D01*
X163666924Y-76183803D01*
X163798043Y-75956697D01*
X163898398Y-75714419D01*
X163966270Y-75461116D01*
X164000500Y-75201120D01*
X164000500Y-74938880D01*
X163966270Y-74678884D01*
X163898398Y-74425581D01*
X163875100Y-74369334D01*
X163798046Y-74183309D01*
X163798041Y-74183299D01*
X163666924Y-73956196D01*
X163507281Y-73748148D01*
X163507274Y-73748140D01*
X163321860Y-73562726D01*
X163321851Y-73562718D01*
X163113803Y-73403075D01*
X162886700Y-73271958D01*
X162886690Y-73271953D01*
X162644428Y-73171605D01*
X162644421Y-73171603D01*
X162644419Y-73171602D01*
X162391116Y-73103730D01*
X162333339Y-73096123D01*
X162131127Y-73069500D01*
X162131120Y-73069500D01*
X161868880Y-73069500D01*
X161868872Y-73069500D01*
X161637772Y-73099926D01*
X161608884Y-73103730D01*
X161490044Y-73135573D01*
X161355581Y-73171602D01*
X161355571Y-73171605D01*
X161113309Y-73271953D01*
X161113299Y-73271958D01*
X160886196Y-73403075D01*
X160678148Y-73562718D01*
X160492718Y-73748148D01*
X160333075Y-73956196D01*
X160201958Y-74183299D01*
X160201953Y-74183309D01*
X160101605Y-74425571D01*
X160101602Y-74425581D01*
X160051576Y-74612284D01*
X160033730Y-74678885D01*
X159999500Y-74938872D01*
X156403462Y-74938872D01*
X155540829Y-74076239D01*
X155507344Y-74014916D01*
X155510579Y-73950240D01*
X155526903Y-73900000D01*
X155561090Y-73794785D01*
X155600500Y-73545962D01*
X155600500Y-73294038D01*
X155561090Y-73045215D01*
X155483241Y-72805621D01*
X155483239Y-72805618D01*
X155483239Y-72805616D01*
X155430497Y-72702105D01*
X155368870Y-72581155D01*
X155305180Y-72493493D01*
X155220798Y-72377350D01*
X155220794Y-72377345D01*
X155042654Y-72199205D01*
X155042649Y-72199201D01*
X154838848Y-72051132D01*
X154838847Y-72051131D01*
X154838845Y-72051130D01*
X154768747Y-72015413D01*
X154614383Y-71936760D01*
X154374785Y-71858910D01*
X154125962Y-71819500D01*
X153874038Y-71819500D01*
X153749626Y-71839205D01*
X153625214Y-71858910D01*
X153385616Y-71936760D01*
X153161151Y-72051132D01*
X152957350Y-72199201D01*
X152957345Y-72199205D01*
X152779205Y-72377345D01*
X152779201Y-72377350D01*
X152631132Y-72581151D01*
X152516758Y-72805620D01*
X152497742Y-72864146D01*
X152458304Y-72921821D01*
X152393945Y-72949018D01*
X152325099Y-72937103D01*
X152292131Y-72913507D01*
X151766771Y-72388147D01*
X151104894Y-71726269D01*
X151104892Y-71726267D01*
X151090806Y-71712181D01*
X151057321Y-71650858D01*
X151062305Y-71581166D01*
X151104177Y-71525233D01*
X151169641Y-71500816D01*
X151178487Y-71500500D01*
X176934108Y-71500500D01*
X176995933Y-71500500D01*
X177004043Y-71500765D01*
X177252895Y-71517075D01*
X177268953Y-71519190D01*
X177476105Y-71560395D01*
X177509535Y-71567045D01*
X177525202Y-71571243D01*
X177694947Y-71628863D01*
X177757481Y-71650091D01*
X177772458Y-71656294D01*
X177981799Y-71759529D01*
X177992460Y-71764787D01*
X178006506Y-71772897D01*
X178210460Y-71909174D01*
X178223325Y-71919045D01*
X178335844Y-72017722D01*
X178407749Y-72080781D01*
X178419218Y-72092250D01*
X178511767Y-72197781D01*
X178570880Y-72265187D01*
X178580951Y-72276670D01*
X178590825Y-72289539D01*
X178727102Y-72493493D01*
X178735212Y-72507539D01*
X178843702Y-72727534D01*
X178849909Y-72742520D01*
X178928756Y-72974797D01*
X178932954Y-72990464D01*
X178980807Y-73231035D01*
X178982925Y-73247116D01*
X178999235Y-73495956D01*
X178999500Y-73504066D01*
X178999500Y-120995933D01*
X178999235Y-121004043D01*
X178982925Y-121252883D01*
X178980807Y-121268964D01*
X178932954Y-121509535D01*
X178928756Y-121525202D01*
X178849909Y-121757479D01*
X178843702Y-121772465D01*
X178735212Y-121992460D01*
X178727102Y-122006506D01*
X178590825Y-122210460D01*
X178580951Y-122223329D01*
X178419218Y-122407749D01*
X178407749Y-122419218D01*
X178223329Y-122580951D01*
X178210460Y-122590825D01*
X178006506Y-122727102D01*
X177992460Y-122735212D01*
X177772465Y-122843702D01*
X177757479Y-122849909D01*
X177525202Y-122928756D01*
X177509535Y-122932954D01*
X177268964Y-122980807D01*
X177252883Y-122982925D01*
X177004043Y-122999235D01*
X176995933Y-122999500D01*
X161843617Y-122999500D01*
X161776578Y-122979815D01*
X161730823Y-122927011D01*
X161720879Y-122857853D01*
X161749904Y-122794297D01*
X161797874Y-122762493D01*
X161797104Y-122760634D01*
X161801601Y-122758771D01*
X162004966Y-122655150D01*
X162189614Y-122520995D01*
X162350995Y-122359614D01*
X162485150Y-122174966D01*
X162588769Y-121971604D01*
X162659295Y-121754544D01*
X162695000Y-121529116D01*
X162695000Y-121015000D01*
X161845001Y-121015000D01*
X161870021Y-120954598D01*
X161895000Y-120829019D01*
X161895000Y-120700981D01*
X161870021Y-120575402D01*
X161845001Y-120515000D01*
X162695000Y-120515000D01*
X162695000Y-120000883D01*
X162659295Y-119775455D01*
X162588769Y-119558395D01*
X162485150Y-119355033D01*
X162350995Y-119170385D01*
X162189614Y-119009004D01*
X162004966Y-118874849D01*
X161801602Y-118771229D01*
X161584541Y-118700703D01*
X161495000Y-118686521D01*
X161495000Y-120164998D01*
X161434598Y-120139979D01*
X161309019Y-120115000D01*
X161180981Y-120115000D01*
X161055402Y-120139979D01*
X160995000Y-120164998D01*
X160995000Y-118686521D01*
X160994999Y-118686521D01*
X160905458Y-118700703D01*
X160688397Y-118771229D01*
X160485033Y-118874849D01*
X160300385Y-119009004D01*
X160139004Y-119170385D01*
X160004849Y-119355033D01*
X159901230Y-119558395D01*
X159830704Y-119775455D01*
X159795000Y-120000883D01*
X159795000Y-120515000D01*
X160644999Y-120515000D01*
X160619979Y-120575402D01*
X160595000Y-120700981D01*
X160595000Y-120829019D01*
X160619979Y-120954598D01*
X160644999Y-121015000D01*
X159795000Y-121015000D01*
X159795000Y-121529116D01*
X159830704Y-121754544D01*
X159901230Y-121971604D01*
X160004849Y-122174966D01*
X160139004Y-122359614D01*
X160300385Y-122520995D01*
X160485033Y-122655150D01*
X160688398Y-122758771D01*
X160692896Y-122760634D01*
X160692075Y-122762613D01*
X160742371Y-122797000D01*
X160769574Y-122861356D01*
X160757664Y-122930203D01*
X160710424Y-122981683D01*
X160646383Y-122999500D01*
X156845128Y-122999500D01*
X156778089Y-122979815D01*
X156732334Y-122927011D01*
X156722390Y-122857853D01*
X156751415Y-122794297D01*
X156797682Y-122760936D01*
X156801792Y-122759233D01*
X156801799Y-122759231D01*
X157005228Y-122655579D01*
X157189937Y-122521379D01*
X157351379Y-122359937D01*
X157485579Y-122175228D01*
X157589231Y-121971799D01*
X157659784Y-121754660D01*
X157662038Y-121740426D01*
X157695500Y-121529162D01*
X157695500Y-120000837D01*
X157659784Y-119775339D01*
X157605428Y-119608050D01*
X157589231Y-119558201D01*
X157589229Y-119558198D01*
X157589229Y-119558196D01*
X157492370Y-119368100D01*
X157485579Y-119354772D01*
X157351379Y-119170063D01*
X157189937Y-119008621D01*
X157005228Y-118874421D01*
X156801803Y-118770770D01*
X156584660Y-118700215D01*
X156359162Y-118664500D01*
X156359157Y-118664500D01*
X156130843Y-118664500D01*
X156130838Y-118664500D01*
X155905339Y-118700215D01*
X155688196Y-118770770D01*
X155484771Y-118874421D01*
X155300061Y-119008622D01*
X155138622Y-119170061D01*
X155004421Y-119354771D01*
X154900770Y-119558196D01*
X154830215Y-119775339D01*
X154794500Y-120000837D01*
X154794500Y-121529162D01*
X154830215Y-121754660D01*
X154900770Y-121971803D01*
X154968029Y-122103805D01*
X155004421Y-122175228D01*
X155138621Y-122359937D01*
X155300063Y-122521379D01*
X155484772Y-122655579D01*
X155641061Y-122735212D01*
X155688199Y-122759230D01*
X155692318Y-122760936D01*
X155746724Y-122804774D01*
X155768793Y-122871067D01*
X155751517Y-122938767D01*
X155700383Y-122986381D01*
X155644872Y-122999500D01*
X146293617Y-122999500D01*
X146226578Y-122979815D01*
X146180823Y-122927011D01*
X146170879Y-122857853D01*
X146199904Y-122794297D01*
X146247874Y-122762493D01*
X146247104Y-122760634D01*
X146251601Y-122758771D01*
X146454966Y-122655150D01*
X146639614Y-122520995D01*
X146800995Y-122359614D01*
X146935150Y-122174966D01*
X147038769Y-121971604D01*
X147109295Y-121754544D01*
X147145000Y-121529116D01*
X147145000Y-121015000D01*
X146295001Y-121015000D01*
X146320021Y-120954598D01*
X146345000Y-120829019D01*
X146345000Y-120700981D01*
X146320021Y-120575402D01*
X146295001Y-120515000D01*
X147145000Y-120515000D01*
X147145000Y-120000883D01*
X147109295Y-119775455D01*
X147038769Y-119558395D01*
X146935150Y-119355033D01*
X146800995Y-119170385D01*
X146639614Y-119009004D01*
X146454966Y-118874849D01*
X146251602Y-118771229D01*
X146034541Y-118700703D01*
X145945000Y-118686521D01*
X145945000Y-120164998D01*
X145884598Y-120139979D01*
X145759019Y-120115000D01*
X145630981Y-120115000D01*
X145505402Y-120139979D01*
X145445000Y-120164998D01*
X145445000Y-118686521D01*
X145444999Y-118686521D01*
X145355458Y-118700703D01*
X145138397Y-118771229D01*
X144935033Y-118874849D01*
X144750385Y-119009004D01*
X144589004Y-119170385D01*
X144454849Y-119355033D01*
X144351230Y-119558395D01*
X144280704Y-119775455D01*
X144245000Y-120000883D01*
X144245000Y-120515000D01*
X145094999Y-120515000D01*
X145069979Y-120575402D01*
X145045000Y-120700981D01*
X145045000Y-120829019D01*
X145069979Y-120954598D01*
X145094999Y-121015000D01*
X144245000Y-121015000D01*
X144245000Y-121529116D01*
X144280704Y-121754544D01*
X144351230Y-121971604D01*
X144454849Y-122174966D01*
X144589004Y-122359614D01*
X144750385Y-122520995D01*
X144935033Y-122655150D01*
X145138398Y-122758771D01*
X145142896Y-122760634D01*
X145142075Y-122762613D01*
X145192371Y-122797000D01*
X145219574Y-122861356D01*
X145207664Y-122930203D01*
X145160424Y-122981683D01*
X145096383Y-122999500D01*
X141295128Y-122999500D01*
X141228089Y-122979815D01*
X141182334Y-122927011D01*
X141172390Y-122857853D01*
X141201415Y-122794297D01*
X141247682Y-122760936D01*
X141251792Y-122759233D01*
X141251799Y-122759231D01*
X141455228Y-122655579D01*
X141639937Y-122521379D01*
X141801379Y-122359937D01*
X141935579Y-122175228D01*
X142039231Y-121971799D01*
X142109784Y-121754660D01*
X142112038Y-121740426D01*
X142145500Y-121529162D01*
X142145500Y-120000837D01*
X142109784Y-119775339D01*
X142055428Y-119608050D01*
X142039231Y-119558201D01*
X142039229Y-119558198D01*
X142039229Y-119558196D01*
X141942370Y-119368100D01*
X141935579Y-119354772D01*
X141801379Y-119170063D01*
X141639937Y-119008621D01*
X141455228Y-118874421D01*
X141251803Y-118770770D01*
X141034660Y-118700215D01*
X140809162Y-118664500D01*
X140809157Y-118664500D01*
X140580843Y-118664500D01*
X140580838Y-118664500D01*
X140355339Y-118700215D01*
X140138196Y-118770770D01*
X139934771Y-118874421D01*
X139750061Y-119008622D01*
X139588622Y-119170061D01*
X139454421Y-119354771D01*
X139350770Y-119558196D01*
X139280215Y-119775339D01*
X139244500Y-120000837D01*
X139244500Y-121529162D01*
X139280215Y-121754660D01*
X139350770Y-121971803D01*
X139418029Y-122103805D01*
X139454421Y-122175228D01*
X139588621Y-122359937D01*
X139750063Y-122521379D01*
X139934772Y-122655579D01*
X140091061Y-122735212D01*
X140138199Y-122759230D01*
X140142318Y-122760936D01*
X140196724Y-122804774D01*
X140218793Y-122871067D01*
X140201517Y-122938767D01*
X140150383Y-122986381D01*
X140094872Y-122999500D01*
X130743617Y-122999500D01*
X130676578Y-122979815D01*
X130630823Y-122927011D01*
X130620879Y-122857853D01*
X130649904Y-122794297D01*
X130697874Y-122762493D01*
X130697104Y-122760634D01*
X130701601Y-122758771D01*
X130904966Y-122655150D01*
X131089614Y-122520995D01*
X131250995Y-122359614D01*
X131385150Y-122174966D01*
X131488769Y-121971604D01*
X131559295Y-121754544D01*
X131595000Y-121529116D01*
X131595000Y-121015000D01*
X130745001Y-121015000D01*
X130770021Y-120954598D01*
X130795000Y-120829019D01*
X130795000Y-120700981D01*
X130770021Y-120575402D01*
X130745001Y-120515000D01*
X131595000Y-120515000D01*
X131595000Y-120000883D01*
X131559295Y-119775455D01*
X131488769Y-119558395D01*
X131385150Y-119355033D01*
X131250995Y-119170385D01*
X131089614Y-119009004D01*
X130904966Y-118874849D01*
X130701602Y-118771229D01*
X130484541Y-118700703D01*
X130395000Y-118686521D01*
X130395000Y-120164998D01*
X130334598Y-120139979D01*
X130209019Y-120115000D01*
X130080981Y-120115000D01*
X129955402Y-120139979D01*
X129895000Y-120164998D01*
X129895000Y-118686521D01*
X129894999Y-118686521D01*
X129805458Y-118700703D01*
X129588397Y-118771229D01*
X129385033Y-118874849D01*
X129200385Y-119009004D01*
X129039004Y-119170385D01*
X128904849Y-119355033D01*
X128801230Y-119558395D01*
X128730704Y-119775455D01*
X128695000Y-120000883D01*
X128695000Y-120515000D01*
X129544999Y-120515000D01*
X129519979Y-120575402D01*
X129495000Y-120700981D01*
X129495000Y-120829019D01*
X129519979Y-120954598D01*
X129544999Y-121015000D01*
X128695000Y-121015000D01*
X128695000Y-121529116D01*
X128730704Y-121754544D01*
X128801230Y-121971604D01*
X128904849Y-122174966D01*
X129039004Y-122359614D01*
X129200385Y-122520995D01*
X129385033Y-122655150D01*
X129588398Y-122758771D01*
X129592896Y-122760634D01*
X129592075Y-122762613D01*
X129642371Y-122797000D01*
X129669574Y-122861356D01*
X129657664Y-122930203D01*
X129610424Y-122981683D01*
X129546383Y-122999500D01*
X125745128Y-122999500D01*
X125678089Y-122979815D01*
X125632334Y-122927011D01*
X125622390Y-122857853D01*
X125651415Y-122794297D01*
X125697682Y-122760936D01*
X125701792Y-122759233D01*
X125701799Y-122759231D01*
X125905228Y-122655579D01*
X126089937Y-122521379D01*
X126251379Y-122359937D01*
X126385579Y-122175228D01*
X126489231Y-121971799D01*
X126559784Y-121754660D01*
X126562038Y-121740426D01*
X126595500Y-121529162D01*
X126595500Y-120000837D01*
X126559784Y-119775339D01*
X126505428Y-119608050D01*
X126489231Y-119558201D01*
X126489229Y-119558198D01*
X126489229Y-119558196D01*
X126392370Y-119368100D01*
X126385579Y-119354772D01*
X126251379Y-119170063D01*
X126089937Y-119008621D01*
X125905228Y-118874421D01*
X125701803Y-118770770D01*
X125484660Y-118700215D01*
X125259162Y-118664500D01*
X125259157Y-118664500D01*
X125030843Y-118664500D01*
X125030838Y-118664500D01*
X124805339Y-118700215D01*
X124588196Y-118770770D01*
X124384771Y-118874421D01*
X124200061Y-119008622D01*
X124038622Y-119170061D01*
X123904421Y-119354771D01*
X123800770Y-119558196D01*
X123730215Y-119775339D01*
X123694500Y-120000837D01*
X123694500Y-121529162D01*
X123730215Y-121754660D01*
X123800770Y-121971803D01*
X123868029Y-122103805D01*
X123904421Y-122175228D01*
X124038621Y-122359937D01*
X124200063Y-122521379D01*
X124384772Y-122655579D01*
X124541061Y-122735212D01*
X124588199Y-122759230D01*
X124592318Y-122760936D01*
X124646724Y-122804774D01*
X124668793Y-122871067D01*
X124651517Y-122938767D01*
X124600383Y-122986381D01*
X124544872Y-122999500D01*
X115193617Y-122999500D01*
X115126578Y-122979815D01*
X115080823Y-122927011D01*
X115070879Y-122857853D01*
X115099904Y-122794297D01*
X115147874Y-122762493D01*
X115147104Y-122760634D01*
X115151601Y-122758771D01*
X115354966Y-122655150D01*
X115539614Y-122520995D01*
X115700995Y-122359614D01*
X115835150Y-122174966D01*
X115938769Y-121971604D01*
X116009295Y-121754544D01*
X116045000Y-121529116D01*
X116045000Y-121015000D01*
X115195001Y-121015000D01*
X115220021Y-120954598D01*
X115245000Y-120829019D01*
X115245000Y-120700981D01*
X115220021Y-120575402D01*
X115195001Y-120515000D01*
X116045000Y-120515000D01*
X116045000Y-120000883D01*
X116009295Y-119775455D01*
X115938769Y-119558395D01*
X115835150Y-119355033D01*
X115700995Y-119170385D01*
X115539614Y-119009004D01*
X115354966Y-118874849D01*
X115151602Y-118771229D01*
X114934541Y-118700703D01*
X114845000Y-118686521D01*
X114845000Y-120164998D01*
X114784598Y-120139979D01*
X114659019Y-120115000D01*
X114530981Y-120115000D01*
X114405402Y-120139979D01*
X114345000Y-120164998D01*
X114345000Y-118686521D01*
X114344999Y-118686521D01*
X114255458Y-118700703D01*
X114038397Y-118771229D01*
X113835033Y-118874849D01*
X113650385Y-119009004D01*
X113489004Y-119170385D01*
X113354849Y-119355033D01*
X113251230Y-119558395D01*
X113180704Y-119775455D01*
X113145000Y-120000883D01*
X113145000Y-120515000D01*
X113994999Y-120515000D01*
X113969979Y-120575402D01*
X113945000Y-120700981D01*
X113945000Y-120829019D01*
X113969979Y-120954598D01*
X113994999Y-121015000D01*
X113145000Y-121015000D01*
X113145000Y-121529116D01*
X113180704Y-121754544D01*
X113251230Y-121971604D01*
X113354849Y-122174966D01*
X113489004Y-122359614D01*
X113650385Y-122520995D01*
X113835033Y-122655150D01*
X114038398Y-122758771D01*
X114042896Y-122760634D01*
X114042075Y-122762613D01*
X114092371Y-122797000D01*
X114119574Y-122861356D01*
X114107664Y-122930203D01*
X114060424Y-122981683D01*
X113996383Y-122999500D01*
X110195128Y-122999500D01*
X110128089Y-122979815D01*
X110082334Y-122927011D01*
X110072390Y-122857853D01*
X110101415Y-122794297D01*
X110147682Y-122760936D01*
X110151792Y-122759233D01*
X110151799Y-122759231D01*
X110355228Y-122655579D01*
X110539937Y-122521379D01*
X110701379Y-122359937D01*
X110835579Y-122175228D01*
X110939231Y-121971799D01*
X111009784Y-121754660D01*
X111012038Y-121740426D01*
X111045500Y-121529162D01*
X111045500Y-120000837D01*
X111009784Y-119775339D01*
X110955428Y-119608050D01*
X110939231Y-119558201D01*
X110939229Y-119558198D01*
X110939229Y-119558196D01*
X110842370Y-119368100D01*
X110835579Y-119354772D01*
X110701379Y-119170063D01*
X110539937Y-119008621D01*
X110355228Y-118874421D01*
X110151803Y-118770770D01*
X109934660Y-118700215D01*
X109709162Y-118664500D01*
X109709157Y-118664500D01*
X109480843Y-118664500D01*
X109480838Y-118664500D01*
X109255339Y-118700215D01*
X109038196Y-118770770D01*
X108834771Y-118874421D01*
X108650061Y-119008622D01*
X108488622Y-119170061D01*
X108354421Y-119354771D01*
X108250770Y-119558196D01*
X108180215Y-119775339D01*
X108144500Y-120000837D01*
X108144500Y-121529162D01*
X108180215Y-121754660D01*
X108250770Y-121971803D01*
X108318029Y-122103805D01*
X108354421Y-122175228D01*
X108488621Y-122359937D01*
X108650063Y-122521379D01*
X108834772Y-122655579D01*
X108991061Y-122735212D01*
X109038199Y-122759230D01*
X109042318Y-122760936D01*
X109096724Y-122804774D01*
X109118793Y-122871067D01*
X109101517Y-122938767D01*
X109050383Y-122986381D01*
X108994872Y-122999500D01*
X106504067Y-122999500D01*
X106495957Y-122999235D01*
X106247116Y-122982925D01*
X106231035Y-122980807D01*
X105990464Y-122932954D01*
X105974797Y-122928756D01*
X105742520Y-122849909D01*
X105727534Y-122843702D01*
X105507539Y-122735212D01*
X105493493Y-122727102D01*
X105289539Y-122590825D01*
X105276670Y-122580951D01*
X105092250Y-122419218D01*
X105080781Y-122407749D01*
X104950018Y-122258643D01*
X104919045Y-122223325D01*
X104909174Y-122210460D01*
X104772897Y-122006506D01*
X104764787Y-121992460D01*
X104658855Y-121777652D01*
X104656294Y-121772458D01*
X104650090Y-121757479D01*
X104644305Y-121740438D01*
X104572587Y-121529162D01*
X104571243Y-121525202D01*
X104567045Y-121509535D01*
X104543272Y-121390021D01*
X104519190Y-121268953D01*
X104517075Y-121252895D01*
X104500765Y-121004043D01*
X104500500Y-120995933D01*
X104500500Y-91817682D01*
X105750000Y-91817682D01*
X105750000Y-92022317D01*
X105782009Y-92224417D01*
X105845244Y-92419031D01*
X105938141Y-92601350D01*
X105938147Y-92601359D01*
X105970523Y-92645921D01*
X105970524Y-92645922D01*
X106650000Y-91966446D01*
X106650000Y-91972661D01*
X106677259Y-92074394D01*
X106729920Y-92165606D01*
X106804394Y-92240080D01*
X106895606Y-92292741D01*
X106997339Y-92320000D01*
X107003553Y-92320000D01*
X106324076Y-92999474D01*
X106368650Y-93031859D01*
X106550968Y-93124755D01*
X106745582Y-93187990D01*
X106947683Y-93220000D01*
X107152317Y-93220000D01*
X107354417Y-93187990D01*
X107549031Y-93124755D01*
X107731349Y-93031859D01*
X107775921Y-92999474D01*
X107096447Y-92320000D01*
X107102661Y-92320000D01*
X107204394Y-92292741D01*
X107295606Y-92240080D01*
X107370080Y-92165606D01*
X107422741Y-92074394D01*
X107450000Y-91972661D01*
X107450000Y-91966447D01*
X108129474Y-92645921D01*
X108161859Y-92601349D01*
X108254755Y-92419031D01*
X108317990Y-92224417D01*
X108350000Y-92022317D01*
X108350000Y-91817682D01*
X108317990Y-91615582D01*
X108254755Y-91420968D01*
X108161859Y-91238650D01*
X108129474Y-91194077D01*
X108129474Y-91194076D01*
X107450000Y-91873551D01*
X107450000Y-91867339D01*
X107422741Y-91765606D01*
X107370080Y-91674394D01*
X107295606Y-91599920D01*
X107204394Y-91547259D01*
X107102661Y-91520000D01*
X107096446Y-91520000D01*
X107775922Y-90840524D01*
X107775921Y-90840523D01*
X107731359Y-90808147D01*
X107731350Y-90808141D01*
X107549031Y-90715244D01*
X107354417Y-90652009D01*
X107152317Y-90620000D01*
X106947683Y-90620000D01*
X106745582Y-90652009D01*
X106550968Y-90715244D01*
X106368644Y-90808143D01*
X106324077Y-90840523D01*
X106324077Y-90840524D01*
X107003554Y-91520000D01*
X106997339Y-91520000D01*
X106895606Y-91547259D01*
X106804394Y-91599920D01*
X106729920Y-91674394D01*
X106677259Y-91765606D01*
X106650000Y-91867339D01*
X106650000Y-91873553D01*
X105970524Y-91194077D01*
X105970523Y-91194077D01*
X105938143Y-91238644D01*
X105845244Y-91420968D01*
X105782009Y-91615582D01*
X105750000Y-91817682D01*
X104500500Y-91817682D01*
X104500500Y-74131902D01*
X105749500Y-74131902D01*
X105749500Y-74368097D01*
X105786446Y-74601368D01*
X105859433Y-74825996D01*
X105929004Y-74962535D01*
X105966657Y-75036433D01*
X106105483Y-75227510D01*
X106272490Y-75394517D01*
X106463567Y-75533343D01*
X106562991Y-75584002D01*
X106674003Y-75640566D01*
X106674005Y-75640566D01*
X106674008Y-75640568D01*
X106794412Y-75679689D01*
X106898631Y-75713553D01*
X107131903Y-75750500D01*
X107131908Y-75750500D01*
X107368097Y-75750500D01*
X107601368Y-75713553D01*
X107825992Y-75640568D01*
X108036433Y-75533343D01*
X108227510Y-75394517D01*
X108394517Y-75227510D01*
X108533343Y-75036433D01*
X108640568Y-74825992D01*
X108713553Y-74601368D01*
X108723652Y-74537606D01*
X108750500Y-74368097D01*
X108750500Y-74131902D01*
X110249500Y-74131902D01*
X110249500Y-74368097D01*
X110286446Y-74601368D01*
X110359433Y-74825996D01*
X110429004Y-74962535D01*
X110466657Y-75036433D01*
X110605483Y-75227510D01*
X110772490Y-75394517D01*
X110963567Y-75533343D01*
X111062991Y-75584002D01*
X111174003Y-75640566D01*
X111174005Y-75640566D01*
X111174008Y-75640568D01*
X111294412Y-75679689D01*
X111398631Y-75713553D01*
X111631903Y-75750500D01*
X111631908Y-75750500D01*
X111868097Y-75750500D01*
X112101368Y-75713553D01*
X112325992Y-75640568D01*
X112536433Y-75533343D01*
X112727510Y-75394517D01*
X112894517Y-75227510D01*
X113033343Y-75036433D01*
X113140568Y-74825992D01*
X113213553Y-74601368D01*
X113223652Y-74537606D01*
X113250500Y-74368097D01*
X113250500Y-74131902D01*
X113213553Y-73898631D01*
X113164658Y-73748149D01*
X113140568Y-73674008D01*
X113140566Y-73674005D01*
X113140566Y-73674003D01*
X113051907Y-73500001D01*
X113033343Y-73463567D01*
X112894517Y-73272490D01*
X112727510Y-73105483D01*
X112536433Y-72966657D01*
X112516856Y-72956682D01*
X112325996Y-72859433D01*
X112101368Y-72786446D01*
X111868097Y-72749500D01*
X111868092Y-72749500D01*
X111631908Y-72749500D01*
X111631903Y-72749500D01*
X111398631Y-72786446D01*
X111174003Y-72859433D01*
X110963566Y-72966657D01*
X110916606Y-73000776D01*
X110772490Y-73105483D01*
X110772488Y-73105485D01*
X110772487Y-73105485D01*
X110605485Y-73272487D01*
X110605485Y-73272488D01*
X110605483Y-73272490D01*
X110554436Y-73342750D01*
X110466657Y-73463566D01*
X110359433Y-73674003D01*
X110286446Y-73898631D01*
X110249500Y-74131902D01*
X108750500Y-74131902D01*
X108713553Y-73898631D01*
X108664658Y-73748149D01*
X108640568Y-73674008D01*
X108640566Y-73674005D01*
X108640566Y-73674003D01*
X108551907Y-73500001D01*
X108533343Y-73463567D01*
X108394517Y-73272490D01*
X108227510Y-73105483D01*
X108036433Y-72966657D01*
X108016856Y-72956682D01*
X107825996Y-72859433D01*
X107601368Y-72786446D01*
X107368097Y-72749500D01*
X107368092Y-72749500D01*
X107131908Y-72749500D01*
X107131903Y-72749500D01*
X106898631Y-72786446D01*
X106674003Y-72859433D01*
X106463566Y-72966657D01*
X106416606Y-73000776D01*
X106272490Y-73105483D01*
X106272488Y-73105485D01*
X106272487Y-73105485D01*
X106105485Y-73272487D01*
X106105485Y-73272488D01*
X106105483Y-73272490D01*
X106054436Y-73342750D01*
X105966657Y-73463566D01*
X105859433Y-73674003D01*
X105786446Y-73898631D01*
X105749500Y-74131902D01*
X104500500Y-74131902D01*
X104500500Y-73504066D01*
X104500765Y-73495956D01*
X104502965Y-73462393D01*
X104517075Y-73247102D01*
X104519190Y-73231048D01*
X104567045Y-72990462D01*
X104571243Y-72974797D01*
X104613328Y-72850818D01*
X104650093Y-72742512D01*
X104656291Y-72727547D01*
X104764790Y-72507533D01*
X104772897Y-72493493D01*
X104905362Y-72295244D01*
X104909177Y-72289534D01*
X104919039Y-72276681D01*
X105080786Y-72092244D01*
X105092244Y-72080786D01*
X105276681Y-71919039D01*
X105289534Y-71909177D01*
X105493493Y-71772897D01*
X105507533Y-71764790D01*
X105727547Y-71656291D01*
X105742512Y-71650093D01*
X105906762Y-71594337D01*
X105974797Y-71571243D01*
X105990464Y-71567045D01*
X106231048Y-71519190D01*
X106247102Y-71517075D01*
X106495957Y-71500765D01*
X106504067Y-71500500D01*
X106565892Y-71500500D01*
X139815546Y-71500500D01*
X139882585Y-71520185D01*
G37*
%TD.AperFunction*%
%TA.AperFunction,Conductor*%
G36*
X138198843Y-83645185D02*
G01*
X138244598Y-83697989D01*
X138254542Y-83767147D01*
X138246370Y-83796941D01*
X138244783Y-83800772D01*
X138181522Y-83995465D01*
X138149500Y-84197648D01*
X138149500Y-84402351D01*
X138181522Y-84604534D01*
X138244781Y-84799223D01*
X138337715Y-84981613D01*
X138458028Y-85147213D01*
X138602786Y-85291971D01*
X138757749Y-85404556D01*
X138768390Y-85412287D01*
X138858731Y-85458318D01*
X138950776Y-85505218D01*
X138950778Y-85505218D01*
X138950781Y-85505220D01*
X139019161Y-85527438D01*
X139145465Y-85568477D01*
X139246557Y-85584488D01*
X139347648Y-85600500D01*
X139347649Y-85600500D01*
X139552351Y-85600500D01*
X139552352Y-85600500D01*
X139754534Y-85568477D01*
X139949219Y-85505220D01*
X140131610Y-85412287D01*
X140233609Y-85338181D01*
X140297213Y-85291971D01*
X140297215Y-85291968D01*
X140297219Y-85291966D01*
X140441966Y-85147219D01*
X140441968Y-85147215D01*
X140441971Y-85147213D01*
X140494732Y-85074590D01*
X140562287Y-84981610D01*
X140655220Y-84799219D01*
X140718477Y-84604534D01*
X140750500Y-84402352D01*
X140750500Y-84197648D01*
X140718477Y-83995465D01*
X140703801Y-83950300D01*
X140655220Y-83800781D01*
X140655217Y-83800775D01*
X140655216Y-83800772D01*
X140653630Y-83796941D01*
X140646168Y-83727471D01*
X140677450Y-83664995D01*
X140737542Y-83629349D01*
X140768196Y-83625500D01*
X142181804Y-83625500D01*
X142248843Y-83645185D01*
X142294598Y-83697989D01*
X142304542Y-83767147D01*
X142296370Y-83796941D01*
X142294783Y-83800772D01*
X142231522Y-83995465D01*
X142199500Y-84197648D01*
X142199500Y-84402351D01*
X142231522Y-84604534D01*
X142294781Y-84799223D01*
X142387715Y-84981613D01*
X142508028Y-85147213D01*
X142652786Y-85291971D01*
X142807749Y-85404556D01*
X142818390Y-85412287D01*
X142908731Y-85458318D01*
X143000776Y-85505218D01*
X143000778Y-85505218D01*
X143000781Y-85505220D01*
X143069161Y-85527438D01*
X143195465Y-85568477D01*
X143296557Y-85584488D01*
X143397648Y-85600500D01*
X143397649Y-85600500D01*
X143602351Y-85600500D01*
X143602352Y-85600500D01*
X143671371Y-85589568D01*
X143809347Y-85567715D01*
X143809672Y-85569767D01*
X143870743Y-85572802D01*
X143917628Y-85602218D01*
X144714139Y-86398729D01*
X144714142Y-86398733D01*
X144801267Y-86485858D01*
X144852490Y-86520084D01*
X144903714Y-86554312D01*
X144903715Y-86554312D01*
X144903716Y-86554313D01*
X144977390Y-86584829D01*
X144977394Y-86584830D01*
X144984207Y-86587652D01*
X145017548Y-86601463D01*
X145077971Y-86613481D01*
X145138393Y-86625500D01*
X145138394Y-86625500D01*
X150316514Y-86625500D01*
X150383553Y-86645185D01*
X150429308Y-86697989D01*
X150439252Y-86767147D01*
X150410227Y-86830703D01*
X150372809Y-86859985D01*
X150318386Y-86887715D01*
X150152786Y-87008028D01*
X150008028Y-87152786D01*
X149887715Y-87318386D01*
X149794781Y-87500776D01*
X149731522Y-87695465D01*
X149699500Y-87897648D01*
X149699500Y-88102351D01*
X149731522Y-88304534D01*
X149794781Y-88499223D01*
X149887715Y-88681613D01*
X150008028Y-88847213D01*
X150152786Y-88991971D01*
X150307749Y-89104556D01*
X150318390Y-89112287D01*
X150434607Y-89171503D01*
X150500776Y-89205218D01*
X150500778Y-89205218D01*
X150500781Y-89205220D01*
X150605137Y-89239127D01*
X150695465Y-89268477D01*
X150796557Y-89284488D01*
X150897648Y-89300500D01*
X150897649Y-89300500D01*
X151102351Y-89300500D01*
X151102352Y-89300500D01*
X151304534Y-89268477D01*
X151499219Y-89205220D01*
X151681610Y-89112287D01*
X151774590Y-89044732D01*
X151847213Y-88991971D01*
X151847215Y-88991968D01*
X151847219Y-88991966D01*
X151991966Y-88847219D01*
X151991968Y-88847215D01*
X151991971Y-88847213D01*
X152044732Y-88774590D01*
X152112287Y-88681610D01*
X152205220Y-88499219D01*
X152268477Y-88304534D01*
X152300500Y-88102352D01*
X152300500Y-87897648D01*
X152271782Y-87716334D01*
X152268477Y-87695465D01*
X152205218Y-87500776D01*
X152171503Y-87434607D01*
X152112287Y-87318390D01*
X152104556Y-87307749D01*
X151991971Y-87152786D01*
X151847213Y-87008028D01*
X151681613Y-86887715D01*
X151681612Y-86887714D01*
X151681610Y-86887713D01*
X151627191Y-86859985D01*
X151576395Y-86812010D01*
X151559600Y-86744189D01*
X151582138Y-86678054D01*
X151636853Y-86634603D01*
X151683486Y-86625500D01*
X155959548Y-86625500D01*
X156026587Y-86645185D01*
X156047229Y-86661819D01*
X159403728Y-90018319D01*
X159437213Y-90079642D01*
X159432229Y-90149334D01*
X159390357Y-90205267D01*
X159324893Y-90229684D01*
X159316047Y-90230000D01*
X158459655Y-90230000D01*
X158400127Y-90236401D01*
X158400120Y-90236403D01*
X158265413Y-90286645D01*
X158265406Y-90286649D01*
X158150312Y-90372809D01*
X158150309Y-90372812D01*
X158064149Y-90487906D01*
X158064145Y-90487913D01*
X158013903Y-90622620D01*
X158013901Y-90622627D01*
X158007500Y-90682155D01*
X158007500Y-91480000D01*
X158969252Y-91480000D01*
X158947482Y-91517708D01*
X158910000Y-91657591D01*
X158910000Y-91802409D01*
X158947482Y-91942292D01*
X158969252Y-91980000D01*
X158007500Y-91980000D01*
X158007500Y-92777830D01*
X158011496Y-92815000D01*
X157999090Y-92883759D01*
X157951479Y-92934896D01*
X157883779Y-92952175D01*
X157817485Y-92930110D01*
X157800525Y-92915935D01*
X154993150Y-90108560D01*
X154985860Y-90101270D01*
X154985858Y-90101267D01*
X154898733Y-90014142D01*
X154847509Y-89979915D01*
X154796286Y-89945688D01*
X154796283Y-89945686D01*
X154796280Y-89945685D01*
X154722603Y-89915168D01*
X154722601Y-89915167D01*
X154715792Y-89912347D01*
X154682452Y-89898537D01*
X154622029Y-89886518D01*
X154617306Y-89885578D01*
X154617304Y-89885578D01*
X154561610Y-89874500D01*
X154561607Y-89874500D01*
X154561606Y-89874500D01*
X140931606Y-89874500D01*
X140808393Y-89874500D01*
X140808389Y-89874500D01*
X140752697Y-89885578D01*
X140747971Y-89886518D01*
X140704743Y-89895116D01*
X140687546Y-89898537D01*
X140573716Y-89945687D01*
X140573707Y-89945692D01*
X140471268Y-90014140D01*
X140427705Y-90057703D01*
X140384142Y-90101267D01*
X140384139Y-90101270D01*
X139867627Y-90617781D01*
X139806304Y-90651266D01*
X139759584Y-90650776D01*
X139759346Y-90652285D01*
X139655898Y-90635900D01*
X139552352Y-90619500D01*
X139347648Y-90619500D01*
X139327905Y-90622627D01*
X139145465Y-90651522D01*
X138950776Y-90714781D01*
X138768386Y-90807715D01*
X138602786Y-90928028D01*
X138458028Y-91072786D01*
X138337715Y-91238386D01*
X138244781Y-91420776D01*
X138181522Y-91615465D01*
X138149500Y-91817648D01*
X138149500Y-92022351D01*
X138181522Y-92224534D01*
X138244781Y-92419223D01*
X138288400Y-92504828D01*
X138337585Y-92601359D01*
X138337715Y-92601613D01*
X138458028Y-92767213D01*
X138602786Y-92911971D01*
X138751777Y-93020217D01*
X138768390Y-93032287D01*
X138876137Y-93087187D01*
X138950776Y-93125218D01*
X138950778Y-93125218D01*
X138950781Y-93125220D01*
X139050264Y-93157544D01*
X139145465Y-93188477D01*
X139246557Y-93204488D01*
X139347648Y-93220500D01*
X139347649Y-93220500D01*
X139552351Y-93220500D01*
X139552352Y-93220500D01*
X139621371Y-93209568D01*
X139759347Y-93187715D01*
X139759672Y-93189767D01*
X139820743Y-93192802D01*
X139867628Y-93222218D01*
X142593229Y-95947819D01*
X142626714Y-96009142D01*
X142621730Y-96078834D01*
X142579858Y-96134767D01*
X142514394Y-96159184D01*
X142505548Y-96159500D01*
X140575452Y-96159500D01*
X140508413Y-96139815D01*
X140487771Y-96123181D01*
X136702218Y-92337628D01*
X136668733Y-92276305D01*
X136669241Y-92229588D01*
X136667715Y-92229347D01*
X136700500Y-92022351D01*
X136700500Y-91817648D01*
X136668477Y-91615465D01*
X136609561Y-91434142D01*
X136605220Y-91420781D01*
X136605218Y-91420778D01*
X136605218Y-91420776D01*
X136571503Y-91354607D01*
X136512287Y-91238390D01*
X136480092Y-91194077D01*
X136391971Y-91072786D01*
X136247213Y-90928028D01*
X136081613Y-90807715D01*
X136081612Y-90807714D01*
X136081610Y-90807713D01*
X136009408Y-90770924D01*
X135899223Y-90714781D01*
X135704534Y-90651522D01*
X135529995Y-90623878D01*
X135502352Y-90619500D01*
X135297648Y-90619500D01*
X135277905Y-90622627D01*
X135095465Y-90651522D01*
X134900776Y-90714781D01*
X134718386Y-90807715D01*
X134552786Y-90928028D01*
X134408028Y-91072786D01*
X134287715Y-91238386D01*
X134194781Y-91420776D01*
X134131522Y-91615465D01*
X134099500Y-91817648D01*
X134099500Y-92022351D01*
X134131522Y-92224534D01*
X134194781Y-92419223D01*
X134238400Y-92504828D01*
X134287585Y-92601359D01*
X134287715Y-92601613D01*
X134408028Y-92767213D01*
X134552786Y-92911971D01*
X134701777Y-93020217D01*
X134718390Y-93032287D01*
X134826137Y-93087187D01*
X134900776Y-93125218D01*
X134900778Y-93125218D01*
X134900781Y-93125220D01*
X135000264Y-93157544D01*
X135095465Y-93188477D01*
X135196557Y-93204488D01*
X135297648Y-93220500D01*
X135297649Y-93220500D01*
X135502351Y-93220500D01*
X135502352Y-93220500D01*
X135571371Y-93209568D01*
X135709347Y-93187715D01*
X135709672Y-93189767D01*
X135770743Y-93192802D01*
X135817628Y-93222218D01*
X139043229Y-96447819D01*
X139076714Y-96509142D01*
X139071730Y-96578834D01*
X139029858Y-96634767D01*
X138964394Y-96659184D01*
X138955548Y-96659500D01*
X137025452Y-96659500D01*
X136958413Y-96639815D01*
X136937771Y-96623181D01*
X132652218Y-92337628D01*
X132618733Y-92276305D01*
X132619241Y-92229588D01*
X132617715Y-92229347D01*
X132650500Y-92022351D01*
X132650500Y-91817648D01*
X132618477Y-91615465D01*
X132559561Y-91434142D01*
X132555220Y-91420781D01*
X132555218Y-91420778D01*
X132555218Y-91420776D01*
X132521503Y-91354607D01*
X132462287Y-91238390D01*
X132430092Y-91194077D01*
X132341971Y-91072786D01*
X132197213Y-90928028D01*
X132027669Y-90804849D01*
X132028884Y-90803176D01*
X131987831Y-90757792D01*
X131975500Y-90703885D01*
X131975500Y-86998750D01*
X131995185Y-86931711D01*
X132011814Y-86911074D01*
X134050096Y-84872791D01*
X134111417Y-84839308D01*
X134181109Y-84844292D01*
X134237042Y-84886164D01*
X134248259Y-84904177D01*
X134278559Y-84963644D01*
X134287715Y-84981614D01*
X134408028Y-85147213D01*
X134552786Y-85291971D01*
X134707749Y-85404556D01*
X134718390Y-85412287D01*
X134808731Y-85458318D01*
X134900776Y-85505218D01*
X134900778Y-85505218D01*
X134900781Y-85505220D01*
X134969161Y-85527438D01*
X135095465Y-85568477D01*
X135196557Y-85584488D01*
X135297648Y-85600500D01*
X135297649Y-85600500D01*
X135502351Y-85600500D01*
X135502352Y-85600500D01*
X135704534Y-85568477D01*
X135899219Y-85505220D01*
X136081610Y-85412287D01*
X136183609Y-85338181D01*
X136247213Y-85291971D01*
X136247215Y-85291968D01*
X136247219Y-85291966D01*
X136391966Y-85147219D01*
X136391968Y-85147215D01*
X136391971Y-85147213D01*
X136444732Y-85074590D01*
X136512287Y-84981610D01*
X136605220Y-84799219D01*
X136668477Y-84604534D01*
X136700500Y-84402352D01*
X136700500Y-84197648D01*
X136667715Y-83990654D01*
X136669762Y-83990329D01*
X136672810Y-83929235D01*
X136702218Y-83882371D01*
X136728976Y-83855614D01*
X136857844Y-83726746D01*
X136922773Y-83661818D01*
X136984096Y-83628334D01*
X137010454Y-83625500D01*
X138131804Y-83625500D01*
X138198843Y-83645185D01*
G37*
%TD.AperFunction*%
%TD*%
M02*
