%TF.GenerationSoftware,KiCad,Pcbnew,10.0.2*%
%TF.CreationDate,2026-05-25T22:19:18-04:00*%
%TF.ProjectId,Proto,50726f74-6f2e-46b6-9963-61645f706362,rev?*%
%TF.SameCoordinates,Original*%
%TF.FileFunction,Legend,Top*%
%TF.FilePolarity,Positive*%
%FSLAX46Y46*%
G04 Gerber Fmt 4.6, Leading zero omitted, Abs format (unit mm)*
G04 Created by KiCad (PCBNEW 10.0.2) date 2026-05-25 22:19:18*
%MOMM*%
%LPD*%
G01*
G04 APERTURE LIST*
%ADD10C,0.150000*%
%ADD11C,0.120000*%
G04 APERTURE END LIST*
D10*
X109904819Y-100568094D02*
X108904819Y-100568094D01*
X108904819Y-100568094D02*
X108904819Y-100329999D01*
X108904819Y-100329999D02*
X108952438Y-100187142D01*
X108952438Y-100187142D02*
X109047676Y-100091904D01*
X109047676Y-100091904D02*
X109142914Y-100044285D01*
X109142914Y-100044285D02*
X109333390Y-99996666D01*
X109333390Y-99996666D02*
X109476247Y-99996666D01*
X109476247Y-99996666D02*
X109666723Y-100044285D01*
X109666723Y-100044285D02*
X109761961Y-100091904D01*
X109761961Y-100091904D02*
X109857200Y-100187142D01*
X109857200Y-100187142D02*
X109904819Y-100329999D01*
X109904819Y-100329999D02*
X109904819Y-100568094D01*
X109904819Y-99044285D02*
X109904819Y-99615713D01*
X109904819Y-99329999D02*
X108904819Y-99329999D01*
X108904819Y-99329999D02*
X109047676Y-99425237D01*
X109047676Y-99425237D02*
X109142914Y-99520475D01*
X109142914Y-99520475D02*
X109190533Y-99615713D01*
X175809580Y-105166666D02*
X175857200Y-105214285D01*
X175857200Y-105214285D02*
X175904819Y-105357142D01*
X175904819Y-105357142D02*
X175904819Y-105452380D01*
X175904819Y-105452380D02*
X175857200Y-105595237D01*
X175857200Y-105595237D02*
X175761961Y-105690475D01*
X175761961Y-105690475D02*
X175666723Y-105738094D01*
X175666723Y-105738094D02*
X175476247Y-105785713D01*
X175476247Y-105785713D02*
X175333390Y-105785713D01*
X175333390Y-105785713D02*
X175142914Y-105738094D01*
X175142914Y-105738094D02*
X175047676Y-105690475D01*
X175047676Y-105690475D02*
X174952438Y-105595237D01*
X174952438Y-105595237D02*
X174904819Y-105452380D01*
X174904819Y-105452380D02*
X174904819Y-105357142D01*
X174904819Y-105357142D02*
X174952438Y-105214285D01*
X174952438Y-105214285D02*
X175000057Y-105166666D01*
X175000057Y-104785713D02*
X174952438Y-104738094D01*
X174952438Y-104738094D02*
X174904819Y-104642856D01*
X174904819Y-104642856D02*
X174904819Y-104404761D01*
X174904819Y-104404761D02*
X174952438Y-104309523D01*
X174952438Y-104309523D02*
X175000057Y-104261904D01*
X175000057Y-104261904D02*
X175095295Y-104214285D01*
X175095295Y-104214285D02*
X175190533Y-104214285D01*
X175190533Y-104214285D02*
X175333390Y-104261904D01*
X175333390Y-104261904D02*
X175904819Y-104833332D01*
X175904819Y-104833332D02*
X175904819Y-104214285D01*
X112502200Y-115848332D02*
X112549819Y-115705475D01*
X112549819Y-115705475D02*
X112549819Y-115467380D01*
X112549819Y-115467380D02*
X112502200Y-115372142D01*
X112502200Y-115372142D02*
X112454580Y-115324523D01*
X112454580Y-115324523D02*
X112359342Y-115276904D01*
X112359342Y-115276904D02*
X112264104Y-115276904D01*
X112264104Y-115276904D02*
X112168866Y-115324523D01*
X112168866Y-115324523D02*
X112121247Y-115372142D01*
X112121247Y-115372142D02*
X112073628Y-115467380D01*
X112073628Y-115467380D02*
X112026009Y-115657856D01*
X112026009Y-115657856D02*
X111978390Y-115753094D01*
X111978390Y-115753094D02*
X111930771Y-115800713D01*
X111930771Y-115800713D02*
X111835533Y-115848332D01*
X111835533Y-115848332D02*
X111740295Y-115848332D01*
X111740295Y-115848332D02*
X111645057Y-115800713D01*
X111645057Y-115800713D02*
X111597438Y-115753094D01*
X111597438Y-115753094D02*
X111549819Y-115657856D01*
X111549819Y-115657856D02*
X111549819Y-115419761D01*
X111549819Y-115419761D02*
X111597438Y-115276904D01*
X111549819Y-114943570D02*
X112549819Y-114705475D01*
X112549819Y-114705475D02*
X111835533Y-114514999D01*
X111835533Y-114514999D02*
X112549819Y-114324523D01*
X112549819Y-114324523D02*
X111549819Y-114086428D01*
X111645057Y-113753094D02*
X111597438Y-113705475D01*
X111597438Y-113705475D02*
X111549819Y-113610237D01*
X111549819Y-113610237D02*
X111549819Y-113372142D01*
X111549819Y-113372142D02*
X111597438Y-113276904D01*
X111597438Y-113276904D02*
X111645057Y-113229285D01*
X111645057Y-113229285D02*
X111740295Y-113181666D01*
X111740295Y-113181666D02*
X111835533Y-113181666D01*
X111835533Y-113181666D02*
X111978390Y-113229285D01*
X111978390Y-113229285D02*
X112549819Y-113800713D01*
X112549819Y-113800713D02*
X112549819Y-113181666D01*
X152926009Y-90880952D02*
X152973628Y-90738095D01*
X152973628Y-90738095D02*
X153021247Y-90690476D01*
X153021247Y-90690476D02*
X153116485Y-90642857D01*
X153116485Y-90642857D02*
X153259342Y-90642857D01*
X153259342Y-90642857D02*
X153354580Y-90690476D01*
X153354580Y-90690476D02*
X153402200Y-90738095D01*
X153402200Y-90738095D02*
X153449819Y-90833333D01*
X153449819Y-90833333D02*
X153449819Y-91214285D01*
X153449819Y-91214285D02*
X152449819Y-91214285D01*
X152449819Y-91214285D02*
X152449819Y-90880952D01*
X152449819Y-90880952D02*
X152497438Y-90785714D01*
X152497438Y-90785714D02*
X152545057Y-90738095D01*
X152545057Y-90738095D02*
X152640295Y-90690476D01*
X152640295Y-90690476D02*
X152735533Y-90690476D01*
X152735533Y-90690476D02*
X152830771Y-90738095D01*
X152830771Y-90738095D02*
X152878390Y-90785714D01*
X152878390Y-90785714D02*
X152926009Y-90880952D01*
X152926009Y-90880952D02*
X152926009Y-91214285D01*
X152449819Y-90309523D02*
X152449819Y-89642857D01*
X152449819Y-89642857D02*
X153449819Y-90309523D01*
X153449819Y-90309523D02*
X153449819Y-89642857D01*
X153449819Y-88738095D02*
X153449819Y-89309523D01*
X153449819Y-89023809D02*
X152449819Y-89023809D01*
X152449819Y-89023809D02*
X152592676Y-89119047D01*
X152592676Y-89119047D02*
X152687914Y-89214285D01*
X152687914Y-89214285D02*
X152735533Y-89309523D01*
X150973866Y-93880951D02*
X150973866Y-93119047D01*
X151354819Y-93499999D02*
X150592914Y-93499999D01*
X159152200Y-115848332D02*
X159199819Y-115705475D01*
X159199819Y-115705475D02*
X159199819Y-115467380D01*
X159199819Y-115467380D02*
X159152200Y-115372142D01*
X159152200Y-115372142D02*
X159104580Y-115324523D01*
X159104580Y-115324523D02*
X159009342Y-115276904D01*
X159009342Y-115276904D02*
X158914104Y-115276904D01*
X158914104Y-115276904D02*
X158818866Y-115324523D01*
X158818866Y-115324523D02*
X158771247Y-115372142D01*
X158771247Y-115372142D02*
X158723628Y-115467380D01*
X158723628Y-115467380D02*
X158676009Y-115657856D01*
X158676009Y-115657856D02*
X158628390Y-115753094D01*
X158628390Y-115753094D02*
X158580771Y-115800713D01*
X158580771Y-115800713D02*
X158485533Y-115848332D01*
X158485533Y-115848332D02*
X158390295Y-115848332D01*
X158390295Y-115848332D02*
X158295057Y-115800713D01*
X158295057Y-115800713D02*
X158247438Y-115753094D01*
X158247438Y-115753094D02*
X158199819Y-115657856D01*
X158199819Y-115657856D02*
X158199819Y-115419761D01*
X158199819Y-115419761D02*
X158247438Y-115276904D01*
X158199819Y-114943570D02*
X159199819Y-114705475D01*
X159199819Y-114705475D02*
X158485533Y-114514999D01*
X158485533Y-114514999D02*
X159199819Y-114324523D01*
X159199819Y-114324523D02*
X158199819Y-114086428D01*
X158199819Y-113229285D02*
X158199819Y-113705475D01*
X158199819Y-113705475D02*
X158676009Y-113753094D01*
X158676009Y-113753094D02*
X158628390Y-113705475D01*
X158628390Y-113705475D02*
X158580771Y-113610237D01*
X158580771Y-113610237D02*
X158580771Y-113372142D01*
X158580771Y-113372142D02*
X158628390Y-113276904D01*
X158628390Y-113276904D02*
X158676009Y-113229285D01*
X158676009Y-113229285D02*
X158771247Y-113181666D01*
X158771247Y-113181666D02*
X159009342Y-113181666D01*
X159009342Y-113181666D02*
X159104580Y-113229285D01*
X159104580Y-113229285D02*
X159152200Y-113276904D01*
X159152200Y-113276904D02*
X159199819Y-113372142D01*
X159199819Y-113372142D02*
X159199819Y-113610237D01*
X159199819Y-113610237D02*
X159152200Y-113705475D01*
X159152200Y-113705475D02*
X159104580Y-113753094D01*
X141004819Y-100568094D02*
X140004819Y-100568094D01*
X140004819Y-100568094D02*
X140004819Y-100329999D01*
X140004819Y-100329999D02*
X140052438Y-100187142D01*
X140052438Y-100187142D02*
X140147676Y-100091904D01*
X140147676Y-100091904D02*
X140242914Y-100044285D01*
X140242914Y-100044285D02*
X140433390Y-99996666D01*
X140433390Y-99996666D02*
X140576247Y-99996666D01*
X140576247Y-99996666D02*
X140766723Y-100044285D01*
X140766723Y-100044285D02*
X140861961Y-100091904D01*
X140861961Y-100091904D02*
X140957200Y-100187142D01*
X140957200Y-100187142D02*
X141004819Y-100329999D01*
X141004819Y-100329999D02*
X141004819Y-100568094D01*
X140004819Y-99663332D02*
X140004819Y-99044285D01*
X140004819Y-99044285D02*
X140385771Y-99377618D01*
X140385771Y-99377618D02*
X140385771Y-99234761D01*
X140385771Y-99234761D02*
X140433390Y-99139523D01*
X140433390Y-99139523D02*
X140481009Y-99091904D01*
X140481009Y-99091904D02*
X140576247Y-99044285D01*
X140576247Y-99044285D02*
X140814342Y-99044285D01*
X140814342Y-99044285D02*
X140909580Y-99091904D01*
X140909580Y-99091904D02*
X140957200Y-99139523D01*
X140957200Y-99139523D02*
X141004819Y-99234761D01*
X141004819Y-99234761D02*
X141004819Y-99520475D01*
X141004819Y-99520475D02*
X140957200Y-99615713D01*
X140957200Y-99615713D02*
X140909580Y-99663332D01*
X107504819Y-88276666D02*
X107028628Y-88609999D01*
X107504819Y-88848094D02*
X106504819Y-88848094D01*
X106504819Y-88848094D02*
X106504819Y-88467142D01*
X106504819Y-88467142D02*
X106552438Y-88371904D01*
X106552438Y-88371904D02*
X106600057Y-88324285D01*
X106600057Y-88324285D02*
X106695295Y-88276666D01*
X106695295Y-88276666D02*
X106838152Y-88276666D01*
X106838152Y-88276666D02*
X106933390Y-88324285D01*
X106933390Y-88324285D02*
X106981009Y-88371904D01*
X106981009Y-88371904D02*
X107028628Y-88467142D01*
X107028628Y-88467142D02*
X107028628Y-88848094D01*
X107504819Y-87324285D02*
X107504819Y-87895713D01*
X107504819Y-87609999D02*
X106504819Y-87609999D01*
X106504819Y-87609999D02*
X106647676Y-87705237D01*
X106647676Y-87705237D02*
X106742914Y-87800475D01*
X106742914Y-87800475D02*
X106790533Y-87895713D01*
X170809580Y-105166666D02*
X170857200Y-105214285D01*
X170857200Y-105214285D02*
X170904819Y-105357142D01*
X170904819Y-105357142D02*
X170904819Y-105452380D01*
X170904819Y-105452380D02*
X170857200Y-105595237D01*
X170857200Y-105595237D02*
X170761961Y-105690475D01*
X170761961Y-105690475D02*
X170666723Y-105738094D01*
X170666723Y-105738094D02*
X170476247Y-105785713D01*
X170476247Y-105785713D02*
X170333390Y-105785713D01*
X170333390Y-105785713D02*
X170142914Y-105738094D01*
X170142914Y-105738094D02*
X170047676Y-105690475D01*
X170047676Y-105690475D02*
X169952438Y-105595237D01*
X169952438Y-105595237D02*
X169904819Y-105452380D01*
X169904819Y-105452380D02*
X169904819Y-105357142D01*
X169904819Y-105357142D02*
X169952438Y-105214285D01*
X169952438Y-105214285D02*
X170000057Y-105166666D01*
X170904819Y-104214285D02*
X170904819Y-104785713D01*
X170904819Y-104499999D02*
X169904819Y-104499999D01*
X169904819Y-104499999D02*
X170047676Y-104595237D01*
X170047676Y-104595237D02*
X170142914Y-104690475D01*
X170142914Y-104690475D02*
X170190533Y-104785713D01*
X171404761Y-113954819D02*
X171071428Y-113478628D01*
X170833333Y-113954819D02*
X170833333Y-112954819D01*
X170833333Y-112954819D02*
X171214285Y-112954819D01*
X171214285Y-112954819D02*
X171309523Y-113002438D01*
X171309523Y-113002438D02*
X171357142Y-113050057D01*
X171357142Y-113050057D02*
X171404761Y-113145295D01*
X171404761Y-113145295D02*
X171404761Y-113288152D01*
X171404761Y-113288152D02*
X171357142Y-113383390D01*
X171357142Y-113383390D02*
X171309523Y-113431009D01*
X171309523Y-113431009D02*
X171214285Y-113478628D01*
X171214285Y-113478628D02*
X170833333Y-113478628D01*
X171690476Y-112954819D02*
X172023809Y-113954819D01*
X172023809Y-113954819D02*
X172357142Y-112954819D01*
X173214285Y-113954819D02*
X172642857Y-113954819D01*
X172928571Y-113954819D02*
X172928571Y-112954819D01*
X172928571Y-112954819D02*
X172833333Y-113097676D01*
X172833333Y-113097676D02*
X172738095Y-113192914D01*
X172738095Y-113192914D02*
X172642857Y-113240533D01*
X128052200Y-115848332D02*
X128099819Y-115705475D01*
X128099819Y-115705475D02*
X128099819Y-115467380D01*
X128099819Y-115467380D02*
X128052200Y-115372142D01*
X128052200Y-115372142D02*
X128004580Y-115324523D01*
X128004580Y-115324523D02*
X127909342Y-115276904D01*
X127909342Y-115276904D02*
X127814104Y-115276904D01*
X127814104Y-115276904D02*
X127718866Y-115324523D01*
X127718866Y-115324523D02*
X127671247Y-115372142D01*
X127671247Y-115372142D02*
X127623628Y-115467380D01*
X127623628Y-115467380D02*
X127576009Y-115657856D01*
X127576009Y-115657856D02*
X127528390Y-115753094D01*
X127528390Y-115753094D02*
X127480771Y-115800713D01*
X127480771Y-115800713D02*
X127385533Y-115848332D01*
X127385533Y-115848332D02*
X127290295Y-115848332D01*
X127290295Y-115848332D02*
X127195057Y-115800713D01*
X127195057Y-115800713D02*
X127147438Y-115753094D01*
X127147438Y-115753094D02*
X127099819Y-115657856D01*
X127099819Y-115657856D02*
X127099819Y-115419761D01*
X127099819Y-115419761D02*
X127147438Y-115276904D01*
X127099819Y-114943570D02*
X128099819Y-114705475D01*
X128099819Y-114705475D02*
X127385533Y-114514999D01*
X127385533Y-114514999D02*
X128099819Y-114324523D01*
X128099819Y-114324523D02*
X127099819Y-114086428D01*
X127099819Y-113800713D02*
X127099819Y-113181666D01*
X127099819Y-113181666D02*
X127480771Y-113514999D01*
X127480771Y-113514999D02*
X127480771Y-113372142D01*
X127480771Y-113372142D02*
X127528390Y-113276904D01*
X127528390Y-113276904D02*
X127576009Y-113229285D01*
X127576009Y-113229285D02*
X127671247Y-113181666D01*
X127671247Y-113181666D02*
X127909342Y-113181666D01*
X127909342Y-113181666D02*
X128004580Y-113229285D01*
X128004580Y-113229285D02*
X128052200Y-113276904D01*
X128052200Y-113276904D02*
X128099819Y-113372142D01*
X128099819Y-113372142D02*
X128099819Y-113657856D01*
X128099819Y-113657856D02*
X128052200Y-113753094D01*
X128052200Y-113753094D02*
X128004580Y-113800713D01*
X143602200Y-115848332D02*
X143649819Y-115705475D01*
X143649819Y-115705475D02*
X143649819Y-115467380D01*
X143649819Y-115467380D02*
X143602200Y-115372142D01*
X143602200Y-115372142D02*
X143554580Y-115324523D01*
X143554580Y-115324523D02*
X143459342Y-115276904D01*
X143459342Y-115276904D02*
X143364104Y-115276904D01*
X143364104Y-115276904D02*
X143268866Y-115324523D01*
X143268866Y-115324523D02*
X143221247Y-115372142D01*
X143221247Y-115372142D02*
X143173628Y-115467380D01*
X143173628Y-115467380D02*
X143126009Y-115657856D01*
X143126009Y-115657856D02*
X143078390Y-115753094D01*
X143078390Y-115753094D02*
X143030771Y-115800713D01*
X143030771Y-115800713D02*
X142935533Y-115848332D01*
X142935533Y-115848332D02*
X142840295Y-115848332D01*
X142840295Y-115848332D02*
X142745057Y-115800713D01*
X142745057Y-115800713D02*
X142697438Y-115753094D01*
X142697438Y-115753094D02*
X142649819Y-115657856D01*
X142649819Y-115657856D02*
X142649819Y-115419761D01*
X142649819Y-115419761D02*
X142697438Y-115276904D01*
X142649819Y-114943570D02*
X143649819Y-114705475D01*
X143649819Y-114705475D02*
X142935533Y-114514999D01*
X142935533Y-114514999D02*
X143649819Y-114324523D01*
X143649819Y-114324523D02*
X142649819Y-114086428D01*
X142983152Y-113276904D02*
X143649819Y-113276904D01*
X142602200Y-113514999D02*
X143316485Y-113753094D01*
X143316485Y-113753094D02*
X143316485Y-113134047D01*
X135854819Y-88276666D02*
X135378628Y-88609999D01*
X135854819Y-88848094D02*
X134854819Y-88848094D01*
X134854819Y-88848094D02*
X134854819Y-88467142D01*
X134854819Y-88467142D02*
X134902438Y-88371904D01*
X134902438Y-88371904D02*
X134950057Y-88324285D01*
X134950057Y-88324285D02*
X135045295Y-88276666D01*
X135045295Y-88276666D02*
X135188152Y-88276666D01*
X135188152Y-88276666D02*
X135283390Y-88324285D01*
X135283390Y-88324285D02*
X135331009Y-88371904D01*
X135331009Y-88371904D02*
X135378628Y-88467142D01*
X135378628Y-88467142D02*
X135378628Y-88848094D01*
X135283390Y-87705237D02*
X135235771Y-87800475D01*
X135235771Y-87800475D02*
X135188152Y-87848094D01*
X135188152Y-87848094D02*
X135092914Y-87895713D01*
X135092914Y-87895713D02*
X135045295Y-87895713D01*
X135045295Y-87895713D02*
X134950057Y-87848094D01*
X134950057Y-87848094D02*
X134902438Y-87800475D01*
X134902438Y-87800475D02*
X134854819Y-87705237D01*
X134854819Y-87705237D02*
X134854819Y-87514761D01*
X134854819Y-87514761D02*
X134902438Y-87419523D01*
X134902438Y-87419523D02*
X134950057Y-87371904D01*
X134950057Y-87371904D02*
X135045295Y-87324285D01*
X135045295Y-87324285D02*
X135092914Y-87324285D01*
X135092914Y-87324285D02*
X135188152Y-87371904D01*
X135188152Y-87371904D02*
X135235771Y-87419523D01*
X135235771Y-87419523D02*
X135283390Y-87514761D01*
X135283390Y-87514761D02*
X135283390Y-87705237D01*
X135283390Y-87705237D02*
X135331009Y-87800475D01*
X135331009Y-87800475D02*
X135378628Y-87848094D01*
X135378628Y-87848094D02*
X135473866Y-87895713D01*
X135473866Y-87895713D02*
X135664342Y-87895713D01*
X135664342Y-87895713D02*
X135759580Y-87848094D01*
X135759580Y-87848094D02*
X135807200Y-87800475D01*
X135807200Y-87800475D02*
X135854819Y-87705237D01*
X135854819Y-87705237D02*
X135854819Y-87514761D01*
X135854819Y-87514761D02*
X135807200Y-87419523D01*
X135807200Y-87419523D02*
X135759580Y-87371904D01*
X135759580Y-87371904D02*
X135664342Y-87324285D01*
X135664342Y-87324285D02*
X135473866Y-87324285D01*
X135473866Y-87324285D02*
X135378628Y-87371904D01*
X135378628Y-87371904D02*
X135331009Y-87419523D01*
X135331009Y-87419523D02*
X135283390Y-87514761D01*
X131804819Y-88276666D02*
X131328628Y-88609999D01*
X131804819Y-88848094D02*
X130804819Y-88848094D01*
X130804819Y-88848094D02*
X130804819Y-88467142D01*
X130804819Y-88467142D02*
X130852438Y-88371904D01*
X130852438Y-88371904D02*
X130900057Y-88324285D01*
X130900057Y-88324285D02*
X130995295Y-88276666D01*
X130995295Y-88276666D02*
X131138152Y-88276666D01*
X131138152Y-88276666D02*
X131233390Y-88324285D01*
X131233390Y-88324285D02*
X131281009Y-88371904D01*
X131281009Y-88371904D02*
X131328628Y-88467142D01*
X131328628Y-88467142D02*
X131328628Y-88848094D01*
X130804819Y-87943332D02*
X130804819Y-87276666D01*
X130804819Y-87276666D02*
X131804819Y-87705237D01*
X161904761Y-83050057D02*
X161809523Y-83002438D01*
X161809523Y-83002438D02*
X161714285Y-82907200D01*
X161714285Y-82907200D02*
X161571428Y-82764342D01*
X161571428Y-82764342D02*
X161476190Y-82716723D01*
X161476190Y-82716723D02*
X161380952Y-82716723D01*
X161428571Y-82954819D02*
X161333333Y-82907200D01*
X161333333Y-82907200D02*
X161238095Y-82811961D01*
X161238095Y-82811961D02*
X161190476Y-82621485D01*
X161190476Y-82621485D02*
X161190476Y-82288152D01*
X161190476Y-82288152D02*
X161238095Y-82097676D01*
X161238095Y-82097676D02*
X161333333Y-82002438D01*
X161333333Y-82002438D02*
X161428571Y-81954819D01*
X161428571Y-81954819D02*
X161619047Y-81954819D01*
X161619047Y-81954819D02*
X161714285Y-82002438D01*
X161714285Y-82002438D02*
X161809523Y-82097676D01*
X161809523Y-82097676D02*
X161857142Y-82288152D01*
X161857142Y-82288152D02*
X161857142Y-82621485D01*
X161857142Y-82621485D02*
X161809523Y-82811961D01*
X161809523Y-82811961D02*
X161714285Y-82907200D01*
X161714285Y-82907200D02*
X161619047Y-82954819D01*
X161619047Y-82954819D02*
X161428571Y-82954819D01*
X162809523Y-82954819D02*
X162238095Y-82954819D01*
X162523809Y-82954819D02*
X162523809Y-81954819D01*
X162523809Y-81954819D02*
X162428571Y-82097676D01*
X162428571Y-82097676D02*
X162333333Y-82192914D01*
X162333333Y-82192914D02*
X162238095Y-82240533D01*
X115604819Y-88276666D02*
X115128628Y-88609999D01*
X115604819Y-88848094D02*
X114604819Y-88848094D01*
X114604819Y-88848094D02*
X114604819Y-88467142D01*
X114604819Y-88467142D02*
X114652438Y-88371904D01*
X114652438Y-88371904D02*
X114700057Y-88324285D01*
X114700057Y-88324285D02*
X114795295Y-88276666D01*
X114795295Y-88276666D02*
X114938152Y-88276666D01*
X114938152Y-88276666D02*
X115033390Y-88324285D01*
X115033390Y-88324285D02*
X115081009Y-88371904D01*
X115081009Y-88371904D02*
X115128628Y-88467142D01*
X115128628Y-88467142D02*
X115128628Y-88848094D01*
X114604819Y-87943332D02*
X114604819Y-87324285D01*
X114604819Y-87324285D02*
X114985771Y-87657618D01*
X114985771Y-87657618D02*
X114985771Y-87514761D01*
X114985771Y-87514761D02*
X115033390Y-87419523D01*
X115033390Y-87419523D02*
X115081009Y-87371904D01*
X115081009Y-87371904D02*
X115176247Y-87324285D01*
X115176247Y-87324285D02*
X115414342Y-87324285D01*
X115414342Y-87324285D02*
X115509580Y-87371904D01*
X115509580Y-87371904D02*
X115557200Y-87419523D01*
X115557200Y-87419523D02*
X115604819Y-87514761D01*
X115604819Y-87514761D02*
X115604819Y-87800475D01*
X115604819Y-87800475D02*
X115557200Y-87895713D01*
X115557200Y-87895713D02*
X115509580Y-87943332D01*
X111554819Y-88276666D02*
X111078628Y-88609999D01*
X111554819Y-88848094D02*
X110554819Y-88848094D01*
X110554819Y-88848094D02*
X110554819Y-88467142D01*
X110554819Y-88467142D02*
X110602438Y-88371904D01*
X110602438Y-88371904D02*
X110650057Y-88324285D01*
X110650057Y-88324285D02*
X110745295Y-88276666D01*
X110745295Y-88276666D02*
X110888152Y-88276666D01*
X110888152Y-88276666D02*
X110983390Y-88324285D01*
X110983390Y-88324285D02*
X111031009Y-88371904D01*
X111031009Y-88371904D02*
X111078628Y-88467142D01*
X111078628Y-88467142D02*
X111078628Y-88848094D01*
X110650057Y-87895713D02*
X110602438Y-87848094D01*
X110602438Y-87848094D02*
X110554819Y-87752856D01*
X110554819Y-87752856D02*
X110554819Y-87514761D01*
X110554819Y-87514761D02*
X110602438Y-87419523D01*
X110602438Y-87419523D02*
X110650057Y-87371904D01*
X110650057Y-87371904D02*
X110745295Y-87324285D01*
X110745295Y-87324285D02*
X110840533Y-87324285D01*
X110840533Y-87324285D02*
X110983390Y-87371904D01*
X110983390Y-87371904D02*
X111554819Y-87943332D01*
X111554819Y-87943332D02*
X111554819Y-87324285D01*
X123704819Y-88276666D02*
X123228628Y-88609999D01*
X123704819Y-88848094D02*
X122704819Y-88848094D01*
X122704819Y-88848094D02*
X122704819Y-88467142D01*
X122704819Y-88467142D02*
X122752438Y-88371904D01*
X122752438Y-88371904D02*
X122800057Y-88324285D01*
X122800057Y-88324285D02*
X122895295Y-88276666D01*
X122895295Y-88276666D02*
X123038152Y-88276666D01*
X123038152Y-88276666D02*
X123133390Y-88324285D01*
X123133390Y-88324285D02*
X123181009Y-88371904D01*
X123181009Y-88371904D02*
X123228628Y-88467142D01*
X123228628Y-88467142D02*
X123228628Y-88848094D01*
X122704819Y-87371904D02*
X122704819Y-87848094D01*
X122704819Y-87848094D02*
X123181009Y-87895713D01*
X123181009Y-87895713D02*
X123133390Y-87848094D01*
X123133390Y-87848094D02*
X123085771Y-87752856D01*
X123085771Y-87752856D02*
X123085771Y-87514761D01*
X123085771Y-87514761D02*
X123133390Y-87419523D01*
X123133390Y-87419523D02*
X123181009Y-87371904D01*
X123181009Y-87371904D02*
X123276247Y-87324285D01*
X123276247Y-87324285D02*
X123514342Y-87324285D01*
X123514342Y-87324285D02*
X123609580Y-87371904D01*
X123609580Y-87371904D02*
X123657200Y-87419523D01*
X123657200Y-87419523D02*
X123704819Y-87514761D01*
X123704819Y-87514761D02*
X123704819Y-87752856D01*
X123704819Y-87752856D02*
X123657200Y-87848094D01*
X123657200Y-87848094D02*
X123609580Y-87895713D01*
X172238095Y-88954819D02*
X172238095Y-89764342D01*
X172238095Y-89764342D02*
X172285714Y-89859580D01*
X172285714Y-89859580D02*
X172333333Y-89907200D01*
X172333333Y-89907200D02*
X172428571Y-89954819D01*
X172428571Y-89954819D02*
X172619047Y-89954819D01*
X172619047Y-89954819D02*
X172714285Y-89907200D01*
X172714285Y-89907200D02*
X172761904Y-89859580D01*
X172761904Y-89859580D02*
X172809523Y-89764342D01*
X172809523Y-89764342D02*
X172809523Y-88954819D01*
X173238095Y-89050057D02*
X173285714Y-89002438D01*
X173285714Y-89002438D02*
X173380952Y-88954819D01*
X173380952Y-88954819D02*
X173619047Y-88954819D01*
X173619047Y-88954819D02*
X173714285Y-89002438D01*
X173714285Y-89002438D02*
X173761904Y-89050057D01*
X173761904Y-89050057D02*
X173809523Y-89145295D01*
X173809523Y-89145295D02*
X173809523Y-89240533D01*
X173809523Y-89240533D02*
X173761904Y-89383390D01*
X173761904Y-89383390D02*
X173190476Y-89954819D01*
X173190476Y-89954819D02*
X173809523Y-89954819D01*
X127754819Y-88276666D02*
X127278628Y-88609999D01*
X127754819Y-88848094D02*
X126754819Y-88848094D01*
X126754819Y-88848094D02*
X126754819Y-88467142D01*
X126754819Y-88467142D02*
X126802438Y-88371904D01*
X126802438Y-88371904D02*
X126850057Y-88324285D01*
X126850057Y-88324285D02*
X126945295Y-88276666D01*
X126945295Y-88276666D02*
X127088152Y-88276666D01*
X127088152Y-88276666D02*
X127183390Y-88324285D01*
X127183390Y-88324285D02*
X127231009Y-88371904D01*
X127231009Y-88371904D02*
X127278628Y-88467142D01*
X127278628Y-88467142D02*
X127278628Y-88848094D01*
X126754819Y-87419523D02*
X126754819Y-87609999D01*
X126754819Y-87609999D02*
X126802438Y-87705237D01*
X126802438Y-87705237D02*
X126850057Y-87752856D01*
X126850057Y-87752856D02*
X126992914Y-87848094D01*
X126992914Y-87848094D02*
X127183390Y-87895713D01*
X127183390Y-87895713D02*
X127564342Y-87895713D01*
X127564342Y-87895713D02*
X127659580Y-87848094D01*
X127659580Y-87848094D02*
X127707200Y-87800475D01*
X127707200Y-87800475D02*
X127754819Y-87705237D01*
X127754819Y-87705237D02*
X127754819Y-87514761D01*
X127754819Y-87514761D02*
X127707200Y-87419523D01*
X127707200Y-87419523D02*
X127659580Y-87371904D01*
X127659580Y-87371904D02*
X127564342Y-87324285D01*
X127564342Y-87324285D02*
X127326247Y-87324285D01*
X127326247Y-87324285D02*
X127231009Y-87371904D01*
X127231009Y-87371904D02*
X127183390Y-87419523D01*
X127183390Y-87419523D02*
X127135771Y-87514761D01*
X127135771Y-87514761D02*
X127135771Y-87705237D01*
X127135771Y-87705237D02*
X127183390Y-87800475D01*
X127183390Y-87800475D02*
X127231009Y-87848094D01*
X127231009Y-87848094D02*
X127326247Y-87895713D01*
X119654819Y-88276666D02*
X119178628Y-88609999D01*
X119654819Y-88848094D02*
X118654819Y-88848094D01*
X118654819Y-88848094D02*
X118654819Y-88467142D01*
X118654819Y-88467142D02*
X118702438Y-88371904D01*
X118702438Y-88371904D02*
X118750057Y-88324285D01*
X118750057Y-88324285D02*
X118845295Y-88276666D01*
X118845295Y-88276666D02*
X118988152Y-88276666D01*
X118988152Y-88276666D02*
X119083390Y-88324285D01*
X119083390Y-88324285D02*
X119131009Y-88371904D01*
X119131009Y-88371904D02*
X119178628Y-88467142D01*
X119178628Y-88467142D02*
X119178628Y-88848094D01*
X118988152Y-87419523D02*
X119654819Y-87419523D01*
X118607200Y-87657618D02*
X119321485Y-87895713D01*
X119321485Y-87895713D02*
X119321485Y-87276666D01*
X170299819Y-76008094D02*
X169299819Y-76008094D01*
X169299819Y-76008094D02*
X169299819Y-75769999D01*
X169299819Y-75769999D02*
X169347438Y-75627142D01*
X169347438Y-75627142D02*
X169442676Y-75531904D01*
X169442676Y-75531904D02*
X169537914Y-75484285D01*
X169537914Y-75484285D02*
X169728390Y-75436666D01*
X169728390Y-75436666D02*
X169871247Y-75436666D01*
X169871247Y-75436666D02*
X170061723Y-75484285D01*
X170061723Y-75484285D02*
X170156961Y-75531904D01*
X170156961Y-75531904D02*
X170252200Y-75627142D01*
X170252200Y-75627142D02*
X170299819Y-75769999D01*
X170299819Y-75769999D02*
X170299819Y-76008094D01*
X169299819Y-74531904D02*
X169299819Y-75008094D01*
X169299819Y-75008094D02*
X169776009Y-75055713D01*
X169776009Y-75055713D02*
X169728390Y-75008094D01*
X169728390Y-75008094D02*
X169680771Y-74912856D01*
X169680771Y-74912856D02*
X169680771Y-74674761D01*
X169680771Y-74674761D02*
X169728390Y-74579523D01*
X169728390Y-74579523D02*
X169776009Y-74531904D01*
X169776009Y-74531904D02*
X169871247Y-74484285D01*
X169871247Y-74484285D02*
X170109342Y-74484285D01*
X170109342Y-74484285D02*
X170204580Y-74531904D01*
X170204580Y-74531904D02*
X170252200Y-74579523D01*
X170252200Y-74579523D02*
X170299819Y-74674761D01*
X170299819Y-74674761D02*
X170299819Y-74912856D01*
X170299819Y-74912856D02*
X170252200Y-75008094D01*
X170252200Y-75008094D02*
X170204580Y-75055713D01*
X131888095Y-76769819D02*
X131888095Y-77579342D01*
X131888095Y-77579342D02*
X131935714Y-77674580D01*
X131935714Y-77674580D02*
X131983333Y-77722200D01*
X131983333Y-77722200D02*
X132078571Y-77769819D01*
X132078571Y-77769819D02*
X132269047Y-77769819D01*
X132269047Y-77769819D02*
X132364285Y-77722200D01*
X132364285Y-77722200D02*
X132411904Y-77674580D01*
X132411904Y-77674580D02*
X132459523Y-77579342D01*
X132459523Y-77579342D02*
X132459523Y-76769819D01*
X133459523Y-77769819D02*
X132888095Y-77769819D01*
X133173809Y-77769819D02*
X133173809Y-76769819D01*
X133173809Y-76769819D02*
X133078571Y-76912676D01*
X133078571Y-76912676D02*
X132983333Y-77007914D01*
X132983333Y-77007914D02*
X132888095Y-77055533D01*
X154454819Y-79238094D02*
X153454819Y-79238094D01*
X153454819Y-79238094D02*
X153454819Y-78999999D01*
X153454819Y-78999999D02*
X153502438Y-78857142D01*
X153502438Y-78857142D02*
X153597676Y-78761904D01*
X153597676Y-78761904D02*
X153692914Y-78714285D01*
X153692914Y-78714285D02*
X153883390Y-78666666D01*
X153883390Y-78666666D02*
X154026247Y-78666666D01*
X154026247Y-78666666D02*
X154216723Y-78714285D01*
X154216723Y-78714285D02*
X154311961Y-78761904D01*
X154311961Y-78761904D02*
X154407200Y-78857142D01*
X154407200Y-78857142D02*
X154454819Y-78999999D01*
X154454819Y-78999999D02*
X154454819Y-79238094D01*
X153454819Y-77809523D02*
X153454819Y-77999999D01*
X153454819Y-77999999D02*
X153502438Y-78095237D01*
X153502438Y-78095237D02*
X153550057Y-78142856D01*
X153550057Y-78142856D02*
X153692914Y-78238094D01*
X153692914Y-78238094D02*
X153883390Y-78285713D01*
X153883390Y-78285713D02*
X154264342Y-78285713D01*
X154264342Y-78285713D02*
X154359580Y-78238094D01*
X154359580Y-78238094D02*
X154407200Y-78190475D01*
X154407200Y-78190475D02*
X154454819Y-78095237D01*
X154454819Y-78095237D02*
X154454819Y-77904761D01*
X154454819Y-77904761D02*
X154407200Y-77809523D01*
X154407200Y-77809523D02*
X154359580Y-77761904D01*
X154359580Y-77761904D02*
X154264342Y-77714285D01*
X154264342Y-77714285D02*
X154026247Y-77714285D01*
X154026247Y-77714285D02*
X153931009Y-77761904D01*
X153931009Y-77761904D02*
X153883390Y-77809523D01*
X153883390Y-77809523D02*
X153835771Y-77904761D01*
X153835771Y-77904761D02*
X153835771Y-78095237D01*
X153835771Y-78095237D02*
X153883390Y-78190475D01*
X153883390Y-78190475D02*
X153931009Y-78238094D01*
X153931009Y-78238094D02*
X154026247Y-78285713D01*
X156554819Y-100568094D02*
X155554819Y-100568094D01*
X155554819Y-100568094D02*
X155554819Y-100329999D01*
X155554819Y-100329999D02*
X155602438Y-100187142D01*
X155602438Y-100187142D02*
X155697676Y-100091904D01*
X155697676Y-100091904D02*
X155792914Y-100044285D01*
X155792914Y-100044285D02*
X155983390Y-99996666D01*
X155983390Y-99996666D02*
X156126247Y-99996666D01*
X156126247Y-99996666D02*
X156316723Y-100044285D01*
X156316723Y-100044285D02*
X156411961Y-100091904D01*
X156411961Y-100091904D02*
X156507200Y-100187142D01*
X156507200Y-100187142D02*
X156554819Y-100329999D01*
X156554819Y-100329999D02*
X156554819Y-100568094D01*
X155888152Y-99139523D02*
X156554819Y-99139523D01*
X155507200Y-99377618D02*
X156221485Y-99615713D01*
X156221485Y-99615713D02*
X156221485Y-98996666D01*
X139904819Y-88276666D02*
X139428628Y-88609999D01*
X139904819Y-88848094D02*
X138904819Y-88848094D01*
X138904819Y-88848094D02*
X138904819Y-88467142D01*
X138904819Y-88467142D02*
X138952438Y-88371904D01*
X138952438Y-88371904D02*
X139000057Y-88324285D01*
X139000057Y-88324285D02*
X139095295Y-88276666D01*
X139095295Y-88276666D02*
X139238152Y-88276666D01*
X139238152Y-88276666D02*
X139333390Y-88324285D01*
X139333390Y-88324285D02*
X139381009Y-88371904D01*
X139381009Y-88371904D02*
X139428628Y-88467142D01*
X139428628Y-88467142D02*
X139428628Y-88848094D01*
X139904819Y-87800475D02*
X139904819Y-87609999D01*
X139904819Y-87609999D02*
X139857200Y-87514761D01*
X139857200Y-87514761D02*
X139809580Y-87467142D01*
X139809580Y-87467142D02*
X139666723Y-87371904D01*
X139666723Y-87371904D02*
X139476247Y-87324285D01*
X139476247Y-87324285D02*
X139095295Y-87324285D01*
X139095295Y-87324285D02*
X139000057Y-87371904D01*
X139000057Y-87371904D02*
X138952438Y-87419523D01*
X138952438Y-87419523D02*
X138904819Y-87514761D01*
X138904819Y-87514761D02*
X138904819Y-87705237D01*
X138904819Y-87705237D02*
X138952438Y-87800475D01*
X138952438Y-87800475D02*
X139000057Y-87848094D01*
X139000057Y-87848094D02*
X139095295Y-87895713D01*
X139095295Y-87895713D02*
X139333390Y-87895713D01*
X139333390Y-87895713D02*
X139428628Y-87848094D01*
X139428628Y-87848094D02*
X139476247Y-87800475D01*
X139476247Y-87800475D02*
X139523866Y-87705237D01*
X139523866Y-87705237D02*
X139523866Y-87514761D01*
X139523866Y-87514761D02*
X139476247Y-87419523D01*
X139476247Y-87419523D02*
X139428628Y-87371904D01*
X139428628Y-87371904D02*
X139333390Y-87324285D01*
X125454819Y-100568094D02*
X124454819Y-100568094D01*
X124454819Y-100568094D02*
X124454819Y-100329999D01*
X124454819Y-100329999D02*
X124502438Y-100187142D01*
X124502438Y-100187142D02*
X124597676Y-100091904D01*
X124597676Y-100091904D02*
X124692914Y-100044285D01*
X124692914Y-100044285D02*
X124883390Y-99996666D01*
X124883390Y-99996666D02*
X125026247Y-99996666D01*
X125026247Y-99996666D02*
X125216723Y-100044285D01*
X125216723Y-100044285D02*
X125311961Y-100091904D01*
X125311961Y-100091904D02*
X125407200Y-100187142D01*
X125407200Y-100187142D02*
X125454819Y-100329999D01*
X125454819Y-100329999D02*
X125454819Y-100568094D01*
X124550057Y-99615713D02*
X124502438Y-99568094D01*
X124502438Y-99568094D02*
X124454819Y-99472856D01*
X124454819Y-99472856D02*
X124454819Y-99234761D01*
X124454819Y-99234761D02*
X124502438Y-99139523D01*
X124502438Y-99139523D02*
X124550057Y-99091904D01*
X124550057Y-99091904D02*
X124645295Y-99044285D01*
X124645295Y-99044285D02*
X124740533Y-99044285D01*
X124740533Y-99044285D02*
X124883390Y-99091904D01*
X124883390Y-99091904D02*
X125454819Y-99663332D01*
X125454819Y-99663332D02*
X125454819Y-99044285D01*
X143954819Y-88752857D02*
X143478628Y-89086190D01*
X143954819Y-89324285D02*
X142954819Y-89324285D01*
X142954819Y-89324285D02*
X142954819Y-88943333D01*
X142954819Y-88943333D02*
X143002438Y-88848095D01*
X143002438Y-88848095D02*
X143050057Y-88800476D01*
X143050057Y-88800476D02*
X143145295Y-88752857D01*
X143145295Y-88752857D02*
X143288152Y-88752857D01*
X143288152Y-88752857D02*
X143383390Y-88800476D01*
X143383390Y-88800476D02*
X143431009Y-88848095D01*
X143431009Y-88848095D02*
X143478628Y-88943333D01*
X143478628Y-88943333D02*
X143478628Y-89324285D01*
X143954819Y-87800476D02*
X143954819Y-88371904D01*
X143954819Y-88086190D02*
X142954819Y-88086190D01*
X142954819Y-88086190D02*
X143097676Y-88181428D01*
X143097676Y-88181428D02*
X143192914Y-88276666D01*
X143192914Y-88276666D02*
X143240533Y-88371904D01*
X142954819Y-87181428D02*
X142954819Y-87086190D01*
X142954819Y-87086190D02*
X143002438Y-86990952D01*
X143002438Y-86990952D02*
X143050057Y-86943333D01*
X143050057Y-86943333D02*
X143145295Y-86895714D01*
X143145295Y-86895714D02*
X143335771Y-86848095D01*
X143335771Y-86848095D02*
X143573866Y-86848095D01*
X143573866Y-86848095D02*
X143764342Y-86895714D01*
X143764342Y-86895714D02*
X143859580Y-86943333D01*
X143859580Y-86943333D02*
X143907200Y-86990952D01*
X143907200Y-86990952D02*
X143954819Y-87086190D01*
X143954819Y-87086190D02*
X143954819Y-87181428D01*
X143954819Y-87181428D02*
X143907200Y-87276666D01*
X143907200Y-87276666D02*
X143859580Y-87324285D01*
X143859580Y-87324285D02*
X143764342Y-87371904D01*
X143764342Y-87371904D02*
X143573866Y-87419523D01*
X143573866Y-87419523D02*
X143335771Y-87419523D01*
X143335771Y-87419523D02*
X143145295Y-87371904D01*
X143145295Y-87371904D02*
X143050057Y-87324285D01*
X143050057Y-87324285D02*
X143002438Y-87276666D01*
X143002438Y-87276666D02*
X142954819Y-87181428D01*
X109907200Y-78833332D02*
X109954819Y-78690475D01*
X109954819Y-78690475D02*
X109954819Y-78452380D01*
X109954819Y-78452380D02*
X109907200Y-78357142D01*
X109907200Y-78357142D02*
X109859580Y-78309523D01*
X109859580Y-78309523D02*
X109764342Y-78261904D01*
X109764342Y-78261904D02*
X109669104Y-78261904D01*
X109669104Y-78261904D02*
X109573866Y-78309523D01*
X109573866Y-78309523D02*
X109526247Y-78357142D01*
X109526247Y-78357142D02*
X109478628Y-78452380D01*
X109478628Y-78452380D02*
X109431009Y-78642856D01*
X109431009Y-78642856D02*
X109383390Y-78738094D01*
X109383390Y-78738094D02*
X109335771Y-78785713D01*
X109335771Y-78785713D02*
X109240533Y-78833332D01*
X109240533Y-78833332D02*
X109145295Y-78833332D01*
X109145295Y-78833332D02*
X109050057Y-78785713D01*
X109050057Y-78785713D02*
X109002438Y-78738094D01*
X109002438Y-78738094D02*
X108954819Y-78642856D01*
X108954819Y-78642856D02*
X108954819Y-78404761D01*
X108954819Y-78404761D02*
X109002438Y-78261904D01*
X108954819Y-77928570D02*
X109954819Y-77690475D01*
X109954819Y-77690475D02*
X109240533Y-77499999D01*
X109240533Y-77499999D02*
X109954819Y-77309523D01*
X109954819Y-77309523D02*
X108954819Y-77071428D01*
X109954819Y-76166666D02*
X109954819Y-76738094D01*
X109954819Y-76452380D02*
X108954819Y-76452380D01*
X108954819Y-76452380D02*
X109097676Y-76547618D01*
X109097676Y-76547618D02*
X109192914Y-76642856D01*
X109192914Y-76642856D02*
X109240533Y-76738094D01*
%TO.C,D1*%
D11*
X109719000Y-104890000D02*
X114471000Y-104890000D01*
X109719184Y-104890000D02*
G75*
G02*
X112095000Y-94240000I2375816J5060000D01*
G01*
X112095000Y-94240000D02*
G75*
G02*
X114470816Y-104890000I0J-5590000D01*
G01*
X117095000Y-99830000D02*
G75*
G02*
X107095000Y-99830000I-5000000J0D01*
G01*
X107095000Y-99830000D02*
G75*
G02*
X117095000Y-99830000I5000000J0D01*
G01*
%TO.C,C2*%
X174080000Y-102530000D02*
X174410000Y-102530000D01*
X174080000Y-107470000D02*
X174080000Y-102530000D01*
X174410000Y-107470000D02*
X174080000Y-107470000D01*
X176490000Y-102530000D02*
X176820000Y-102530000D01*
X176820000Y-102530000D02*
X176820000Y-107470000D01*
X176820000Y-107470000D02*
X176490000Y-107470000D01*
%TO.C,SW2*%
X105985000Y-108405000D02*
X108495000Y-108405000D01*
X105985000Y-120625000D02*
X105985000Y-108405000D01*
X105985000Y-120625000D02*
X108495000Y-120625000D01*
X110795000Y-108405000D02*
X113395000Y-108405000D01*
X110795000Y-120625000D02*
X113395000Y-120625000D01*
X115695000Y-108405000D02*
X118205000Y-108405000D01*
X115695000Y-120625000D02*
X118205000Y-120625000D01*
X118205000Y-108405000D02*
X118205000Y-120625000D01*
X115645000Y-114515000D02*
G75*
G02*
X108545000Y-114515000I-3550000J0D01*
G01*
X108545000Y-114515000D02*
G75*
G02*
X115645000Y-114515000I3550000J0D01*
G01*
%TO.C,BZ1*%
X155620000Y-90000000D02*
G75*
G02*
X146380000Y-90000000I-4620000J0D01*
G01*
X146380000Y-90000000D02*
G75*
G02*
X155620000Y-90000000I4620000J0D01*
G01*
%TO.C,SW5*%
X152635000Y-108405000D02*
X155145000Y-108405000D01*
X152635000Y-120625000D02*
X152635000Y-108405000D01*
X152635000Y-120625000D02*
X155145000Y-120625000D01*
X157445000Y-108405000D02*
X160045000Y-108405000D01*
X157445000Y-120625000D02*
X160045000Y-120625000D01*
X162345000Y-108405000D02*
X164855000Y-108405000D01*
X162345000Y-120625000D02*
X164855000Y-120625000D01*
X164855000Y-108405000D02*
X164855000Y-120625000D01*
X162295000Y-114515000D02*
G75*
G02*
X155195000Y-114515000I-3550000J0D01*
G01*
X155195000Y-114515000D02*
G75*
G02*
X162295000Y-114515000I3550000J0D01*
G01*
%TO.C,D3*%
X140819000Y-104890000D02*
X145571000Y-104890000D01*
X140819184Y-104890000D02*
G75*
G02*
X143195000Y-94240000I2375816J5060000D01*
G01*
X143195000Y-94240000D02*
G75*
G02*
X145570816Y-104890000I0J-5590000D01*
G01*
X148195000Y-99830000D02*
G75*
G02*
X138195000Y-99830000I-5000000J0D01*
G01*
X138195000Y-99830000D02*
G75*
G02*
X148195000Y-99830000I5000000J0D01*
G01*
%TO.C,R1*%
X105680000Y-84840000D02*
X106010000Y-84840000D01*
X105680000Y-91380000D02*
X105680000Y-84840000D01*
X106010000Y-91380000D02*
X105680000Y-91380000D01*
X108090000Y-91380000D02*
X108420000Y-91380000D01*
X108420000Y-84840000D02*
X108090000Y-84840000D01*
X108420000Y-91380000D02*
X108420000Y-84840000D01*
%TO.C,C1*%
X169080000Y-102530000D02*
X169410000Y-102530000D01*
X169080000Y-107470000D02*
X169080000Y-102530000D01*
X169410000Y-107470000D02*
X169080000Y-107470000D01*
X171490000Y-102530000D02*
X171820000Y-102530000D01*
X171820000Y-102530000D02*
X171820000Y-107470000D01*
X171820000Y-107470000D02*
X171490000Y-107470000D01*
%TO.C,RV1*%
X166995000Y-110890000D02*
X168109000Y-110890000D01*
X166995000Y-121110000D02*
X166995000Y-110890000D01*
X170609000Y-121110000D02*
X166995000Y-121110000D01*
X170901000Y-110890000D02*
X173109000Y-110890000D01*
X175901000Y-110890000D02*
X177015000Y-110890000D01*
X177015000Y-110890000D02*
X177015000Y-121110000D01*
X177015000Y-121110000D02*
X173401000Y-121110000D01*
%TO.C,SW3*%
X121535000Y-108405000D02*
X124045000Y-108405000D01*
X121535000Y-120625000D02*
X121535000Y-108405000D01*
X121535000Y-120625000D02*
X124045000Y-120625000D01*
X126345000Y-108405000D02*
X128945000Y-108405000D01*
X126345000Y-120625000D02*
X128945000Y-120625000D01*
X131245000Y-108405000D02*
X133755000Y-108405000D01*
X131245000Y-120625000D02*
X133755000Y-120625000D01*
X133755000Y-108405000D02*
X133755000Y-120625000D01*
X131195000Y-114515000D02*
G75*
G02*
X124095000Y-114515000I-3550000J0D01*
G01*
X124095000Y-114515000D02*
G75*
G02*
X131195000Y-114515000I3550000J0D01*
G01*
%TO.C,SW4*%
X137085000Y-108405000D02*
X139595000Y-108405000D01*
X137085000Y-120625000D02*
X137085000Y-108405000D01*
X137085000Y-120625000D02*
X139595000Y-120625000D01*
X141895000Y-108405000D02*
X144495000Y-108405000D01*
X141895000Y-120625000D02*
X144495000Y-120625000D01*
X146795000Y-108405000D02*
X149305000Y-108405000D01*
X146795000Y-120625000D02*
X149305000Y-120625000D01*
X149305000Y-108405000D02*
X149305000Y-120625000D01*
X146745000Y-114515000D02*
G75*
G02*
X139645000Y-114515000I-3550000J0D01*
G01*
X139645000Y-114515000D02*
G75*
G02*
X146745000Y-114515000I3550000J0D01*
G01*
%TO.C,R8*%
X134030000Y-84840000D02*
X134360000Y-84840000D01*
X134030000Y-91380000D02*
X134030000Y-84840000D01*
X134360000Y-91380000D02*
X134030000Y-91380000D01*
X136440000Y-91380000D02*
X136770000Y-91380000D01*
X136770000Y-84840000D02*
X136440000Y-84840000D01*
X136770000Y-91380000D02*
X136770000Y-84840000D01*
%TO.C,R7*%
X129980000Y-84840000D02*
X130310000Y-84840000D01*
X129980000Y-91380000D02*
X129980000Y-84840000D01*
X130310000Y-91380000D02*
X129980000Y-91380000D01*
X132390000Y-91380000D02*
X132720000Y-91380000D01*
X132720000Y-84840000D02*
X132390000Y-84840000D01*
X132720000Y-91380000D02*
X132720000Y-84840000D01*
%TO.C,Q1*%
X156890000Y-72160000D02*
X167110000Y-72160000D01*
X156890000Y-88030000D02*
X156890000Y-72160000D01*
X156890000Y-88030000D02*
X167110000Y-88030000D01*
X158975000Y-88030000D02*
X158975000Y-90470000D01*
X159945000Y-88030000D02*
X159945000Y-90470000D01*
X161515000Y-88030000D02*
X161515000Y-90470000D01*
X162485000Y-88030000D02*
X162485000Y-90470000D01*
X164055000Y-88030000D02*
X164055000Y-90470000D01*
X165025000Y-88030000D02*
X165025000Y-90470000D01*
X167110000Y-88030000D02*
X167110000Y-72160000D01*
%TO.C,R3*%
X113780000Y-84840000D02*
X114110000Y-84840000D01*
X113780000Y-91380000D02*
X113780000Y-84840000D01*
X114110000Y-91380000D02*
X113780000Y-91380000D01*
X116190000Y-91380000D02*
X116520000Y-91380000D01*
X116520000Y-84840000D02*
X116190000Y-84840000D01*
X116520000Y-91380000D02*
X116520000Y-84840000D01*
%TO.C,R2*%
X109730000Y-84840000D02*
X110060000Y-84840000D01*
X109730000Y-91380000D02*
X109730000Y-84840000D01*
X110060000Y-91380000D02*
X109730000Y-91380000D01*
X112140000Y-91380000D02*
X112470000Y-91380000D01*
X112470000Y-84840000D02*
X112140000Y-84840000D01*
X112470000Y-91380000D02*
X112470000Y-84840000D01*
%TO.C,R5*%
X121880000Y-84840000D02*
X122210000Y-84840000D01*
X121880000Y-91380000D02*
X121880000Y-84840000D01*
X122210000Y-91380000D02*
X121880000Y-91380000D01*
X124290000Y-91380000D02*
X124620000Y-91380000D01*
X124620000Y-84840000D02*
X124290000Y-84840000D01*
X124620000Y-91380000D02*
X124620000Y-84840000D01*
%TO.C,U2*%
X167890000Y-79160000D02*
X178110000Y-79160000D01*
X167890000Y-95030000D02*
X167890000Y-79160000D01*
X167890000Y-95030000D02*
X178110000Y-95030000D01*
X169975000Y-95030000D02*
X169975000Y-97470000D01*
X170945000Y-95030000D02*
X170945000Y-97470000D01*
X172515000Y-95030000D02*
X172515000Y-97470000D01*
X173485000Y-95030000D02*
X173485000Y-97470000D01*
X175055000Y-95030000D02*
X175055000Y-97470000D01*
X176025000Y-95030000D02*
X176025000Y-97470000D01*
X178110000Y-95030000D02*
X178110000Y-79160000D01*
%TO.C,R6*%
X125930000Y-84840000D02*
X126260000Y-84840000D01*
X125930000Y-91380000D02*
X125930000Y-84840000D01*
X126260000Y-91380000D02*
X125930000Y-91380000D01*
X128340000Y-91380000D02*
X128670000Y-91380000D01*
X128670000Y-84840000D02*
X128340000Y-84840000D01*
X128670000Y-91380000D02*
X128670000Y-84840000D01*
%TO.C,R4*%
X117830000Y-84840000D02*
X118160000Y-84840000D01*
X117830000Y-91380000D02*
X117830000Y-84840000D01*
X118160000Y-91380000D02*
X117830000Y-91380000D01*
X120240000Y-91380000D02*
X120570000Y-91380000D01*
X120570000Y-84840000D02*
X120240000Y-84840000D01*
X120570000Y-91380000D02*
X120570000Y-84840000D01*
%TO.C,D5*%
X169955000Y-77830000D02*
X173045000Y-77830000D01*
X169955170Y-77830000D02*
G75*
G02*
X171500000Y-72280000I1544830J2560000D01*
G01*
X171500000Y-72280000D02*
G75*
G02*
X173044830Y-77830000I0J-2990000D01*
G01*
X174000000Y-75270000D02*
G75*
G02*
X169000000Y-75270000I-2500000J0D01*
G01*
X169000000Y-75270000D02*
G75*
G02*
X174000000Y-75270000I2500000J0D01*
G01*
%TO.C,U1*%
X114810000Y-74660000D02*
X114810000Y-76310000D01*
X114810000Y-78310000D02*
X114810000Y-79960000D01*
X114810000Y-79960000D02*
X150490000Y-79960000D01*
X150490000Y-74660000D02*
X114810000Y-74660000D01*
X150490000Y-79960000D02*
X150490000Y-74660000D01*
X114810000Y-76310000D02*
G75*
G02*
X114810000Y-78310000I0J-1000000D01*
G01*
%TO.C,D6*%
X152530000Y-80200000D02*
X155470000Y-80200000D01*
X152530000Y-80320000D02*
X155470000Y-80320000D01*
X152530000Y-80440000D02*
X155470000Y-80440000D01*
X154000000Y-74760000D02*
X154000000Y-75780000D01*
X154000000Y-82240000D02*
X154000000Y-81220000D01*
X152530000Y-75780000D02*
X155470000Y-75780000D01*
X155470000Y-81220000D01*
X152530000Y-81220000D01*
X152530000Y-75780000D01*
%TO.C,D4*%
X156369000Y-104890000D02*
X161121000Y-104890000D01*
X156369184Y-104890000D02*
G75*
G02*
X158745000Y-94240000I2375816J5060000D01*
G01*
X158745000Y-94240000D02*
G75*
G02*
X161120816Y-104890000I0J-5590000D01*
G01*
X163745000Y-99830000D02*
G75*
G02*
X153745000Y-99830000I-5000000J0D01*
G01*
X153745000Y-99830000D02*
G75*
G02*
X163745000Y-99830000I5000000J0D01*
G01*
%TO.C,R9*%
X138080000Y-84840000D02*
X138410000Y-84840000D01*
X138080000Y-91380000D02*
X138080000Y-84840000D01*
X138410000Y-91380000D02*
X138080000Y-91380000D01*
X140490000Y-91380000D02*
X140820000Y-91380000D01*
X140820000Y-84840000D02*
X140490000Y-84840000D01*
X140820000Y-91380000D02*
X140820000Y-84840000D01*
%TO.C,D2*%
X125269000Y-104890000D02*
X130021000Y-104890000D01*
X125269184Y-104890000D02*
G75*
G02*
X127645000Y-94240000I2375816J5060000D01*
G01*
X127645000Y-94240000D02*
G75*
G02*
X130020816Y-104890000I0J-5590000D01*
G01*
X132645000Y-99830000D02*
G75*
G02*
X122645000Y-99830000I-5000000J0D01*
G01*
X122645000Y-99830000D02*
G75*
G02*
X132645000Y-99830000I5000000J0D01*
G01*
%TO.C,R10*%
X142130000Y-84840000D02*
X142460000Y-84840000D01*
X142130000Y-91380000D02*
X142130000Y-84840000D01*
X142460000Y-91380000D02*
X142130000Y-91380000D01*
X144540000Y-91380000D02*
X144870000Y-91380000D01*
X144870000Y-84840000D02*
X144540000Y-84840000D01*
X144870000Y-91380000D02*
X144870000Y-84840000D01*
%TO.C,SW1*%
X106250000Y-75250000D02*
X106250000Y-79750000D01*
X108750000Y-81000000D02*
X110250000Y-81000000D01*
X110250000Y-74000000D02*
X108750000Y-74000000D01*
X112750000Y-79750000D02*
X112750000Y-75250000D01*
%TD*%
M02*
