M48
; DRILL file KiCad 10.0.2 date 2026-05-25T22:24:05
; FORMAT={-:-/ absolute / metric / decimal}
; #@! TF.CreationDate,2026-05-25T22:24:05-04:00
; #@! TF.GenerationSoftware,Kicad,Pcbnew,10.0.2
; #@! TF.FileFunction,Plated,1,2,PTH
FMAT,2
METRIC
; #@! TA.AperFunction,Plated,PTH,ComponentDrill
T1C0.600
; #@! TA.AperFunction,Plated,PTH,ComponentDrill
T2C0.800
; #@! TA.AperFunction,Plated,PTH,ComponentDrill
T3C0.900
; #@! TA.AperFunction,Plated,PTH,ComponentDrill
T4C1.100
; #@! TA.AperFunction,Plated,PTH,ComponentDrill
T5C1.300
%
G90
G05
T1
X177.0Y-73.5
X177.0Y-77.1
T2
X107.05Y-84.3
X107.05Y-91.92
X111.1Y-84.3
X111.1Y-91.92
X115.15Y-84.3
X115.15Y-91.92
X116.14Y-73.5
X116.14Y-81.12
X118.68Y-73.5
X118.68Y-81.12
X119.2Y-84.3
X119.2Y-91.92
X121.22Y-73.5
X121.22Y-81.12
X123.25Y-84.3
X123.25Y-91.92
X123.76Y-73.5
X123.76Y-81.12
X126.3Y-73.5
X126.3Y-81.12
X127.3Y-84.3
X127.3Y-91.92
X128.84Y-73.5
X128.84Y-81.12
X131.35Y-84.3
X131.35Y-91.92
X131.38Y-73.5
X131.38Y-81.12
X133.92Y-73.5
X133.92Y-81.12
X135.4Y-84.3
X135.4Y-91.92
X136.46Y-73.5
X136.46Y-81.12
X139.0Y-73.5
X139.0Y-81.12
X139.45Y-84.3
X139.45Y-91.92
X141.54Y-73.5
X141.54Y-81.12
X143.5Y-84.3
X143.5Y-91.92
X144.08Y-73.5
X144.08Y-81.12
X146.62Y-73.5
X146.62Y-81.12
X149.16Y-73.5
X149.16Y-81.12
X170.45Y-102.5
X170.45Y-107.5
X175.45Y-102.5
X175.45Y-107.5
T3
X112.095Y-98.56
X112.095Y-101.1
X127.645Y-98.56
X127.645Y-101.1
X143.195Y-98.56
X143.195Y-101.1
X151.0Y-88.0
X151.0Y-92.0
X158.745Y-98.56
X158.745Y-101.1
X171.5Y-74.0
X171.5Y-76.54
T4
X107.25Y-74.25
X107.25Y-80.75
X111.75Y-74.25
X111.75Y-80.75
X154.0Y-73.42
X154.0Y-83.58
X159.46Y-91.73
X162.0Y-91.73
X164.54Y-91.73
X170.46Y-98.73
X173.0Y-98.73
X175.54Y-98.73
T5
X109.595Y-108.265
X109.595Y-120.765
X114.595Y-108.265
X114.595Y-120.765
X125.145Y-108.265
X125.145Y-120.765
X130.145Y-108.265
X130.145Y-120.765
X140.695Y-108.265
X140.695Y-120.765
X145.695Y-108.265
X145.695Y-120.765
X156.245Y-108.265
X156.245Y-120.765
X161.245Y-108.265
X161.245Y-120.765
X169.505Y-111.0
X172.005Y-121.0
X174.505Y-111.0
M30
